<svg xmlns="http://www.w3.org/2000/svg" width="98" height="51" fill="none"><path fill="#000091" fill-rule="evenodd" d="M3.21 29.773h9.163c.37 0 .708.21.873.54l.707 1.414h5.86c.539 0 .976.437.976.976v10.742c0 .54-.437.977-.977.977H13.58a.98.98 0 0 1-.873-.54L12 42.469H5.164v5.86H3.211V29.772zM29.688 6.25h19.545c.79 0 1.51.446 1.863 1.152l1.508 3.015h12.5c1.15 0 2.084.932 2.084 2.083v22.917c0 1.15-.933 2.083-2.084 2.083H51.808a2.08 2.08 0 0 1-1.862-1.152l-1.508-3.015H33.853v12.5h-4.166zm46.96 23.523h9.163c.37 0 .707.21.873.54l.707 1.414h5.859c.54 0 .977.437.977.976v10.742c0 .54-.438.977-.977.977h-6.232a.98.98 0 0 1-.874-.54l-.707-1.413h-6.835v5.86h-1.954V29.772z" clip-rule="evenodd"/></svg>