<svg xmlns="http://www.w3.org/2000/svg" width="160" height="130" fill="none"><g clip-path="url(#a)"><path fill="#049674" d="M0 0h160v130H0z"/><path fill="#F2FFE9" d="M180 139V-7H-12v146z"/><path fill="#D2F1BD" d="M169 30h-42.989c-.128-2.296.899-5.494 2.801-6.86 1.902-1.364 4.97-1.223 6.332.66.754-3.338 1.711-6.684 3.561-9.589s4.726-5.324 8.165-6.013c4.384-.88 9.006 1.258 11.877 4.598s4.199 7.7 4.761 12.02c1.201-.959 3.12-.451 4.152.677S168.669 28.528 169 30"/><path fill="#C9CCE4" d="M58.899 37.856H28.805v48.485H58.9z"/><path fill="#7A81B9" d="M42.092 41.145h-1.7v2.098h1.7zm4.49 0h-1.7v2.098h1.7zm4.49 0h-1.7v2.098h1.7zm4.49 0h-1.7v2.098h1.7zm-8.98 5.942h-1.7v2.098h1.7zm4.49 0h-1.7v2.098h1.7zm4.49 0h-1.7v2.098h1.7zm-4.49 5.94h-1.7v2.098h1.7zm4.49 0h-1.7v2.098h1.7zm-4.49 7.393h-1.7v2.098h1.7zm4.49 0h-1.7v2.098h1.7zm-4.49 5.796h-1.7v2.098h1.7zm0 5.94h-1.7v2.098h1.7z"/><path fill="#C9CCE4" d="M77.792 17h-16.04v77.466h16.04z"/><path fill="#424D99" d="M77.791 94.466h9.453v-59.57L77.791 17zM70.63 19.3h-1.715v30.935h1.715zm-4.324 0H64.59v30.935h1.715zm8.82 0h-1.714v30.935h1.714zM70.63 53.766h-1.715V84.7h1.715zm-4.324 0H64.59V84.7h1.715zm8.82 0h-1.714V84.7h1.714z"/><path fill="#A1D45A" d="M-29.934 100.863c-10.759-16.333-9.483-43.096 5.504-64.65h36.846a13.1 13.1 0 0 1 9.275 3.845l53.818 53.85H161c5.366 7.312 5 48.093 5 48.093l-162.015.271z"/><path fill="#424D99" d="M48.873 82.325c0 11.77 5.17 21.31 11.55 21.31 6.378 0 11.549-9.54 11.549-21.31s-5.171-21.31-11.55-21.31c-3.764 0-7.107 3.323-9.216 8.468-1.464 3.569-2.333 8.018-2.333 12.842"/><path fill="#F2FFE9" d="M19.644 100.468h82.315c.659-3.825-6.692-17.197-19.421-24.529a17 17 0 0 0-3.162-1.414 18.4 18.4 0 0 0-5.786-.921h-98.645q-.473.001-.942.025A37 37 0 0 0-27 82.327c0 7.668 2.195 14.388 5.49 18.142z"/><path fill="#BDEB9C" d="M-25.306 93.431H93.8v-2.755H-26.07q.324 1.436.763 2.755M81.11 95.89H-24.353c.804 1.796 1.764 3.347 2.843 4.578H85.682z"/><path fill="#C9CCE4" d="M48.115 98.449h5.606a2.604 2.604 0 0 0 2.605-2.608V80.884a2.606 2.606 0 0 0-2.605-2.608h-5.606a2.605 2.605 0 0 0-2.607 2.608V95.84a2.61 2.61 0 0 0 2.606 2.608"/><path fill="#424D99" d="M50.114 85.805h1.443a2.47 2.47 0 0 0 2.475-2.478v-.457a2.477 2.477 0 0 0-2.475-2.476h-1.443a2.475 2.475 0 0 0-2.474 2.476v.457a2.476 2.476 0 0 0 2.474 2.478m-39.543 1.376h26.406a4.65 4.65 0 0 0 4.647-4.653 4.65 4.65 0 0 0-4.647-4.654H10.571a4.646 4.646 0 0 0-4.647 4.654 4.65 4.65 0 0 0 4.647 4.653"/><path fill="#002933" d="M69.603 77.884h15.988c8.268 5.755 13.802 13.828 15.688 18.893h-4.63l-11.423-6.732a12.5 12.5 0 0 0-6.344-1.73h-9.279a5.21 5.21 0 0 1-5.212-5.216 5.214 5.214 0 0 1 5.212-5.215"/><path fill="#424D99" d="M48.873 82.325c0-11.77 5.17-21.31 11.55-21.31h-75.87c-6.378 0-11.549 9.54-11.549 21.31s5.17 21.31 11.55 21.31h75.87c-6.38 0-11.55-9.542-11.55-21.31" style="mix-blend-mode:multiply"/><path fill="#D8FFBD" d="M26.976 104.439c-3.172 0-6.143-2.319-8.365-6.531-2.198-4.166-3.408-9.7-3.408-15.583s1.21-11.417 3.408-15.583c2.222-4.212 5.193-6.531 8.365-6.531a.225.225 0 0 1 0 .449c-6.244 0-11.325 9.718-11.325 21.665s5.08 21.665 11.325 21.665a.225.225 0 0 1 0 .449"/><path fill="#D8FFBD" d="M23.485 104.439c-2.809 0-5.434-2.323-7.396-6.54-1.935-4.165-3-9.695-3-15.574s1.067-11.41 3-15.573c1.96-4.218 4.585-6.541 7.396-6.541a.224.224 0 0 1 0 .449c-5.484 0-9.945 9.718-9.945 21.665s4.461 21.665 9.945 21.665a.225.225 0 0 1 0 .449M48.873 82.55a.224.224 0 0 1-.224-.225c0-4.709.813-9.18 2.35-12.929 2.242-5.469 5.676-8.605 9.423-8.605a.225.225 0 0 1 0 .449c-3.555 0-6.839 3.035-9.008 8.326-1.515 3.696-2.316 8.108-2.316 12.76a.23.23 0 0 1-.225.224"/><path fill="#15243D" d="M128.574 48.936a5.46 5.46 0 0 0 5.449-5.474 5.46 5.46 0 0 0-5.47-5.452 5.46 5.46 0 0 0-5.449 5.474 5.46 5.46 0 0 0 5.47 5.452"/><path fill="#C7ECAD" d="m135.818 84.14 5.99 9.702-6.37 4.282-3.613-6.85zm-7.249-14.392c-.104.035-2.132.444-4.177.854a6.97 6.97 0 0 0-5.44 8.34 7 7 0 0 0 1.397 2.895l7.792 9.6 5.562-14.126z"/><path fill="#038C61" d="m135.624 67.218-7.982 1.964 2.424 8.489 5.919-5.35z"/><path fill="#002933" d="M125.368 101.581c.013-9.24-7.463-16.742-16.698-16.755s-16.732 7.468-16.745 16.708c-.013 9.241 7.463 16.742 16.698 16.755s16.732-7.468 16.745-16.708"/><path fill="#A1D45A" d="M123.558 101.556c.009-8.27-6.686-14.983-14.953-14.992-8.266-.008-14.975 6.69-14.983 14.961s6.685 14.983 14.952 14.992c8.267.008 14.975-6.69 14.984-14.961"/><path fill="#424D99" d="M110.169 101.574a1.52 1.52 0 1 0-3.038-.036 1.52 1.52 0 0 0 3.038.036"/><path fill="#002933" d="M146.01 101.423a16.73 16.73 0 0 0 10.381 15.414 16.71 16.71 0 0 0 18.207-3.695 16.74 16.74 0 0 0 3.557-18.242 16.725 16.725 0 0 0-15.484-10.27 16.7 16.7 0 0 0-11.807 4.944 16.74 16.74 0 0 0-4.854 11.849"/><path fill="#A1D45A" d="M162.751 116.323c8.267-.008 14.961-6.72 14.953-14.992-.009-8.27-6.718-14.969-14.984-14.96s-14.961 6.72-14.953 14.992c.009 8.271 6.717 14.969 14.984 14.96"/><path fill="#424D99" d="M108.514 101.966a.43.43 0 0 0 .539-.283l7.047-22.601 46.444 22.665h.013l.065.024h.022a.5.5 0 0 0 .166.001h.024q.026-.007.052-.017l.028-.013a.3.3 0 0 0 .068-.04l.012-.007.01-.012a.4.4 0 0 0 .062-.063l.015-.019a.5.5 0 0 0 .049-.092q-.001-.01.005-.021a.4.4 0 0 0 .019-.085v-.027a.4.4 0 0 0-.007-.113l-6.066-28.427a.43.43 0 0 0-.84.175l1.606 7.115-41.469-1.956 2.823-9.063a.429.429 0 0 0-.607-.497.43.43 0 0 0-.213.241l-10.152 32.567a.43.43 0 0 0 .285.548m9.628-22.843 8.363.394 31.487 1.486 4.138 19.586z"/><path fill="#424D99" d="m161.567 70.189-7.792.888a1.64 1.64 0 0 0-1.458 1.637 1.64 1.64 0 0 0 1.469 1.627l7.799.831a2.508 2.508 0 1 0 .53-4.989 2.7 2.7 0 0 0-.548.006"/><path fill="#15243D" d="M161.852 75.3a3 3 0 0 1-.279-.017l-7.798-.83a.113.113 0 0 1-.099-.122.113.113 0 0 1 .121-.099l7.799.83a2.392 2.392 0 0 0 2.57-3.06 2.39 2.39 0 0 0-2.062-1.702 2.5 2.5 0 0 0-.525 0 .113.113 0 0 1-.122-.1.1.1 0 0 1 .025-.08.1.1 0 0 1 .073-.041q.286-.03.573 0a2.616 2.616 0 0 1 1.471 4.547 2.62 2.62 0 0 1-1.747.673"/><path fill="#8AC363" d="M141.237 104.653a5.56 5.56 0 0 0 5.535-5.579 5.556 5.556 0 1 0-11.111.04 5.556 5.556 0 0 0 5.576 5.539"/><path fill="#F2FFE9" d="M141.228 100.755a1.702 1.702 0 1 0-.004-3.408 1.702 1.702 0 0 0 .004 3.408"/><path fill="#15243D" d="M130.405 108.082a.44.44 0 0 0 .314-.138l7.638-8.23 2.72-.01a.43.43 0 0 0 .318-.74.44.44 0 0 0-.318-.118l-2.913.01a.43.43 0 0 0-.313.138l-7.764 8.365a.4.4 0 0 0-.11.221.43.43 0 0 0 .425.502z"/><path fill="#15243D" d="m127.616 108.486 4.346-.016-.005-1.177-4.345.016z"/><path fill="#D4F5BD" d="m140.192 81.597-3.423 2.782-.527 18.472s-1.474 2.146-1.683 2.146-6.276-.143-6.276-.143l.072-3.352-2.514-16.792a8.6 8.6 0 0 1-.082-1.669 8.35 8.35 0 0 1 2.552-5.589l4.963-4.773z"/><path fill="#15243D" d="M134.559 105.107c-.213 0-6.031-.138-6.278-.143a.1.1 0 0 1-.08-.033.12.12 0 0 1-.033-.081l.071-3.353-2.512-16.773a8.7 8.7 0 0 1-.083-1.69 8.47 8.47 0 0 1 2.585-5.67l4.963-4.773a.12.12 0 0 1 .086-.03.11.11 0 0 1 .08.042l6.913 8.918a.1.1 0 0 1 .021.08.1.1 0 0 1-.039.074l-3.376 2.755-.525 18.422a.1.1 0 0 1-.02.059c-.996 1.457-1.593 2.196-1.773 2.196m-6.162-.363c.825.019 5.967.14 6.162.14.134-.067.907-1.102 1.573-2.071l.526-18.44a.11.11 0 0 1 .041-.083l3.337-2.713-6.774-8.731-4.873 4.687a8.25 8.25 0 0 0-2.438 7.162l2.514 16.791z"/><path fill="#009E6C" d="M147.796 58.835c3.993 3.805 5.894 9.227 3.993 13.128-1.9 3.9-12.073 10.842-12.073 10.842-4.754-2.759-8.841-9.228-8.841-9.228l4.75-6.363z"/><path fill="#15243D" d="M139.716 82.919a.1.1 0 0 1-.056-.015c-4.723-2.742-8.84-9.2-8.88-9.265a.12.12 0 0 1 .006-.126l4.75-6.362a.1.1 0 0 1 .026-.026l12.172-8.382a.11.11 0 0 1 .139.012c4.213 4.015 5.865 9.465 4.017 13.257-1.893 3.881-11.695 10.603-12.111 10.885a.1.1 0 0 1-.063.022m-8.706-9.334c.44.68 4.307 6.506 8.701 9.09.829-.566 10.186-7.084 11.979-10.76 1.792-3.678.191-8.994-3.905-12.937l-12.083 8.32z"/><path fill="url(#b)" d="M133.12 61.326c1.679 2.267 2.429 5.764 2.504 5.896 5.27-.941 13.487-7.339 12.962-7.937-4.117-5.918-8.927-9.291-12.425-10.681a5.8 5.8 0 0 0-3.007-.34 5.9 5.9 0 0 0-2.403.932 46 46 0 0 0-2.607 1.873l-.024.05a6.666 6.666 0 0 0 1.794 7.99 25 25 0 0 0 3.206 2.216"/><path fill="#15243D" d="M135.63 67.328a.1.1 0 0 1-.055-.015.1.1 0 0 1-.04-.04 2 2 0 0 1-.103-.34c-.249-.907-1.003-3.665-2.396-5.544a.1.1 0 0 1-.029-.04.12.12 0 0 1 .005-.097.1.1 0 0 1 .033-.038.11.11 0 0 1 .095-.018.11.11 0 0 1 .075.062c1.416 1.912 2.18 4.7 2.431 5.616.021.082.043.16.059.214 4.795-.907 11.787-6.136 12.711-7.547.099-.15.089-.2.089-.2-4.971-7.144-10.314-9.823-12.379-10.644a5.66 5.66 0 0 0-2.946-.332 5.9 5.9 0 0 0-2.357.915c-1.37.915-2.417 1.728-2.575 1.85v.01a.12.12 0 0 1-.063.061.12.12 0 0 1-.089 0 .1.1 0 0 1-.058-.057.1.1 0 0 1-.008-.04.1.1 0 0 1 .01-.042l.022-.05a.1.1 0 0 1 .033-.04c.011-.008 1.121-.884 2.607-1.877a6.1 6.1 0 0 1 2.447-.95 5.9 5.9 0 0 1 3.066.34c2.085.829 7.474 3.532 12.474 10.72a.25.25 0 0 1 .048.126.26.26 0 0 1-.026.132c-.405 1.151-8.071 6.968-13.054 7.858zm-4.274-7.057a.1.1 0 0 1-.041-.008c-.088-.035-2.18-.907-3.923-4.774a.1.1 0 0 1 .008-.077.114.114 0 0 1 .132-.06.1.1 0 0 1 .062.045c1.7 3.771 3.784 4.649 3.804 4.66a.113.113 0 0 1 .061.145.11.11 0 0 1-.103.07"/><path fill="#8893E3" d="M136.423 102.967a.2.2 0 0 0-.072-.08.2.2 0 0 0-.103-.033.2.2 0 0 0-.099.016.2.2 0 0 0-.08.06c-.334.402-4.398.897-5.387.389a.2.2 0 0 1-.088-.085c-.183-.323-1.207-2.018-2.688-2.243a.23.23 0 0 0-.142.024.2.2 0 0 0-.091.103c-.132.318-.508 1.061-1.213 1.276 0 0-5.13 1.318-6.159 3.791a.2.2 0 0 0-.014.1.2.2 0 0 0 .034.094.2.2 0 0 0 .073.07.2.2 0 0 0 .097.028l16.246.723a.22.22 0 0 0 .167-.07.23.23 0 0 0 .051-.102c.095-.557.314-2.292-.532-4.061"/><path fill="#F2FFE9" d="m120.454 105.864 5.354.226 4.813-2.823a.2.2 0 0 1-.032-.043c-.184-.323-1.207-2.018-2.689-2.243a.23.23 0 0 0-.141.024.2.2 0 0 0-.092.103c-.131.318-.508 1.062-1.213 1.276-.004.001-4.693 1.21-6 3.48m11.071-1.346a.72.72 0 0 1-.474.642.717.717 0 1 1 .474-.642"/><path fill="#15243D" d="M130.775 105.314h-.006a.827.827 0 0 1-.769-.866.83.83 0 0 1 .846-.79.12.12 0 0 1 .076.036q.03.033.031.078a.1.1 0 0 1-.009.042.1.1 0 0 1-.062.058.1.1 0 0 1-.043.006.608.608 0 0 0-.476 1.015c.108.119.259.19.42.197q.046 0 .08.034a.114.114 0 0 1 0 .16.12.12 0 0 1-.08.033z"/><path fill="#F2FFE9" d="M137.006 106.626q.076-.696.018-1.395c-2.267.071-7.879.83-7.879.83z"/><path fill="#F2FFE9" d="m123.336 105.576.015-.323a.59.59 0 0 0-.561-.617l-1.146-.053a5.2 5.2 0 0 0-.931.907q-.251.316-.411.686a.2.2 0 0 0-.014.099.2.2 0 0 0 .034.095.2.2 0 0 0 .073.069.2.2 0 0 0 .097.028l16.246.724a.22.22 0 0 0 .218-.172q.073-.414.093-.833z"/><path fill="#15243D" d="M136.741 107.306h-.014l-16.247-.724a.33.33 0 0 1-.31-.292.3.3 0 0 1 .024-.152 3 3 0 0 1 .424-.712.2.2 0 0 1 .028-.03q.41-.512.934-.907a.1.1 0 0 1 .034-.019q.018-.006.038-.004l1.146.054a.69.69 0 0 1 .626.462.7.7 0 0 1 .041.27l-.011.213 13.595.609q.047.004.078.036a.1.1 0 0 1 .028.081 6 6 0 0 1-.095.846.32.32 0 0 1-.317.264zm-15.943-1.753a3 3 0 0 0-.4.669.1.1 0 0 0-.007.046q.002.023.016.043.012.022.035.034.021.013.046.014l16.247.723a.1.1 0 0 0 .08-.034.1.1 0 0 0 .023-.047q.063-.351.085-.707l-13.593-.609a.11.11 0 0 1-.106-.115l.015-.325a.476.476 0 0 0-.453-.5l-1.104-.052q-.482.367-.863.838a.1.1 0 0 1-.021.022m-.089-.064.02.015v-.007z"/><path fill="#15243D" d="M136.741 107.306h-.015l-16.246-.724a.32.32 0 0 1-.258-.147.31.31 0 0 1-.028-.297c.442-1.062 1.643-2.041 3.571-2.905a.12.12 0 0 1 .095-.017.1.1 0 0 1 .044.023.12.12 0 0 1 .04.089.114.114 0 0 1-.088.108c-1.289.578-2.935 1.532-3.457 2.787a.1.1 0 0 0-.007.046.1.1 0 0 0 .016.044q.012.02.035.034.021.012.046.013l16.247.724q.023 0 .044-.008a.1.1 0 0 0 .035-.026.1.1 0 0 0 .024-.048c.091-.492.322-2.233-.521-3.986a.1.1 0 0 0-.034-.04.1.1 0 0 0-.05-.017.1.1 0 0 0-.048.007.1.1 0 0 0-.038.029c-.409.497-4.548.918-5.523.417a.3.3 0 0 1-.133-.129c-.185-.327-1.182-1.971-2.606-2.187a.12.12 0 0 0-.072.011.1.1 0 0 0-.042.048q-.156.379-.406.704a.1.1 0 0 1-.072.027.113.113 0 0 1-.103-.166 2.8 2.8 0 0 0 .375-.65.32.32 0 0 1 .143-.158.34.34 0 0 1 .21-.036c1.528.232 2.575 1.955 2.768 2.298l.016.022.026.018c.955.491 4.953 0 5.25-.361a.32.32 0 0 1 .274-.113.32.32 0 0 1 .267.182c.873 1.815.634 3.614.54 4.123a.32.32 0 0 1-.317.263z"/><path fill="#15243D" d="M128.025 103.509a.1.1 0 0 1-.076-.028.1.1 0 0 1-.037-.071 1.18 1.18 0 0 0-.454-.777 1.24 1.24 0 0 0-.915-.274.12.12 0 0 1-.082-.023.12.12 0 0 1-.043-.073.1.1 0 0 1 .023-.081.1.1 0 0 1 .072-.043 1.48 1.48 0 0 1 1.083.319 1.4 1.4 0 0 1 .541.928.11.11 0 0 1-.098.122zm-1.594.366a.12.12 0 0 1-.073-.024.12.12 0 0 1-.041-.065 1.23 1.23 0 0 0-.601-.842.77.77 0 0 0-.591-.098.12.12 0 0 1-.096.009.1.1 0 0 1-.041-.027.1.1 0 0 1-.027-.041.12.12 0 0 1 .009-.096.11.11 0 0 1 .079-.055.98.98 0 0 1 .775.114 1.44 1.44 0 0 1 .71.991.12.12 0 0 1-.017.083.1.1 0 0 1-.068.048zm9.411-25.736a.1.1 0 0 1-.062-.023.114.114 0 0 1-.007-.174s.65-.533 1.617-1.34a.1.1 0 0 1 .039-.032.11.11 0 0 1 .097-.001.1.1 0 0 1 .04.03q.015.02.023.044a.12.12 0 0 1-.019.096.1.1 0 0 1-.037.032c-1.638 1.368-1.639 1.368-1.691 1.368m3.661-3.061a.11.11 0 0 1-.084-.039.1.1 0 0 1-.026-.08.12.12 0 0 1 .038-.077c.752-.641 1.429-1.23 2.016-1.75a.116.116 0 0 1 .143.022.116.116 0 0 1 .005.145c-.589.52-1.267 1.11-2.02 1.752a.1.1 0 0 1-.072.023zm3.961-3.582a.1.1 0 0 1-.073-.028.113.113 0 0 1-.011-.157 6 6 0 0 0 1.261-2.267.113.113 0 0 1 .137-.077.114.114 0 0 1 .076.138 6.2 6.2 0 0 1-1.307 2.357.1.1 0 0 1-.083.03zm1.348-4.952a.1.1 0 0 1-.071-.023.1.1 0 0 1-.042-.062 5.04 5.04 0 0 0-1.247-2.268.114.114 0 0 1 0-.156.114.114 0 0 1 .158 0 5.26 5.26 0 0 1 1.296 2.363.11.11 0 0 1-.081.135z"/><path fill="#D4F5BD" d="M126.549 48.404c.355.732 1.474 2.434 1.474 2.434-.453 1.039.257 2.166 1.602 1.606s2.455-2.638 2.011-3.49c-.41-.454-1.868-2.187-1.868-2.187z"/><path fill="#15243D" d="M128.943 52.702a1.13 1.13 0 0 1-.827-.33c-.363-.368-.448-.96-.227-1.524-.189-.29-1.121-1.728-1.446-2.398a.1.1 0 0 1 .007-.077.1.1 0 0 1 .054-.054.1.1 0 0 1 .076-.008.12.12 0 0 1 .064.042c.348.718 1.453 2.405 1.463 2.422q.015.024.018.052a.1.1 0 0 1-.008.054c-.215.496-.154 1.02.155 1.336.31.315.771.34 1.304.122a.1.1 0 0 1 .084 0 .12.12 0 0 1 .061.06q.015.043-.001.085a.12.12 0 0 1-.059.06c-.227.1-.471.153-.718.158"/><path fill="#D4F5BD" d="M127.762 49.547c1.178-.503 2.079-2.09 2.232-3.052-1.134-.36-.439-.356-.739-1.987-.514.08-1.122-.652-.656-1.7 0 0-.334-.114.026-.647-2.154.254-2.566.167-2.305-.198-1.133.434-1.9.181-1.9.181-2.13 6.955-.927 9.229 3.342 7.403"/><path fill="#F2FFE9" d="M125.444 45.163c-.361-.447-1.108-.95-1.534-.175.046.34.726.615 1.534.175"/><mask id="c" width="3" height="2" x="123" y="44" maskUnits="userSpaceOnUse" style="mask-type:luminance"><path fill="#fff" d="M125.444 45.163c-.361-.447-1.108-.95-1.534-.175.046.34.726.615 1.534.175"/></mask><g mask="url(#c)"><path fill="#15243D" d="M123.92 45.16c.061.27.272.454.471.403.2-.051.313-.3.252-.567-.061-.268-.272-.454-.473-.403s-.311.303-.25.567"/></g><path fill="#15243D" d="M125.444 45.161a1.3 1.3 0 0 0-.31-.376 1.2 1.2 0 0 0-.469-.25.62.62 0 0 0-.516.082.66.66 0 0 0-.239.37q.145-.157.326-.269a.58.58 0 0 1 .406-.048q.227.059.422.19.204.135.38.301"/><path fill="#15243D" d="M125.38 50.251q-.793 0-1.297-.416c-1.48-1.226-.691-4.876.227-7.73a.113.113 0 0 1 .139-.071c.008-.001.753.226 1.827-.18a.11.11 0 0 1 .124.038q.021.028.023.064a.1.1 0 0 1-.016.066c-.052.072-.049.098-.049.098.053.079.487.132 2.248-.076a.11.11 0 0 1 .114.054.11.11 0 0 1 0 .113c-.161.24-.157.36-.14.412a.11.11 0 0 0 .058.07.11.11 0 0 1 .074.105.1.1 0 0 1-.008.043c-.221.5-.207.988.037 1.308a.56.56 0 0 0 .5.242.113.113 0 0 1 .127.089c.117.512.133 1.042.048 1.56a1 1 0 0 0-.013.09.1.1 0 0 1 .004.05.11.11 0 0 1-.053.08.11.11 0 0 1-.096.01.115.115 0 0 1-.076-.117.6.6 0 0 1 .014-.15 3.8 3.8 0 0 0-.027-1.385.8.8 0 0 1-.604-.34c-.28-.365-.316-.9-.101-1.444a.35.35 0 0 1-.094-.147.55.55 0 0 1 .052-.408c-1.747.198-2.134.135-2.249-.06a.2.2 0 0 1-.029-.092 3.25 3.25 0 0 1-1.647.134c-1.261 3.937-1.354 6.491-.269 7.392.816.68 2.321.42 4.474-.758a.12.12 0 0 1 .093-.024.1.1 0 0 1 .045.02q.021.015.033.037a.113.113 0 0 1-.064.162c-1.404.777-2.55 1.161-3.429 1.161"/><path fill="#90D470" d="M126.713 46.338c-.227 1.085 1.787 1.756 2.206.453.228-1.083-1.789-1.754-2.206-.453"/><path fill="#15243D" d="M126.131 43.913c-.078-.01 2.047.163 2.146.435-.386-1.06-1.746-1.096-2.146-.435m-.98-.016-1.081-.027c.079-.702.77-.41 1.081.027"/><path fill="#90D470" d="M125.883 48.27a9.6 9.6 0 0 1-1.52-.227c.16.616.94.47 1.52.227"/><path fill="#D4F5BD" d="M129.232 46.562c2.812-2.848 3.328 2.4-.161 1.377-.062-1.084.161-1.377.161-1.377"/><path fill="#90D470" d="M129.459 47.477c.188-1.085 1.09-1.499 1.53-1.092-.852.093-1.439.771-1.53 1.092"/><path fill="#15243D" d="M129.459 47.587h-.02a.114.114 0 0 1-.089-.128c.13-.757.575-1.162.946-1.288a.74.74 0 0 1 .768.134q.032.032.034.077a.1.1 0 0 1-.028.08.11.11 0 0 1-.157.006.53.53 0 0 0-.545-.086c-.312.105-.68.454-.794 1.114a.11.11 0 0 1-.115.091"/><path fill="#15243D" d="M130.199 47.613a.1.1 0 0 1-.062-.023.11.11 0 0 1-.041-.12.1.1 0 0 1 .036-.057.27.27 0 0 0 .115-.182.27.27 0 0 0-.047-.21.32.32 0 0 0-.439-.114.113.113 0 0 1-.148-.048.1.1 0 0 1-.006-.085.1.1 0 0 1 .054-.065.54.54 0 0 1 .728.19.5.5 0 0 1-.122.687.1.1 0 0 1-.068.027"/><path fill="#F2FFE9" d="M127.655 45.254c-.363-.447-1.11-.95-1.536-.175.046.336.729.61 1.536.175"/><mask id="d" width="2" height="2" x="126" y="44" maskUnits="userSpaceOnUse" style="mask-type:luminance"><path fill="#fff" d="M127.654 45.253c-.362-.447-1.109-.95-1.535-.175.046.336.728.61 1.535.175"/></mask><g mask="url(#d)"><path fill="#15243D" d="M126.129 45.249c.061.268.272.453.473.402s.311-.3.25-.567-.272-.448-.471-.402c-.2.045-.313.3-.252.567"/></g><path fill="#15243D" d="M127.655 45.254a1.3 1.3 0 0 0-.312-.376 1.2 1.2 0 0 0-.469-.25.62.62 0 0 0-.516.082.67.67 0 0 0-.239.37q.145-.157.327-.27a.58.58 0 0 1 .405-.047q.227.059.422.19.203.135.382.301m-2.306 2.493a3.8 3.8 0 0 1-1.254-.183.113.113 0 0 1 .087-.205c.262.113 1.312.314 2.38-.006a.114.114 0 0 1 .138.074.12.12 0 0 1-.008.084.1.1 0 0 1-.065.055 4.5 4.5 0 0 1-1.278.181"/><path fill="#D4F5BD" d="M125.238 44.373c-.009.36-.267.77-.567 1.12-.547.638-.725 1.298.93.976.055-.046.628-3.38-.363-2.096"/><path fill="#90D470" d="M124.675 45.552c.245.376.314.628.907.952-.084.371-1.999.203-.907-.952"/><path fill="#15243D" d="M124.555 46.622a.1.1 0 0 1-.058-.017.54.54 0 0 1-.275-.362c-.054-.298.19-.606.447-.931.258-.325.51-.644.386-.864a.1.1 0 0 1-.023-.043.115.115 0 0 1 .052-.128.11.11 0 0 1 .095-.009q.023.008.041.026a.1.1 0 0 1 .027.04c.2.351-.106.738-.403 1.112-.217.273-.439.555-.404.755a.33.33 0 0 0 .174.21.1.1 0 0 1 .042.056.1.1 0 0 1 .002.07.11.11 0 0 1-.103.081zm.79.056a.1.1 0 0 1-.068-.023.1.1 0 0 1-.04-.059.15.15 0 0 0-.088-.043.114.114 0 0 1-.152.03.113.113 0 0 1-.029-.155c.074-.113.213-.129.354-.044.113.07.162.16.12.236a.1.1 0 0 1-.041.042.1.1 0 0 1-.056.016"/><path fill="#424D99" d="m118.946 69.932-2.976-1.551a4.56 4.56 0 0 1-2.346-4.694l.489-3.24 1.103.167-.491 3.24a3.45 3.45 0 0 0 1.773 3.544l2.884 1.287z"/><path fill="#D4F5BD" d="M113.053 66.115s-2.04-1.04-1.548-1.977c0 0-.488-.424-.113-1.127 0 0-.498-.74.184-1.382-.169-.503-.454-1.294 1.638-1.261.631-1.31 2.53-.212 3.236 1.382l8.321.764 6.439-6.577 6.837 2.103c-.351 1.009-6.145 5.66-8.349 8.79-.725 1.031-2.577 1.495-3.74 1.815a5.25 5.25 0 0 1-2.624.044c-5.015-1.203-9.254-2.933-10.281-2.574"/><path fill="#15243D" d="M124.556 68.944c-.422 0-.842-.05-1.252-.147-2.025-.487-3.889-1.05-5.535-1.545-2.29-.69-4.1-1.236-4.679-1.034a.12.12 0 0 1-.087 0c-.057-.028-1.392-.716-1.644-1.511a.77.77 0 0 1 .015-.544c-.127-.151-.39-.567-.113-1.145a1.17 1.17 0 0 1 .182-1.415c-.091-.273-.18-.608.024-.888.226-.312.78-.453 1.674-.453a1.05 1.05 0 0 1 .967-.58c.853.014 1.901.874 2.411 1.97l8.205.753 6.401-6.537a.11.11 0 0 1 .113-.028l6.838 2.101a.1.1 0 0 1 .039.021q.017.015.028.034a.1.1 0 0 1 .008.044q0 .023-.008.044c-.167.476-1.394 1.64-2.947 3.113-1.871 1.774-4.2 3.981-5.415 5.706-.714 1.014-2.47 1.493-3.627 1.814l-.171.048a5.4 5.4 0 0 1-1.427.179m-11.147-2.989c.83 0 2.391.47 4.42 1.084 1.643.496 3.504 1.056 5.522 1.541a5.16 5.16 0 0 0 2.568-.042l.173-.047c1.133-.309 2.84-.776 3.507-1.724 1.227-1.743 3.565-3.958 5.44-5.738 1.36-1.294 2.557-2.424 2.843-2.921l-6.651-2.041-6.392 6.526a.11.11 0 0 1-.089.033l-8.321-.764a.11.11 0 0 1-.092-.066c-.453-1.034-1.462-1.884-2.239-1.897a.83.83 0 0 0-.793.517.11.11 0 0 1-.102.063c-.849-.014-1.375.114-1.56.365-.153.208-.059.49.024.738q.012.033.005.068a.13.13 0 0 1-.029.061.956.956 0 0 0-.168 1.238.1.1 0 0 1 .018.056.1.1 0 0 1-.011.058c-.325.612.074.976.091.99q.029.027.036.064a.1.1 0 0 1-.011.073.54.54 0 0 0-.033.444c.201.637 1.274 1.247 1.494 1.36q.173-.042.35-.039"/></g><defs><linearGradient id="b" x1="129.907" x2="149.013" y1="49.907" y2="73.343" gradientUnits="userSpaceOnUse"><stop stop-color="#83C3F2"/><stop offset="1" stop-color="#4FD8FF"/></linearGradient><clipPath id="a"><path fill="#fff" d="M0 0h160v130H0z"/></clipPath></defs></svg>