<svg width="24" height="25" viewBox="0 0 24 25" fill="none" xmlns="http://www.w3.org/2000/svg">
<path fill-rule="evenodd" clip-rule="evenodd" d="M7 12.2264C9.76142 12.2264 12 14.465 12 17.2264V21.2264H10V17.2264C10 15.5696 8.65685 14.2264 7 14.2264C5.34315 14.2264 4 15.5696 4 17.2264V21.2264H2V17.2264C2 14.465 4.23858 12.2264 7 12.2264ZM19.75 16.8293C21.1423 17.6332 22 19.1187 22 20.7264V21.2264H20V20.7264C20 19.3457 18.8807 18.2264 17.5 18.2264C16.1193 18.2264 15 19.3457 15 20.7264V21.2264H13V20.7264C13 19.1187 13.8577 17.6332 15.25 16.8293C16.6423 16.0255 18.3577 16.0255 19.75 16.8293ZM17.5 7.22644C19.7091 7.22644 21.5 9.0173 21.5 11.2264C21.5 13.4356 19.7091 15.2264 17.5 15.2264C15.2909 15.2264 13.5 13.4356 13.5 11.2264C13.5 9.0173 15.2909 7.22644 17.5 7.22644ZM17.5 9.22644C16.3954 9.22644 15.5 10.1219 15.5 11.2264C15.5 12.331 16.3954 13.2264 17.5 13.2264C18.6046 13.2264 19.5 12.331 19.5 11.2264C19.5 10.1219 18.6046 9.22644 17.5 9.22644ZM7 2.22644C9.48528 2.22644 11.5 4.24116 11.5 6.72644C11.5 9.21172 9.48528 11.2264 7 11.2264C5.3923 11.2264 3.90673 10.3687 3.10289 8.97644C2.29904 7.58414 2.29904 5.86875 3.10289 4.47644C3.90673 3.08414 5.3923 2.22644 7 2.22644ZM7 4.22644C5.61929 4.22644 4.5 5.34573 4.5 6.72644C4.5 8.10715 5.61929 9.22644 7 9.22644C8.38071 9.22644 9.5 8.10715 9.5 6.72644C9.5 5.34573 8.38071 4.22644 7 4.22644Z" fill="black"/>
</svg>
