<svg width="24" height="25" viewBox="0 0 24 25" fill="none" xmlns="http://www.w3.org/2000/svg">
<g clip-path="url(#clip0_1377_4140)">
<path fill-rule="evenodd" clip-rule="evenodd" d="M12 0.72644C18.351 0.72644 23.5 5.87544 23.5 12.2264C23.5 12.5634 23.486 12.8964 23.457 13.2264H21.951C21.449 18.2794 17.185 22.2264 12 22.2264C6.477 22.2264 2 17.7494 2 12.2264C2 7.04144 5.947 2.77744 11 2.27644V0.76944C11.33 0.74044 11.663 0.72644 12 0.72644ZM11 4.28844C6.81329 4.82116 3.76034 8.51429 4.02462 12.7265C4.28891 16.9386 7.77954 20.2212 12 20.2264C16.0317 20.2264 19.4336 17.2265 19.938 13.2264H11V4.28844ZM13 2.77844V11.2264H21.448C20.9756 6.77105 17.4554 3.25086 13 2.77844Z" fill="black"/>
</g>
<defs>
<clipPath id="clip0_1377_4140">
<rect width="24" height="24" fill="white" transform="translate(0 0.22644)"/>
</clipPath>
</defs>
</svg>
