<svg xmlns="http://www.w3.org/2000/svg" width="160" height="130" fill="none"><g clip-path="url(#a)"><path fill="#049674" d="M0 0h160v130H0z"/><path fill="#F2FFE9" d="M172 139V-7H-20v146z"/><path fill="#D4F5BD" d="M-32.573 135.444s2.9-149.409 94.678-149.409 102.723 149.409 102.723 149.409z" opacity=".47"/><path fill="#8893E3" d="M16.609 48.223c-.478-15.375-8.523 10.75-7.4 14.606-.093.95.957.99 1.637.52 5.002-3.098 5.48-9.817 5.763-15.126"/><path fill="#13BF89" d="m53.358 53.189-5.977 6.993S18.019 61.22 11.636 72.58v88.977s80.68 20.512 132.766-18.085l9.447-8.03s-2.505-61.616-37.787-73.15l-28.674-5.495z"/><path stroke="#032021" stroke-linecap="round" stroke-linejoin="round" stroke-miterlimit="10" d="M60.14 87.941a3.152 3.152 0 1 1-6.303 0 3.152 3.152 0 0 1 6.304 0m29.764 0a3.152 3.152 0 1 1-6.304 0 3.152 3.152 0 0 1 6.304 0m-29.765 32.17a3.152 3.152 0 1 1-6.303 0 3.152 3.152 0 0 1 6.304 0m31.696 0a3.152 3.152 0 1 1-6.304 0 3.152 3.152 0 0 1 6.304 0"/><path fill="#032021" d="M90.386 53.577c-.69 3.114-2.286 5.943-3.861 8.718l-2.038-5.224c-.41-1.048-.822-2.104-1.083-3.201-.233-.98-.697-2.096.508-2.25 2.05-.258 4.764.95 6.474 1.957m-27.437-2.865a87 87 0 0 0-9.591 2.476c1.843 3.028 4.083 6.343 7.568 6.994a28.5 28.5 0 0 0 1.82-9.687"/><path stroke="#032021" stroke-linecap="round" stroke-linejoin="round" stroke-miterlimit="10" d="M48.217 62.294s2.556 8.41 11.923 11.327m23.32.502s5.398-1.017 10.447-13.94"/><path fill="#8893E3" d="M61.475 35.722c1.347 8.265-.77 16.376-2.842 24.253 1.868 10.02 12.755 20.791 22.87 13.977 10.754-7.34 1.846-20.54 2.05-30.562-5.43-5.559-14.433-8.018-22.078-7.668"/><path fill="#032021" d="M85.926 56.758c-.998-4.574-2.457-9.242-2.374-13.369a21 21 0 0 0-2.443-2.118 9.5 9.5 0 0 0-2.118-.336c-3.154-.157-10.626 1.414-11.415 5.305-.826 4.078 5.883 8.11 8.912 9.237 2.998 1.116 6.239 1.452 9.438 1.28"/><path fill="#8893E3" d="M91.77 18.6a87.6 87.6 0 0 1-.317 18.238c-.514 4.2-1.533 8.716-4.79 11.419-2.302 1.912-5.387 2.6-8.373 2.812-4.776.339-9.841-.49-13.612-3.44-3.484-2.724-5.471-6.91-7.065-11.035-1.333-3.45-2.49-7.028-2.63-10.723-.3-7.914 4.576-15.78 11.795-19.034C76.876 2.287 90.742 6.81 91.77 18.6"/><path fill="#13BF89" d="M42.272 8.607c-5.578-3.023-9.043-9.177-2.216-12.99 2.029-3.602.497-8.224 2.044-12.07 1.133-4.9 5.76-6.567 10.066-7.753 3.91-4.15 5.75-10.389 12.26-11.877 7.28-2.932 13.49 1.902 19.968 4.201 4.158.814 9.525-1.352 12.975 1.775 2.935 2.805 1.102 7.772 3.109 11.218 11.167 10.58 4.509 17.627-5.393 25.462-11.6-6.414-27.541-1.576-38.9 3.555-1.88.957-4.113 5.624-6.371 5.02-2.721-1.577-4.7-5.075-7.542-6.54"/><path fill="#13BF89" d="M55.202 26.016c-2.591-1.243-3.991-4.108-4.706-6.892a24.8 24.8 0 0 1-.617-8.976c.57-4.973 6.91-9.396 11.328-11.75 5.67-3.02 12.595-3.358 18.976-2.611s12.6 4.35 15.53 10.069c1.913 3.736-1.801 6.228-4.67 9.292-1.35-4.556-5.247-5.911-9.864-7.036-3.605-.88-7.745-1.306-11.967 0-3.545 1.097-7.096 3.354-9.346 6.305-2.455 3.219-4.248 7.573-4.664 11.599"/><path fill="#032021" d="M48.612 11.746c-.31 1.31-.22 3.122 1.199 3.714.706-3.899 1.867-8.933 4.646-11.794-3.433 1.435-5.128 4.413-5.845 8.08M85.098-3.82a34.6 34.6 0 0 1 12.336 8.104c.009.009-1.182 1.223-1.477 1.232-.727.023-.86-.643-1.214-1.187-.79-1.214-1.634-2.364-2.641-3.411a20.1 20.1 0 0 0-7.004-4.738"/><path stroke="#032021" stroke-linecap="round" stroke-linejoin="round" stroke-miterlimit="10" d="M50.002 9.74c-1.115-1.702-2.346-3.35-3.877-4.69s-3.388-2.365-5.401-2.664M53.17 4.5a24.4 24.4 0 0 0-3.245-3.271m6.694-.163a114 114 0 0 0-3.88-6.995m40.963 7.007A19.1 19.1 0 0 1 99.22-4.64"/><path fill="#8893E3" d="M48.54 33.853c2.243 3.682 6.046 5.457 8.494 3.965 2.449-1.492 2.616-5.685.373-9.367-2.243-3.68-6.046-5.457-8.494-3.965s-2.615 5.685-.373 9.367"/><path stroke="#032021" stroke-linecap="round" stroke-linejoin="round" stroke-miterlimit="10" d="M49.774 28.15c.349-.937 1.4-1.416 2.389-1.257.99.16 1.889.864 2.5 1.732.613.868.97 1.891 1.233 2.911-.38-1.03-1.59-1.69-2.55-1.389-1.01.318-1.536 1.564-1.282 2.685s1.157 2.058 2.185 2.51c.521.23 1.095.35 1.62.23s.992-.507 1.117-1.052"/><path fill="#032021" d="M73.537 19.83c-1.027 2.07-2.972 3.043-4.793 2.875s-3.525-1.334-5-2.809c3.159.97 6.86 1.813 9.793-.067m17.138.733c-1.243 1.99-3.244 2.762-4.988 2.383-1.744-.38-3.256-1.76-4.51-3.43 2.945 1.347 6.432 2.627 9.498 1.047M61.36 17.637c2.068-4.195 11.534-2.078 8.856-4.661-.336-.324-.742-.327-.981-.31-3.08-.08-7.89 1.108-7.874 4.97m30.127.001c-2.067-4.195-11.533-2.078-8.855-4.661.336-.324.742-.327.98-.31 3.08-.08 7.89 1.108 7.875 4.97"/><path fill="#6864E1" d="M73.178 27.792c0 2.074-2.453 3.755-5.48 3.755-3.025 0-5.478-1.68-5.478-3.755 0-2.074 2.453-3.755 5.479-3.755s5.479 1.681 5.479 3.755"/><path stroke="#032021" stroke-linecap="round" stroke-linejoin="round" stroke-miterlimit="10" d="M70.178 28.507a10 10 0 0 0 6.013 3.882 9.98 9.98 0 0 0 7.056-1.195m-4.615-14.652c-.41 1.862-.398 3.876.41 5.602s2.513 3.1 4.419 3.165c-.061.717-.54 1.353-1.142 1.745-.604.392-1.321.57-2.034.671-1.416.2-3.096-.007-3.873-1.207"/><path fill="#6864E1" d="M84.43 27.791c0 2.074 2.453 3.755 5.479 3.755.72 0 1.408-.098 2.038-.27a88 88 0 0 0 .127-6.933 7.7 7.7 0 0 0-2.165-.306c-3.026 0-5.48 1.681-5.48 3.754"/><path fill="#13BF89" d="M53.358 53.189S60.296 64.92 70.69 65.814l-.512 9.29S53.19 76.893 47.38 60.183zm37.028.387S87.1 67.601 76.412 66.07l.876 9.74s9.647 1.982 17.444-17.602z"/><path fill="#032021" d="M92.99 129.04c-.674 2.855-.794 5.339.549 7.947 1.29 2.506 3.71 4.536 6.53 4.489 2.819-.047 6.702-.46 8.973-2.13 5.961-4.384 8.352-12.664 8.094-20.059-5.079 2.376-10.645 3.671-16.247 3.826-5.652.156-6.536.164-7.898 5.927"/><path fill="#fff" d="M82.397 93.562c1.033.063 2.088.342 3.087.07 1.323-.358 2.219-1.585 3.443-2.201 2.553-1.287 5.55.365 8.406.54 2.295.14 4.52-.7 6.767-1.187s4.814-.56 6.61.877c.808.646 1.38 1.539 2.133 2.249 2.899 2.73 7.991 2.37 10.411 5.533-9.389 1.908-19.041 1.99-28.622 2.065-5.088.04-10.339.063-15.237-1.504-2.285-.731-5.246-1.293-3.073-3.811 1.487-1.725 3.79-2.772 6.075-2.631"/><path fill="#13BF89" d="M106.044 94.022a1.747 1.747 0 1 1-3.489-.177 1.747 1.747 0 0 1 3.489.177m-4.589 1.516a1.747 1.747 0 1 1-3.49-.177 1.747 1.747 0 0 1 3.49.177"/><path fill="#085F66" d="M101.339 97.84a1.746 1.746 0 1 1-3.488-.177 1.746 1.746 0 0 1 3.488.176m-3.41-4.227a1.746 1.746 0 1 1-3.488-.176 1.746 1.746 0 0 1 3.488.176"/><path fill="#13BF89" d="M93.4 95.131a1.747 1.747 0 1 1-3.488-.177 1.747 1.747 0 0 1 3.489.177"/><path fill="#6864E1" d="m96.246 95.51.672-1.325a.555.555 0 0 1 .97-.034l.838 1.401a.555.555 0 0 1-.504.84l-1.51-.077a.555.555 0 0 1-.466-.806m-4.587.141 1.339-.642a.555.555 0 0 1 .79.564l-.186 1.62a.554.554 0 0 1-.91.36l-1.152-.978a.555.555 0 0 1 .119-.923m12.872-.551 1.339-.642a.555.555 0 0 1 .791.564l-.187 1.62a.554.554 0 0 1-.91.36l-1.152-.978a.554.554 0 0 1 .119-.923m-4.358-3.06 1.339-.643a.555.555 0 0 1 .791.564l-.187 1.621a.555.555 0 0 1-.91.36l-1.152-.979a.555.555 0 0 1 .119-.923"/><path fill="#8CC2F2" d="m67.183 100.521 4.73 3.215s4.319 13.224 25 13.224 28.03-5.429 31.568-13.224l4.448-3.288c1.223-.903.583-2.844-.938-2.843l-63.923.036c-1.552 0-2.17 2.007-.885 2.88"/><path stroke="#032021" stroke-linecap="round" stroke-linejoin="round" stroke-miterlimit="10" d="M71.914 103.736s20.428 4.848 56.568 0"/><path fill="#8893E3" d="M93.153 123.121c-4.268-1.437-8.58-2.894-12.41-5.265-3.828-2.37-7.19-5.773-8.64-10.037-.098-.291-.187-.614-.07-.898.24-.575 1.067-.535 1.658-.337 5.1 1.712 7.753 7.285 12.108 10.445a31.7 31.7 0 0 1-4.552-5.658c-.468-.742-.918-1.547-.936-2.424s.546-1.826 1.416-1.94c.802-.105 1.512.492 2.076 1.072 3.586 3.683 6.255 8.446 10.757 10.93a23.1 23.1 0 0 1-4.574-8.514c-.411-1.415 1.06-2.612 2.356-1.909 1.134.615 2.178 1.558 3.138 2.431a61.8 61.8 0 0 0 12.072 8.575 24.7 24.7 0 0 1-4.185-5.849c-.348-.677-.671-1.399-.67-2.16 0-.762.407-1.572 1.127-1.819.602-.207 1.262.012 1.848.26a18.2 18.2 0 0 1 4.995 3.153c2.699 2.398 6.681-1.005 9.749-2.909s5.767-4.369 8.896-6.169c.54-.311 1.301-.572 1.718-.11.363.401.163 1.039-.092 1.516-1.836 3.442-5.409 5.556-7.978 8.491-3.942 4.503-5.334 10.698-8.707 15.641-.581.851-1.234 1.677-2.086 2.256-.96.652-2.114.951-3.257 1.151-3.482.609-7.207.362-10.33-1.294-3.122-1.657-5.307-5.097-5.427-8.629"/><path fill="#fff" d="M107.471 88.617c.805-7.81-16.465-3.659-17.072-11.93.573-6.497 18.22-7.049 23.463-16.755 4.744-5.182 2.006-14.349-5.248-15.062 9.615 22.622-34.927 19.835-29.163 39.7 6.588 8.99 19.972-.585 28.02 4.047" opacity=".37"/><path fill="#fff" d="M93.487 60.21c7.873-3.574 9.563-15.663 1.739-20.178 13.018 3.931 14.097 22.82-1.74 20.177" opacity=".37"/><path fill="#fff" d="M105.826 45.587c-1.04-6.003-7.578-8.416-12.831-9.75 10.141-2.654 16.082 5.666 14.126 15.023-.462-1.664-1.03-3.565-1.295-5.273" opacity=".37"/><path fill="#13BF89" d="m95.148 139.915 21.879 17.957a.33.33 0 0 0 .273.069c2.222-.436 28.033-5.828 36.51-22.423a.35.35 0 0 0 .038-.158v-1.291a4.47 4.47 0 0 0-3.546-4.38c-7.744-1.631-25.711-6.108-28.649-13.049-.104-.246-.449-.257-.584-.026-1.04 1.787-4.11 7.18-6.138 11.968-3.24 7.645-6.599 14.628-19.472 10.764-.347-.105-.592.338-.311.569"/><path stroke="#032021" stroke-linecap="round" stroke-linejoin="round" stroke-miterlimit="10" d="M151.141 129.958s-18.035-3.273-25.025-8.687c0 0-3.356-2.239-5.046-4.656"/><path stroke="#032021" stroke-linecap="round" stroke-linejoin="round" stroke-miterlimit="10" d="M130.915 124.034s5.154 27.502-22.594 27.151"/><path fill="#032021" d="M-1.704 84.388c-1.206-2.125-3.091-7.754-2.33-10.256.772-2.535 7.548-2.332 9.439-1.46 1.434.66 2.793 1.98 2.666 3.553-.062.772-.473 1.467-.874 2.13-.604.996-1.22 2.004-2.06 2.812s-5.675 3.227-6.841 3.221m13.34 31.615s7.489-.147 4.085-28.062L4.317 106.835z"/><path fill="#8893E3" d="M-2.824 81.958a42.2 42.2 0 0 1 7.423-8.884c3.206-10.143 9.32-19.86 18.345-25.493 3.378-2.108 7.118-3.593 10.685-5.286 2.193-1.041 4.532-1.85 6.959-1.951a1.5 1.5 0 0 1 .569.073c.387.134.708.547.596.94-.078.273-.327.454-.56.614l-16.42 11.267c1.085.574 2.154.176 3.174-.505l14.052-9.38c1.585-1.058 3.204-2.132 5.038-2.652.495-.141 1.14-.185 1.413.25.14.227.123.498.046.76-.37 1.265-1.134 2.377-2.047 3.326-2.387 2.484-5.017 4.7-7.646 6.917l-7.421 6.255c.236.616.97.73 1.59.5 6.094-2.255 11.185-6.99 17.262-9.025 1.24-.415 2.182 1.16 1.22 2.045l-.059.053a99 99 0 0 1-16.112 11.87c.55.637 1.575.41 2.358.1 5.218-2.062 9.912-5.422 15.323-6.907.412-.113.916-.191 1.21.118.343.362.132.957-.133 1.379-1.162 1.847-3.003 3.143-4.795 4.389-2.364 1.643-4.738 3.292-7.315 4.574-2.095 1.043-4.343 1.854-6.166 3.32-1.423 1.146-2.52 2.638-3.596 4.115-3.166 4.349-6.406 8.829-10.93 11.742-1.641 1.058-3.435 1.895-4.934 3.146-1.12.934-2.046 2.074-2.93 3.233a73 73 0 0 0-8.973 15.321c-3.63-2.896-5.671-7.416-6.477-11.988-.807-4.573-3.208-10.297-.75-14.236"/><path fill="#13BF89" d="M-8.018 80.422c-2.568 5.678-6.266 10.436-11.024 14.416-9.071 11.379-18.298 24.172-22.442 38.236-3.38 12.696 10.537 23.079 21.972 17.85 6.006-4.248 10.582-10.62 14.79-16.592 3.575-5.727 6.318-12.733 12.47-15.514 3.244-1.016 5.93-2.814 6.904-5.703C.742 109.218 1.104 94.729-2.024 81.963c-1.015-4.145-.59-8.095-1.404-8.617 0 0-2.952 2.938-4.59 7.076"/><path stroke="#032021" stroke-linecap="round" stroke-linejoin="round" stroke-miterlimit="10" d="M-16.152 92.187s-1.83 21.677 16.554 30.461"/></g><defs><clipPath id="a"><path fill="#fff" d="M0 0h160v130H0z"/></clipPath></defs></svg>