<svg xmlns="http://www.w3.org/2000/svg" width="160" height="130" fill="none"><g clip-path="url(#a)"><path fill="#E8979F" d="M0 0h160v130H0z"/><path fill="#F2FFE9" d="M172 139V-7H-20v146z"/><path fill="#A1D45A" d="M144.003 30c-1.151 7.95-5.179 11.245-11.003 11.497q9.783 1.164 11.003 11.503Q145.212 42.66 155 41.497c-5.875-.252-9.846-3.547-10.997-11.497" style="mix-blend-mode:multiply"/><path fill="#6CAA4B" d="M29.885 13.173A17 17 0 0 1 43.3 6.418l44.603-.403-4.619.881a33.82 33.82 0 0 0-21.92 14.64L31.652 68.962 3.925 48.8zm121.376 82.866a16.98 16.98 0 0 1-.721 14.996l-21.603 39.004 1.505-4.453a33.77 33.77 0 0 0-1.96-26.277l-26.624-44.441 31.207-14.198zM20.09 162.722a17 17 0 0 1-6.901-2.05 17 17 0 0 1-6.035-5.58l-24.449-37.288 3.24 3.407a33.8 33.8 0 0 0 24.171 10.52l51.482-1.796-1.985 34.212z"/><path fill="#3B232F" d="M60.497 42.709a.79.79 0 0 1-.9-.66l-.645-4.169a10.26 10.26 0 0 1 1.406-6.95.79.79 0 0 1 1.343.828 8.68 8.68 0 0 0-1.19 5.881l.645 4.17a.79.79 0 0 1-.659.9m18.717-2.894a.79.79 0 0 1-.9-.659l-.645-4.17a8.69 8.69 0 0 0-4.808-6.49 8.63 8.63 0 0 0-5.097-.759 8.7 8.7 0 0 0-2.4.736.79.79 0 1 1-.678-1.425 10.3 10.3 0 0 1 2.836-.87c2.067-.32 4.15-.01 6.026.897a10.26 10.26 0 0 1 5.68 7.67l.646 4.17a.79.79 0 0 1-.66.9"/><path fill="#069C70" d="m108.481 109.462-49.641 7.674-6.819-78.495 39.243-6.067z"/><path fill="#13BF89" d="m95.223 111.511-49.641 7.674-6.819-78.496 39.243-6.066z"/><path fill="#755974" d="M50.94 43.654a1.2 1.2 0 1 1-2.373.366 1.2 1.2 0 0 1 2.373-.366m18.506-2.008a1.2 1.2 0 1 0-1.937-1.418 1.2 1.2 0 0 0 1.937 1.418"/><path fill="#069C70" d="m95.223 111.511 13.258-2.05-10.345-5.377z"/><path fill="#3B232F" d="M68.556 41.463a.79.79 0 0 1-.9-.66l-.646-4.169a8.69 8.69 0 0 0-4.808-6.49 8.63 8.63 0 0 0-5.097-.76 8.665 8.665 0 0 0-7.252 9.902l.645 4.17a.79.79 0 0 1-1.56.241l-.645-4.17a10.24 10.24 0 0 1 4.748-10.295 10.2 10.2 0 0 1 3.823-1.407c2.066-.32 4.15-.009 6.025.898a10.26 10.26 0 0 1 5.681 7.67l.645 4.17a.79.79 0 0 1-.66.9"/><path fill="#7571ED" d="m36.71 67.275-7.81-7.077a7.7 7.7 0 0 1-2.114-3.222l-3.449-10.18L4.892 53.04l3.449 10.18a7.7 7.7 0 0 1 .28 3.845L6.717 77.428a35.54 35.54 0 0 0 1.296 17.82l15.91 46.969a4.86 4.86 0 0 0 2.46 2.807 4.86 4.86 0 0 0 3.724.247l29.261-9.906a4.87 4.87 0 0 0 3.03-2.984c.356-.997.39-2.117.025-3.197l-15.912-46.97a35.55 35.55 0 0 0-9.801-14.94"/><path fill="#424D99" d="m16.21 108.903 10.918 32.229a1.49 1.49 0 0 0 1.895.936l29.261-9.906c.436-.147.775-.481.93-.916.08-.222.145-.572.007-.978l-10.918-32.23z"/><path fill="#8893E3" d="M24.789 41.287.277 49.586 2.4 55.85l24.511-8.299z"/><path fill="#C9CCE4" d="m22.026 38.188-6.934 2.347-4.263 1.443-10.25 3.47 1.226 3.62 21.447-7.26z"/><path fill="#fff" d="m34.21 87.447 1.887 5.568-9.749 3.3 9.291 27.427 22.422-7.591-9.291-27.426-1.887-5.569z"/><path fill="#7571ED" d="m51.566 97.667-9.96 3.372a2.2 2.2 0 0 1-2.792-1.379l-.427-1.26a2.2 2.2 0 0 1 1.379-2.79l9.961-3.373zm3.014 8.893-17.08 5.782a2.2 2.2 0 0 1-2.791-1.378l-.427-1.261a2.2 2.2 0 0 1 1.379-2.79l17.079-5.782z"/><path fill="#3B232F" d="M24.835 41.44h-.001l-21.77 7.234a.16.16 0 0 1-.202-.1.156.156 0 0 1 .101-.203l21.77-7.234a.16.16 0 0 1 .102.303m-13.955.689a.16.16 0 0 1-.103-.303l9.574-3.3a.16.16 0 0 1 .104.301z"/><path stroke="#4E1721" stroke-linecap="round" stroke-miterlimit="10" stroke-width=".6" d="m56.148 110.504-9.636-28.29s-2.836-6.931-4.976-9.581l-2.141-2.65"/><path fill="#90D470" d="m6.27 153.748-24.446-37.289a16.98 16.98 0 0 1-1.835-14.901l7.445-21.37-14.939-8.618 43.912-8.153L30.63 105.11l-14.94-8.62-11.254 26.58a33.77 33.77 0 0 0 0 26.35z"/><path fill="#93C3E6" d="m100.72 78.912-18.463-2.417-3.037 5.84s4.34 7.712 5.031 7.997c.692.285 13.75 3.794 14.51 2.824s3.375-4.613 3.375-4.613z"/><path fill="#3B232F" stroke="#3B232F" stroke-linecap="round" stroke-miterlimit="10" stroke-width=".6" d="M91.71 75.335a.37.37 0 0 1-.319-.415l.46-3.516a5.68 5.68 0 0 1-4.523-6.299 5.68 5.68 0 0 1 6.361-4.886 5.67 5.67 0 0 1 4.035 2.555.37.37 0 1 1-.622.4 4.93 4.93 0 0 0-3.509-2.222 4.94 4.94 0 0 0-5.532 4.249 4.94 4.94 0 0 0 4.251 5.53.37.37 0 0 1 .319.415l-.507 3.87a.37.37 0 0 1-.414.319Z"/><path fill="#3B232F" stroke="#3B232F" stroke-linecap="round" stroke-miterlimit="10" stroke-width=".6" d="M106.656 84.598 75.057 80.46a.37.37 0 0 1-.055-.72l16.63-4.822a.37.37 0 0 1 .292.038l14.97 8.959a.369.369 0 0 1-.238.683Zm-29.752-4.641 28.082 3.677-13.304-7.962z"/><path fill="#3B232F" d="M62.953 121.921a5.18 5.18 0 0 0 2.762 5.281c8.174 4.201 24.484 9.414 41.785.585-11.33-12.5-43.886-6.687-44.547-5.866"/><path fill="url(#b)" d="m100.72 78.912 9.248 4.716a20.23 20.23 0 0 1 11.041 17.836l.015 1.622-9.943-1.303-3.404 25.994c-19.741 7.006-33.056-7.828-44.725-5.856l3.404-25.994-9.943-1.302.431-1.564A20.23 20.23 0 0 1 72.106 78.67l10.15-2.176-.078.6a9.27 9.27 0 0 0 2.231 7.335 9.26 9.26 0 0 0 5.78 3.084 9.26 9.26 0 0 0 5.332-.886 9.28 9.28 0 0 0 5.08-7.043z"/><path fill="#327BB1" d="M57.107 92.199q-.14.427-.262.862l-.432 1.564 9.944 1.302.36-2.47zm50.916 32.937-2.589.788c-4.114 1.249-8.233 1.582-12.546 1.017-5.03-.659-9.577-2.408-13.974-4.099-3.903-1.502-7.59-2.92-11.233-3.397a20 20 0 0 0-1.898-.159s-1.039-.027-2.506.159l-.324 2.476c11.668-1.971 24.983 12.863 44.724 5.857zm3.42-25.789-.32 2.442 9.901 1.297-.015-1.622q-.004-.436-.028-.868h-.002zm-9.071-16.827c.26-.989.42-1.816.519-2.5l-2.171-1.107-.118.672a9.28 9.28 0 0 1-5.08 7.043 9.26 9.26 0 0 1-5.333.885 9.26 9.26 0 0 1-5.78-3.083 9.27 9.27 0 0 1-2.23-7.336l.078-.6-2.504.537c-.108.808-.182 1.796-.05 2.53a11.763 11.763 0 0 0 16.914 9.273 11.76 11.76 0 0 0 5.755-6.314"/><path fill="#90D470" d="m149.761 112.442-21.604 39.003a17 17 0 0 1-12.334 8.572l-22.385 3.381-.663 17.227-27.691-35.024 30.27-32.018-.663 17.228 28.772-2.442a33.82 33.82 0 0 0 23.322-12.288z"/><path stroke="#4E1721" stroke-linecap="round" stroke-miterlimit="10" stroke-width=".6" d="m82.753 167.949-17.67-22.348 30.27-32.018-.662 17.229 9.812-.834"/><path fill="#90D470" d="m44.91 6.403 44.602-.402a17 17 0 0 1 13.536 6.51l13.964 17.812 15.329-7.904-16.872 41.333-42.784-10.574 15.33-7.905-16.29-23.83A33.82 33.82 0 0 0 49.543 7.201z"/><path fill="#13BF89" d="m-5.584 25.092 8.497 4.645-8.497 4.646-4.647 8.494-4.647-8.494-8.497-4.646 8.497-4.645 4.647-8.494z"/></g><defs><linearGradient id="b" x1="66" x2="106" y1="79" y2="154.5" gradientUnits="userSpaceOnUse"><stop stop-color="#83C3F2"/><stop offset="1" stop-color="#4FD8FF"/></linearGradient><clipPath id="a"><path fill="#fff" d="M0 0h160v130H0z"/></clipPath></defs></svg>