<svg xmlns="http://www.w3.org/2000/svg" width="212" height="240" fill="none"><g clip-path="url(#a)"><path fill="#F6F6F6" fill-rule="evenodd" d="M27.218 236.507c.916 0 1.658.74 1.658 1.654s-.742 1.654-1.658 1.654a1.656 1.656 0 0 1-1.658-1.654c0-.914.743-1.654 1.658-1.654m12.158 0c.916 0 1.658.74 1.658 1.654s-.742 1.654-1.658 1.654a1.656 1.656 0 0 1-1.658-1.654c0-.914.743-1.654 1.658-1.654m12.159 0c.915 0 1.657.74 1.657 1.654s-.742 1.654-1.657 1.654a1.656 1.656 0 0 1-1.658-1.654c0-.914.742-1.654 1.657-1.654zm12.158 0c.915 0 1.658.74 1.658 1.654s-.743 1.654-1.658 1.654a1.656 1.656 0 0 1-1.658-1.654c0-.914.742-1.654 1.658-1.654m12.158 0c.915 0 1.658.74 1.658 1.654s-.743 1.654-1.658 1.654a1.656 1.656 0 0 1-1.658-1.654c0-.914.742-1.654 1.658-1.654m12.158 0c.916 0 1.658.74 1.658 1.654s-.742 1.654-1.658 1.654a1.656 1.656 0 0 1-1.658-1.654c0-.914.742-1.654 1.658-1.654m12.158 0c.916 0 1.658.74 1.658 1.654s-.742 1.654-1.658 1.654a1.656 1.656 0 0 1-1.658-1.654c0-.914.742-1.654 1.658-1.654m12.158 0c.916 0 1.658.74 1.658 1.654s-.742 1.654-1.658 1.654a1.657 1.657 0 0 1-1.658-1.654c0-.914.743-1.654 1.658-1.654m12.158 0c.916 0 1.658.74 1.658 1.654s-.742 1.654-1.658 1.654a1.657 1.657 0 0 1-1.658-1.654c0-.914.743-1.654 1.658-1.654m12.158-.07c.916 0 1.658.741 1.658 1.654 0 .914-.742 1.654-1.658 1.654a1.655 1.655 0 1 1 0-3.308m12.159 0c.915 0 1.658.741 1.658 1.654 0 .914-.743 1.654-1.658 1.654-.916 0-1.658-.74-1.658-1.654s.742-1.654 1.658-1.654m12.158 0c.915 0 1.658.741 1.658 1.654 0 .914-.743 1.654-1.658 1.654-.916 0-1.658-.74-1.658-1.654s.742-1.654 1.658-1.654m12.158 0c.916 0 1.658.741 1.658 1.654 0 .914-.742 1.654-1.658 1.654s-1.658-.74-1.658-1.654.742-1.654 1.658-1.654m12.158 0c.916 0 1.658.741 1.658 1.654 0 .914-.742 1.654-1.658 1.654s-1.658-.74-1.658-1.654.742-1.654 1.658-1.654m12.158 0c.916 0 1.658.741 1.658 1.654 0 .914-.742 1.654-1.658 1.654s-1.658-.74-1.658-1.654.743-1.654 1.658-1.654m12.158 0c.916 0 1.658.741 1.658 1.654 0 .914-.742 1.654-1.658 1.654s-1.658-.74-1.658-1.654.743-1.654 1.658-1.654m-85.107-12.059c.916 0 1.658.741 1.658 1.654 0 .914-.742 1.654-1.658 1.654s-1.658-.74-1.658-1.654.743-1.654 1.658-1.654m12.158-.069c.916 0 1.658.74 1.658 1.654s-.742 1.654-1.658 1.654a1.656 1.656 0 0 1-1.657-1.654c0-.914.742-1.654 1.657-1.654m12.159 0c.915 0 1.658.74 1.658 1.654s-.743 1.654-1.658 1.654a1.656 1.656 0 0 1-1.658-1.654c0-.914.742-1.654 1.658-1.654m12.158 0c.915 0 1.658.74 1.658 1.654s-.743 1.654-1.658 1.654a1.656 1.656 0 0 1-1.658-1.654c0-.914.742-1.654 1.658-1.654m-133.74.069c.916 0 1.658.741 1.658 1.654 0 .914-.742 1.654-1.658 1.654s-1.658-.74-1.658-1.654.743-1.654 1.658-1.654m24.317 0c.915 0 1.657.741 1.657 1.654 0 .914-.742 1.654-1.657 1.654-.916 0-1.658-.74-1.658-1.654s.742-1.654 1.657-1.654zm24.316 0c.915 0 1.658.741 1.658 1.654 0 .914-.743 1.654-1.658 1.654-.916 0-1.658-.74-1.658-1.654s.742-1.654 1.658-1.654m24.316 0c.916 0 1.658.741 1.658 1.654 0 .914-.742 1.654-1.658 1.654s-1.658-.74-1.658-1.654.742-1.654 1.658-1.654m12.158 0c.916 0 1.658.741 1.658 1.654 0 .914-.742 1.654-1.658 1.654s-1.658-.74-1.658-1.654.743-1.654 1.658-1.654m72.949-.069c.916 0 1.658.74 1.658 1.654s-.742 1.654-1.658 1.654a1.656 1.656 0 0 1-1.658-1.654c0-.914.742-1.654 1.658-1.654m-145.898.069c.916 0 1.658.741 1.658 1.654 0 .914-.742 1.654-1.658 1.654s-1.658-.74-1.658-1.654.743-1.654 1.658-1.654m158.056-.069c.916 0 1.658.74 1.658 1.654s-.742 1.654-1.658 1.654a1.657 1.657 0 0 1-1.658-1.654c0-.914.743-1.654 1.658-1.654m-133.74.069c.916 0 1.659.741 1.659 1.654 0 .914-.743 1.654-1.658 1.654-.916 0-1.658-.74-1.658-1.654s.742-1.654 1.658-1.654zm145.898-.069c.916 0 1.658.74 1.658 1.654s-.742 1.654-1.658 1.654a1.657 1.657 0 0 1-1.658-1.654c0-.914.743-1.654 1.658-1.654m-121.581.069c.916 0 1.658.741 1.658 1.654 0 .914-.742 1.654-1.658 1.654s-1.658-.74-1.658-1.654.742-1.654 1.658-1.654m85.107-.069c.916 0 1.658.74 1.658 1.654s-.742 1.654-1.658 1.654a1.656 1.656 0 0 1-1.658-1.654c0-.914.742-1.654 1.658-1.654M51.534 212.25a1.654 1.654 0 1 1 .001 3.307c-.916 0-1.658-.74-1.658-1.653 0-.914.742-1.654 1.657-1.654m24.317 0c.915 0 1.658.74 1.658 1.654s-.743 1.653-1.658 1.653c-.916 0-1.658-.74-1.658-1.653 0-.914.742-1.654 1.658-1.654m12.158 0a1.655 1.655 0 1 1 0 3.307c-.916 0-1.658-.74-1.658-1.653 0-.914.742-1.654 1.658-1.654m12.158 0a1.655 1.655 0 1 1 0 3.307c-.916 0-1.658-.74-1.658-1.653 0-.914.742-1.654 1.658-1.654m12.158 0a1.655 1.655 0 1 1 0 3.307c-.916 0-1.658-.74-1.658-1.653 0-.914.743-1.654 1.658-1.654m-85.107 0a1.655 1.655 0 1 1 0 3.307c-.916 0-1.658-.74-1.658-1.653 0-.914.743-1.654 1.658-1.654m12.158 0a1.655 1.655 0 1 1 0 3.307c-.916 0-1.658-.74-1.658-1.653 0-.914.743-1.654 1.658-1.654m24.317 0c.915 0 1.658.74 1.658 1.654s-.743 1.653-1.658 1.653c-.916 0-1.658-.74-1.658-1.653 0-.914.742-1.654 1.658-1.654m60.79 0a1.655 1.655 0 1 1 0 3.307c-.916 0-1.658-.74-1.658-1.653 0-.914.743-1.654 1.658-1.654m12.158-.07c.916 0 1.658.741 1.658 1.654 0 .914-.742 1.654-1.658 1.654a1.655 1.655 0 1 1 0-3.308m12.159 0c.915 0 1.658.741 1.658 1.654 0 .914-.743 1.654-1.658 1.654-.916 0-1.658-.74-1.658-1.654s.742-1.654 1.658-1.654m12.158 0c.915 0 1.658.741 1.658 1.654 0 .914-.743 1.654-1.658 1.654-.916 0-1.658-.74-1.658-1.654s.742-1.654 1.658-1.654m12.158 0c.916 0 1.658.741 1.658 1.654 0 .914-.742 1.654-1.658 1.654s-1.658-.74-1.658-1.654.742-1.654 1.658-1.654m12.158 0c.916 0 1.658.741 1.658 1.654 0 .914-.742 1.654-1.658 1.654s-1.658-.74-1.658-1.654.742-1.654 1.658-1.654m12.158 0c.916 0 1.658.741 1.658 1.654 0 .914-.742 1.654-1.658 1.654s-1.658-.74-1.658-1.654.743-1.654 1.658-1.654m12.158 0c.916 0 1.658.741 1.658 1.654 0 .914-.742 1.654-1.658 1.654s-1.658-.74-1.658-1.654.743-1.654 1.658-1.654M27.218 200.121c.916 0 1.658.74 1.658 1.654s-.742 1.654-1.658 1.654a1.656 1.656 0 0 1-1.658-1.654c0-.914.743-1.654 1.658-1.654m12.158 0c.916 0 1.658.74 1.658 1.654s-.742 1.654-1.658 1.654a1.656 1.656 0 0 1-1.658-1.654c0-.914.743-1.654 1.658-1.654m12.159 0c.915 0 1.657.74 1.657 1.654s-.742 1.654-1.657 1.654a1.656 1.656 0 0 1-1.658-1.654c0-.914.742-1.654 1.657-1.654zm12.158 0c.915 0 1.658.74 1.658 1.654s-.743 1.654-1.658 1.654a1.656 1.656 0 0 1-1.658-1.654c0-.914.742-1.654 1.658-1.654m12.158 0c.915 0 1.658.74 1.658 1.654s-.743 1.654-1.658 1.654a1.656 1.656 0 0 1-1.658-1.654c0-.914.742-1.654 1.658-1.654m12.158 0c.916 0 1.658.74 1.658 1.654s-.742 1.654-1.658 1.654a1.656 1.656 0 0 1-1.658-1.654c0-.914.742-1.654 1.658-1.654m12.158 0c.916 0 1.658.74 1.658 1.654s-.742 1.654-1.658 1.654a1.656 1.656 0 0 1-1.658-1.654c0-.914.742-1.654 1.658-1.654m12.158 0c.916 0 1.658.74 1.658 1.654s-.742 1.654-1.658 1.654a1.657 1.657 0 0 1-1.658-1.654c0-.914.743-1.654 1.658-1.654m12.158 0c.916 0 1.658.74 1.658 1.654s-.742 1.654-1.658 1.654a1.657 1.657 0 0 1-1.658-1.654c0-.914.743-1.654 1.658-1.654m12.158-.069a1.655 1.655 0 1 1 0 3.307 1.654 1.654 0 1 1 0-3.307m12.159 0c.915 0 1.658.74 1.658 1.654s-.743 1.653-1.658 1.653c-.916 0-1.658-.74-1.658-1.653 0-.914.742-1.654 1.658-1.654m12.158 0c.915 0 1.658.74 1.658 1.654s-.743 1.653-1.658 1.653c-.916 0-1.658-.74-1.658-1.653 0-.914.742-1.654 1.658-1.654m12.158 0a1.655 1.655 0 1 1 0 3.307c-.916 0-1.658-.74-1.658-1.653 0-.914.742-1.654 1.658-1.654m12.158 0a1.655 1.655 0 1 1 0 3.307c-.916 0-1.658-.74-1.658-1.653 0-.914.742-1.654 1.658-1.654m12.158 0a1.655 1.655 0 1 1 0 3.307c-.916 0-1.658-.74-1.658-1.653 0-.914.743-1.654 1.658-1.654m12.158 0a1.655 1.655 0 1 1 0 3.307c-.916 0-1.658-.74-1.658-1.653 0-.914.743-1.654 1.658-1.654m-182.372-12.06c.916 0 1.658.741 1.658 1.654 0 .914-.742 1.654-1.658 1.654s-1.658-.74-1.658-1.654.743-1.654 1.658-1.654m12.158 0c.916 0 1.658.741 1.658 1.654 0 .914-.742 1.654-1.658 1.654s-1.658-.74-1.658-1.654.743-1.654 1.658-1.654m12.159 0c.915 0 1.657.741 1.657 1.654 0 .914-.742 1.654-1.657 1.654-.916 0-1.658-.74-1.658-1.654s.742-1.654 1.657-1.654zm12.158 0c.915 0 1.658.741 1.658 1.654 0 .914-.743 1.654-1.658 1.654-.916 0-1.658-.74-1.658-1.654s.742-1.654 1.658-1.654m12.158 0c.915 0 1.658.741 1.658 1.654 0 .914-.743 1.654-1.658 1.654-.916 0-1.658-.74-1.658-1.654s.742-1.654 1.658-1.654m12.158 0c.916 0 1.658.741 1.658 1.654 0 .914-.742 1.654-1.658 1.654s-1.658-.74-1.658-1.654.742-1.654 1.658-1.654m12.158 0c.916 0 1.658.741 1.658 1.654 0 .914-.742 1.654-1.658 1.654s-1.658-.74-1.658-1.654.742-1.654 1.658-1.654m12.158 0c.916 0 1.658.741 1.658 1.654 0 .914-.742 1.654-1.658 1.654s-1.658-.74-1.658-1.654.743-1.654 1.658-1.654m12.158 0c.916 0 1.658.741 1.658 1.654 0 .914-.742 1.654-1.658 1.654s-1.658-.74-1.658-1.654.743-1.654 1.658-1.654M59.271 1.652c0 .914-.742 1.655-1.657 1.655-.916 0-1.658-.74-1.658-1.654s.742-1.654 1.658-1.654 1.658.74 1.658 1.654zm0 12.13c0 .913-.742 1.653-1.657 1.653a1.655 1.655 0 1 1 0-3.307c.916 0 1.658.74 1.658 1.653zm0 12.128c0 .914-.742 1.654-1.657 1.654-.916 0-1.658-.74-1.658-1.654s.742-1.654 1.658-1.654 1.658.74 1.658 1.654zm0 12.129c0 .913-.742 1.654-1.657 1.654-.916 0-1.658-.74-1.658-1.654s.742-1.654 1.658-1.654 1.658.74 1.658 1.654zm0 12.128c0 .914-.742 1.654-1.657 1.654-.916 0-1.658-.74-1.658-1.654s.742-1.654 1.658-1.654 1.658.74 1.658 1.654zm0 12.129c0 .913-.742 1.654-1.657 1.654-.916 0-1.658-.74-1.658-1.654s.742-1.654 1.658-1.654 1.658.74 1.658 1.654zm0 12.129c0 .913-.742 1.654-1.657 1.654a1.656 1.656 0 0 1-1.658-1.654c0-.914.742-1.654 1.658-1.654s1.658.74 1.658 1.654zm0 12.128c0 .914-.742 1.654-1.657 1.654-.916 0-1.658-.74-1.658-1.654s.742-1.654 1.658-1.654 1.658.74 1.658 1.654zm0 12.129c0 .913-.742 1.654-1.657 1.654-.916 0-1.658-.74-1.658-1.654s.742-1.654 1.658-1.654 1.658.74 1.658 1.654zm0 12.128c0 .914-.742 1.654-1.657 1.654-.916 0-1.658-.74-1.658-1.654s.742-1.654 1.658-1.654 1.658.741 1.658 1.654zm0 12.129c0 .913-.742 1.654-1.657 1.654a1.656 1.656 0 0 1-1.658-1.654c0-.913.742-1.654 1.658-1.654s1.658.741 1.658 1.654zm0 12.129c0 .913-.742 1.653-1.657 1.653-.916 0-1.658-.74-1.658-1.653 0-.914.742-1.654 1.658-1.654s1.658.74 1.658 1.654zm0 12.128c0 .914-.742 1.654-1.657 1.654-.916 0-1.658-.74-1.658-1.654s.742-1.654 1.658-1.654 1.658.741 1.658 1.654zm0 12.129c0 .913-.742 1.654-1.657 1.654a1.656 1.656 0 0 1-1.658-1.654c0-.914.742-1.654 1.658-1.654s1.658.74 1.658 1.654zm12.159-84.9c0 .913-.743 1.654-1.658 1.654a1.656 1.656 0 0 1-1.658-1.654c0-.914.742-1.654 1.658-1.654s1.658.74 1.658 1.654m0 12.128c0 .914-.743 1.654-1.658 1.654-.916 0-1.658-.74-1.658-1.654s.742-1.654 1.658-1.654 1.658.74 1.658 1.654m0 12.129c0 .913-.743 1.654-1.658 1.654-.916 0-1.658-.74-1.658-1.654s.742-1.654 1.658-1.654 1.658.74 1.658 1.654m0 12.128c0 .914-.743 1.654-1.658 1.654-.916 0-1.658-.74-1.658-1.654s.742-1.654 1.658-1.654 1.658.741 1.658 1.654m0-109.157c0 .913-.743 1.654-1.658 1.654-.916 0-1.658-.74-1.658-1.654s.742-1.654 1.658-1.654 1.658.74 1.658 1.654m0 24.257c0 .914-.743 1.654-1.658 1.654-.916 0-1.658-.74-1.658-1.654s.742-1.654 1.658-1.654 1.658.74 1.658 1.654m0 24.257c0 .914-.743 1.654-1.658 1.654-.916 0-1.658-.74-1.658-1.654s.742-1.654 1.658-1.654 1.658.74 1.658 1.654m0 12.129c0 .913-.743 1.654-1.658 1.654-.916 0-1.658-.74-1.658-1.654s.742-1.654 1.658-1.654 1.658.74 1.658 1.654m0 72.772c0 .913-.743 1.653-1.658 1.653-.916 0-1.658-.74-1.658-1.653 0-.914.742-1.654 1.658-1.654s1.658.74 1.658 1.654m0 12.128c0 .914-.743 1.654-1.658 1.654-.916 0-1.658-.74-1.658-1.654s.742-1.654 1.658-1.654 1.658.741 1.658 1.654m0-133.415c0 .914-.743 1.654-1.658 1.654a1.655 1.655 0 1 1 0-3.307c.916 0 1.658.74 1.658 1.653m0 145.544c0 .913-.743 1.654-1.658 1.654a1.656 1.656 0 0 1-1.658-1.654c0-.914.742-1.654 1.658-1.654s1.658.74 1.658 1.654m0-121.286c0 .913-.743 1.654-1.658 1.654-.916 0-1.658-.74-1.658-1.654s.742-1.654 1.658-1.654 1.658.74 1.658 1.654m0 84.9c0 .913-.743 1.654-1.658 1.654a1.656 1.656 0 0 1-1.658-1.654c0-.913.742-1.654 1.658-1.654s1.658.741 1.658 1.654M83.588 1.653c0 .913-.742 1.654-1.658 1.654s-1.658-.74-1.658-1.654.742-1.654 1.658-1.654 1.658.74 1.658 1.654m0 24.257c0 .914-.742 1.654-1.658 1.654s-1.658-.74-1.658-1.654.742-1.654 1.658-1.654 1.658.74 1.658 1.654m0 12.129c0 .913-.742 1.654-1.658 1.654s-1.658-.74-1.658-1.654.742-1.654 1.658-1.654 1.658.74 1.658 1.654m0 12.128c0 .914-.742 1.654-1.658 1.654s-1.658-.74-1.658-1.654.742-1.654 1.658-1.654 1.658.74 1.658 1.654m0 12.129c0 .913-.742 1.654-1.658 1.654s-1.658-.74-1.658-1.654.742-1.654 1.658-1.654 1.658.74 1.658 1.654m0-48.514c0 .913-.742 1.653-1.658 1.653s-1.658-.74-1.658-1.654.742-1.653 1.658-1.653 1.658.74 1.658 1.653zm0 60.643c0 .913-.742 1.654-1.658 1.654a1.656 1.656 0 0 1-1.658-1.654c0-.914.742-1.654 1.658-1.654s1.658.74 1.658 1.654m0 12.128c0 .914-.742 1.654-1.658 1.654s-1.658-.74-1.658-1.654.742-1.654 1.658-1.654 1.658.74 1.658 1.654m0 12.129c0 .913-.742 1.654-1.658 1.654s-1.658-.74-1.658-1.654.742-1.654 1.658-1.654 1.658.74 1.658 1.654m0 12.128c0 .914-.742 1.654-1.658 1.654s-1.658-.74-1.658-1.654.742-1.654 1.658-1.654 1.658.741 1.658 1.654m0 12.129c0 .913-.742 1.654-1.658 1.654a1.656 1.656 0 0 1-1.658-1.654c0-.913.742-1.654 1.658-1.654s1.658.741 1.658 1.654m0 12.129c0 .913-.742 1.653-1.658 1.653s-1.658-.74-1.658-1.653c0-.914.742-1.654 1.658-1.654s1.658.74 1.658 1.654m0 12.128c0 .914-.742 1.654-1.658 1.654s-1.658-.74-1.658-1.654.742-1.654 1.658-1.654 1.658.741 1.658 1.654m0 12.129c0 .913-.742 1.654-1.658 1.654a1.656 1.656 0 0 1-1.658-1.654c0-.914.742-1.654 1.658-1.654s1.658.74 1.658 1.654M95.746 1.653c0 .913-.742 1.654-1.658 1.654s-1.658-.74-1.658-1.654.742-1.654 1.658-1.654 1.658.74 1.658 1.654m0 12.128c0 .914-.742 1.654-1.658 1.654s-1.658-.74-1.658-1.654.742-1.653 1.658-1.653 1.658.74 1.658 1.653m0 12.13c0 .913-.742 1.653-1.658 1.653s-1.658-.74-1.658-1.654.742-1.654 1.658-1.654 1.658.74 1.658 1.654zm0 12.128c0 .913-.742 1.654-1.658 1.654s-1.658-.74-1.658-1.654.742-1.654 1.658-1.654 1.658.74 1.658 1.654m0 12.128c0 .914-.742 1.654-1.658 1.654s-1.658-.74-1.658-1.654.742-1.654 1.658-1.654 1.658.74 1.658 1.654m0 12.129c0 .913-.742 1.654-1.658 1.654s-1.658-.74-1.658-1.654.742-1.654 1.658-1.654 1.658.74 1.658 1.654m0 12.129c0 .913-.742 1.654-1.658 1.654a1.656 1.656 0 0 1-1.658-1.654c0-.914.742-1.654 1.658-1.654s1.658.74 1.658 1.654m0 12.128c0 .914-.742 1.654-1.658 1.654s-1.658-.74-1.658-1.654.742-1.654 1.658-1.654 1.658.74 1.658 1.654m0 12.129c0 .913-.742 1.654-1.658 1.654s-1.658-.74-1.658-1.654.742-1.654 1.658-1.654 1.658.74 1.658 1.654m0 12.128c0 .914-.742 1.654-1.658 1.654s-1.658-.74-1.658-1.654.742-1.654 1.658-1.654 1.658.741 1.658 1.654m0 12.129c0 .913-.742 1.654-1.658 1.654a1.656 1.656 0 0 1-1.658-1.654c0-.913.742-1.654 1.658-1.654s1.658.741 1.658 1.654m0 12.129c0 .913-.742 1.653-1.658 1.653s-1.658-.74-1.658-1.653c0-.914.742-1.654 1.658-1.654s1.658.74 1.658 1.654m0 12.128c0 .914-.742 1.654-1.658 1.654s-1.658-.74-1.658-1.654.742-1.654 1.658-1.654 1.658.741 1.658 1.654m0 12.129c0 .913-.742 1.654-1.658 1.654a1.656 1.656 0 0 1-1.658-1.654c0-.914.742-1.654 1.658-1.654s1.658.74 1.658 1.654M107.904 1.653c0 .913-.742 1.654-1.658 1.654s-1.658-.74-1.658-1.654.742-1.654 1.658-1.654 1.658.74 1.658 1.654m0 12.128c0 .914-.742 1.654-1.658 1.654s-1.658-.74-1.658-1.654.742-1.653 1.658-1.653 1.658.74 1.658 1.653m0 12.13c0 .913-.742 1.653-1.658 1.653s-1.658-.74-1.658-1.654.742-1.654 1.658-1.654 1.658.74 1.658 1.654zm0 12.128c0 .913-.742 1.654-1.658 1.654s-1.658-.74-1.658-1.654.742-1.654 1.658-1.654 1.658.74 1.658 1.654m0 12.128c0 .914-.742 1.654-1.658 1.654s-1.658-.74-1.658-1.654.742-1.654 1.658-1.654 1.658.74 1.658 1.654m0 12.129c0 .913-.742 1.654-1.658 1.654s-1.658-.74-1.658-1.654.742-1.654 1.658-1.654 1.658.74 1.658 1.654m0 12.129c0 .913-.742 1.654-1.658 1.654a1.656 1.656 0 0 1-1.658-1.654c0-.914.742-1.654 1.658-1.654s1.658.74 1.658 1.654m0 12.128c0 .914-.742 1.654-1.658 1.654s-1.658-.74-1.658-1.654.742-1.654 1.658-1.654 1.658.74 1.658 1.654m0 12.129c0 .913-.742 1.654-1.658 1.654s-1.658-.74-1.658-1.654.742-1.654 1.658-1.654 1.658.74 1.658 1.654m0 12.128c0 .914-.742 1.654-1.658 1.654s-1.658-.74-1.658-1.654.742-1.654 1.658-1.654 1.658.741 1.658 1.654m0 12.129c0 .913-.742 1.654-1.658 1.654a1.656 1.656 0 0 1-1.658-1.654c0-.913.742-1.654 1.658-1.654s1.658.741 1.658 1.654m0 12.129c0 .913-.742 1.653-1.658 1.653s-1.658-.74-1.658-1.653c0-.914.742-1.654 1.658-1.654s1.658.74 1.658 1.654m0 12.128c0 .914-.742 1.654-1.658 1.654s-1.658-.74-1.658-1.654.742-1.654 1.658-1.654 1.658.741 1.658 1.654m0 12.129c0 .913-.742 1.654-1.658 1.654a1.656 1.656 0 0 1-1.658-1.654c0-.914.742-1.654 1.658-1.654s1.658.74 1.658 1.654M120.062 1.653c0 .913-.742 1.654-1.658 1.654s-1.658-.74-1.658-1.654.743-1.654 1.658-1.654c.916 0 1.658.74 1.658 1.654m0 12.128c0 .914-.742 1.654-1.658 1.654s-1.658-.74-1.658-1.654.743-1.653 1.658-1.653c.916 0 1.658.74 1.658 1.653m0 12.13c0 .913-.742 1.653-1.658 1.653s-1.658-.74-1.658-1.654.743-1.654 1.658-1.654c.916 0 1.658.74 1.658 1.654zm0 12.128c0 .913-.742 1.654-1.658 1.654s-1.658-.74-1.658-1.654.743-1.654 1.658-1.654c.916 0 1.658.74 1.658 1.654m0 12.128c0 .914-.742 1.654-1.658 1.654s-1.658-.74-1.658-1.654.743-1.654 1.658-1.654c.916 0 1.658.74 1.658 1.654m0 12.129c0 .913-.742 1.654-1.658 1.654s-1.658-.74-1.658-1.654.743-1.654 1.658-1.654c.916 0 1.658.74 1.658 1.654m0 12.129c0 .913-.742 1.654-1.658 1.654a1.657 1.657 0 0 1-1.658-1.654c0-.914.743-1.654 1.658-1.654.916 0 1.658.74 1.658 1.654m0 12.128c0 .914-.742 1.654-1.658 1.654s-1.658-.74-1.658-1.654.743-1.654 1.658-1.654c.916 0 1.658.74 1.658 1.654m0 12.129c0 .913-.742 1.654-1.658 1.654s-1.658-.74-1.658-1.654.743-1.654 1.658-1.654c.916 0 1.658.74 1.658 1.654m0 12.128c0 .914-.742 1.654-1.658 1.654s-1.658-.74-1.658-1.654.743-1.654 1.658-1.654c.916 0 1.658.741 1.658 1.654m0 12.129c0 .913-.742 1.654-1.658 1.654a1.657 1.657 0 0 1-1.658-1.654c0-.913.743-1.654 1.658-1.654.916 0 1.658.741 1.658 1.654m0 12.129c0 .913-.742 1.653-1.658 1.653s-1.658-.74-1.658-1.653c0-.914.743-1.654 1.658-1.654.916 0 1.658.74 1.658 1.654m0 12.128c0 .914-.742 1.654-1.658 1.654s-1.658-.74-1.658-1.654.743-1.654 1.658-1.654c.916 0 1.658.741 1.658 1.654m0 12.129c0 .913-.742 1.654-1.658 1.654a1.657 1.657 0 0 1-1.658-1.654c0-.914.743-1.654 1.658-1.654.916 0 1.658.74 1.658 1.654M132.22 1.653c0 .913-.742 1.654-1.658 1.654s-1.658-.74-1.658-1.654.743-1.654 1.658-1.654c.916 0 1.658.74 1.658 1.654m0 12.128c0 .914-.742 1.654-1.658 1.654s-1.658-.74-1.658-1.654.743-1.653 1.658-1.653c.916 0 1.658.74 1.658 1.653m0 12.13c0 .913-.742 1.653-1.658 1.653s-1.658-.74-1.658-1.654.743-1.654 1.658-1.654c.916 0 1.658.74 1.658 1.654zm0 12.128c0 .913-.742 1.654-1.658 1.654s-1.658-.74-1.658-1.654.743-1.654 1.658-1.654c.916 0 1.658.74 1.658 1.654m0 12.128c0 .914-.742 1.654-1.658 1.654s-1.658-.74-1.658-1.654.743-1.654 1.658-1.654c.916 0 1.658.74 1.658 1.654m0 12.129c0 .913-.742 1.654-1.658 1.654s-1.658-.74-1.658-1.654.743-1.654 1.658-1.654c.916 0 1.658.74 1.658 1.654m0 12.129c0 .913-.742 1.654-1.658 1.654a1.657 1.657 0 0 1-1.658-1.654c0-.914.743-1.654 1.658-1.654.916 0 1.658.74 1.658 1.654m0 12.128c0 .914-.742 1.654-1.658 1.654s-1.658-.74-1.658-1.654.743-1.654 1.658-1.654c.916 0 1.658.74 1.658 1.654m0 12.129c0 .913-.742 1.654-1.658 1.654s-1.658-.74-1.658-1.654.743-1.654 1.658-1.654c.916 0 1.658.74 1.658 1.654m0 12.128c0 .914-.742 1.654-1.658 1.654s-1.658-.74-1.658-1.654.743-1.654 1.658-1.654c.916 0 1.658.741 1.658 1.654m0 12.129c0 .913-.742 1.654-1.658 1.654a1.657 1.657 0 0 1-1.658-1.654c0-.913.743-1.654 1.658-1.654.916 0 1.658.741 1.658 1.654m0 12.129c0 .913-.742 1.653-1.658 1.653s-1.658-.74-1.658-1.653c0-.914.743-1.654 1.658-1.654.916 0 1.658.74 1.658 1.654m0 12.128c0 .914-.742 1.654-1.658 1.654s-1.658-.74-1.658-1.654.743-1.654 1.658-1.654c.916 0 1.658.741 1.658 1.654m0 12.129c0 .913-.742 1.654-1.658 1.654a1.657 1.657 0 0 1-1.658-1.654c0-.914.743-1.654 1.658-1.654.916 0 1.658.74 1.658 1.654M144.378 1.653c0 .913-.742 1.654-1.657 1.654-.916 0-1.658-.74-1.658-1.654s.742-1.654 1.658-1.654 1.657.74 1.657 1.654m0 12.128c0 .914-.742 1.654-1.657 1.654a1.655 1.655 0 1 1 0-3.307c.916 0 1.657.74 1.657 1.653m0 12.13c0 .913-.742 1.653-1.657 1.653-.916 0-1.658-.74-1.658-1.654s.742-1.654 1.658-1.654 1.657.74 1.657 1.654zm0 12.128c0 .913-.742 1.654-1.657 1.654-.916 0-1.658-.74-1.658-1.654s.742-1.654 1.658-1.654 1.657.74 1.657 1.654m0 12.128c0 .914-.742 1.654-1.657 1.654-.916 0-1.658-.74-1.658-1.654s.742-1.654 1.658-1.654 1.657.74 1.657 1.654m0 12.129c0 .913-.742 1.654-1.657 1.654-.916 0-1.658-.74-1.658-1.654s.742-1.654 1.658-1.654 1.657.74 1.657 1.654m0 12.129c0 .913-.742 1.654-1.657 1.654a1.656 1.656 0 0 1-1.658-1.654c0-.914.742-1.654 1.658-1.654s1.657.74 1.657 1.654m0 12.128c0 .914-.742 1.654-1.657 1.654-.916 0-1.658-.74-1.658-1.654s.742-1.654 1.658-1.654 1.657.74 1.657 1.654m0 12.129c0 .913-.742 1.654-1.657 1.654-.916 0-1.658-.74-1.658-1.654s.742-1.654 1.658-1.654 1.657.74 1.657 1.654m0 12.128c0 .914-.742 1.654-1.657 1.654-.916 0-1.658-.74-1.658-1.654s.742-1.654 1.658-1.654 1.657.741 1.657 1.654m0 12.129c0 .913-.742 1.654-1.657 1.654a1.656 1.656 0 0 1-1.658-1.654c0-.913.742-1.654 1.658-1.654s1.657.741 1.657 1.654m0 12.129c0 .913-.742 1.653-1.657 1.653-.916 0-1.658-.74-1.658-1.653 0-.914.742-1.654 1.658-1.654s1.657.74 1.657 1.654m0 12.128c0 .914-.742 1.654-1.657 1.654-.916 0-1.658-.74-1.658-1.654s.742-1.654 1.658-1.654 1.657.741 1.657 1.654m0 12.129c0 .913-.742 1.654-1.657 1.654a1.656 1.656 0 0 1-1.658-1.654c0-.914.742-1.654 1.658-1.654s1.657.74 1.657 1.654" clip-rule="evenodd"/><path fill="#F6F6F6" fill-rule="evenodd" d="M171.36 44.467c21.221 8.933 36.155 30.217 39.77 52.42s-4.244 45.327-19.806 61.749-38.827 26.276-62.721 32.846c-24.051 6.7-48.73 10.116-67.594 3.153-18.863-6.964-31.91-24.437-43.229-42.174C6.462 134.856-3.127 116.989.96 101.748c4.245-15.24 22.008-27.72 39.928-37.049 17.92-9.328 35.683-15.634 58.477-20.495 22.793-4.993 50.616-8.54 71.995.263" clip-rule="evenodd"/><path stroke="#E5E5E5" d="M3.313 187.695c.81 0 1.543.33 2.075.863s.861 1.268.861 2.08c0 .811-.33 1.547-.861 2.079a2.923 2.923 0 0 1-4.15 0 2.93 2.93 0 0 1-.862-2.079c0-.812.33-1.547.861-2.08a2.92 2.92 0 0 1 2.076-.863zm0 .246a2.68 2.68 0 0 0-1.904.791 2.7 2.7 0 0 0-.789 1.906c0 .743.302 1.417.79 1.905a2.684 2.684 0 0 0 3.807.001 2.693 2.693 0 0 0 0-3.812 2.68 2.68 0 0 0-1.904-.791zm171.647-38.962c.058 0 .116.022.16.067a.22.22 0 0 1 .067.16.23.23 0 0 1-.067.162l-2.549 2.553 2.549 2.554a.227.227 0 0 1-.32.322l-2.55-2.555-2.55 2.555a.22.22 0 0 1-.16.067.227.227 0 0 1-.16-.389l2.549-2.554-2.549-2.553a.23.23 0 0 1 .001-.323.22.22 0 0 1 .159-.066l2.71 2.62 2.55-2.554a.23.23 0 0 1 .16-.066zm-132.5-6.637a.226.226 0 0 1 .227.227.23.23 0 0 1-.067.162l-2.55 2.553 2.55 2.554a.227.227 0 0 1 0 .322.223.223 0 0 1-.32 0l-2.55-2.555-2.55 2.555a.223.223 0 0 1-.32 0 .227.227 0 0 1 0-.322l2.55-2.554-2.55-2.553a.23.23 0 0 1 0-.323.23.23 0 0 1 .16-.066l2.71 2.621 2.55-2.555a.23.23 0 0 1 .16-.066zm129.79-56.416c.81 0 1.544.33 2.075.863a2.936 2.936 0 0 1 0 4.16 2.92 2.92 0 0 1-2.075.863 2.92 2.92 0 0 1-2.075-.863 2.937 2.937 0 0 1 0-4.16 2.92 2.92 0 0 1 2.075-.863zm0 .246a2.68 2.68 0 0 0-1.903.791 2.7 2.7 0 0 0-.789 1.906c0 .743.301 1.418.789 1.906a2.68 2.68 0 0 0 3.806 0 2.7 2.7 0 0 0 .79-1.906c0-.744-.302-1.418-.79-1.906a2.68 2.68 0 0 0-1.903-.79zm39.148-46.705a.226.226 0 0 1 .159.389l-2.549 2.553 2.549 2.554a.226.226 0 0 1 0 .322.225.225 0 0 1-.319 0l-2.551-2.555-2.549 2.556a.225.225 0 0 1-.32 0 .226.226 0 0 1 0-.323l2.549-2.554-2.549-2.554a.226.226 0 0 1 .16-.388l2.709 2.62 2.55-2.554a.23.23 0 0 1 .161-.066zm-169.708.73c.608.536.942 1.27.99 2.022a2.94 2.94 0 0 1-.723 2.133 2.92 2.92 0 0 1-2.007.993c-.907.004-1.594-.246-2.138-.726a2.92 2.92 0 0 1-.992-2.02 2.93 2.93 0 0 1 .725-2.133 2.92 2.92 0 0 1 2.017-.993c.75-.049 1.52.189 2.128.724zm-1.938-.484c-.748 0-1.493.31-2.024.915a2.68 2.68 0 0 0-.664 1.955 2.68 2.68 0 0 0 .909 1.851 2.67 2.67 0 0 0 1.952.666 2.69 2.69 0 0 0 2.512-2.865 2.69 2.69 0 0 0-2.685-2.522z" clip-rule="evenodd"/><path fill="#CACAFB" fill-rule="evenodd" d="M143.8 82.55c-.744 0-1.35-.606-1.35-1.35s.606-1.35 1.35-1.35 1.35.605 1.35 1.35c0 .744-.606 1.35-1.35 1.35m-36.45 85.049c-.744 0-1.35-.605-1.35-1.35 0-.744.606-1.35 1.35-1.35s1.35.606 1.35 1.35-.606 1.35-1.35 1.35M72.25 78.5a1.35 1.35 0 1 1 1.35-1.35c0 .744-.606 1.35-1.35 1.35" clip-rule="evenodd"/><path fill="#E1000F" d="M73.6 94.7c-.744 0-1.35-.606-1.35-1.35S72.856 92 73.6 92s1.35.606 1.35 1.35-.606 1.35-1.35 1.35m5.4 0c-.744 0-1.35-.606-1.35-1.35S78.256 92 79 92s1.35.606 1.35 1.35-.606 1.35-1.35 1.35m4.05-1.35c0 .744.606 1.35 1.35 1.35s1.35-.606 1.35-1.35S85.144 92 84.4 92s-1.35.606-1.35 1.35M135.7 92a1.35 1.35 0 0 1 .157 2.69l-.157.01H95.2a1.35 1.35 0 0 1-.157-2.69L95.2 92z"/><path fill="#E1000F" fill-rule="evenodd" d="M121.245 132.104a4.05 4.05 0 1 0 7.026-.499l5.809-7.745.093-.142a1.35 1.35 0 0 0-2.253-1.478l-5.808 7.744a4.08 4.08 0 0 0-2.958.211l-2.699-2.7-.128-.112a1.35 1.35 0 0 0-1.782 2.022zm3.655.396a1.35 1.35 0 1 1 .001 2.699 1.35 1.35 0 0 1-.001-2.699" clip-rule="evenodd"/><path fill="#000091" d="M142.441 87.792A1.35 1.35 0 0 0 141.1 86.6H68.2l-.157.009a1.35 1.35 0 0 0-1.193 1.34v62.101l.01.157a1.35 1.35 0 0 0 1.34 1.193h32.4l.158-.009a1.35 1.35 0 0 0 1.192-1.341l-.009-.158a1.35 1.35 0 0 0-1.341-1.192H69.55v-48.6h49.95l.158-.009a1.35 1.35 0 0 0-.158-2.691H69.55v-8.1h70.2v20.25l.009.157a1.351 1.351 0 0 0 2.691-.157v-21.6z"/><path fill="#000091" d="M147.85 133.85c0-12.675-10.275-22.95-22.95-22.95s-22.95 10.275-22.95 22.95c0 11.638 8.663 21.253 19.892 22.748l-.596.597-.113.127a1.35 1.35 0 0 0 2.022 1.782l2.7-2.7a1.3 1.3 0 0 0 .293-.438 1.36 1.36 0 0 0-.293-1.471l-2.7-2.7-.127-.112a1.35 1.35 0 0 0-1.782.112l-.113.127a1.35 1.35 0 0 0 .113 1.782l.081.081c-9.48-1.688-16.677-9.971-16.677-19.935 0-11.184 9.066-20.25 20.25-20.25s20.25 9.066 20.25 20.25c0 4.723-1.621 9.195-4.542 12.78a1.35 1.35 0 0 0 2.093 1.706 22.85 22.85 0 0 0 5.149-14.486"/><path fill="#000091" d="M139.245 151.765a1.35 1.35 0 1 0-1.688-2.107 20.5 20.5 0 0 1-2.523 1.728 1.35 1.35 0 0 0-.491 1.844 1.35 1.35 0 0 0 1.844.492 23 23 0 0 0 2.858-1.957M127.9 119.303a15 15 0 0 0-3-.303c-8.201 0-14.85 6.648-14.85 14.85s6.649 14.85 14.85 14.85 14.85-6.649 14.85-14.85c0-2.047-.415-4.038-1.209-5.878a1.35 1.35 0 1 0-2.479 1.069 12.1 12.1 0 0 1 .988 4.809c0 6.71-5.44 12.15-12.15 12.15s-12.15-5.44-12.15-12.15c0-6.711 5.44-12.15 12.15-12.15q1.252 0 2.458.248a1.35 1.35 0 1 0 .542-2.645M103.3 108.2a1.35 1.35 0 0 1 .158 2.691l-.158.009H79a1.35 1.35 0 0 1-.157-2.691L79 108.2zm-4.05 9.45a1.35 1.35 0 0 0-1.35-1.35H79l-.157.009A1.35 1.35 0 0 0 79 119h18.9l.157-.009a1.35 1.35 0 0 0 1.193-1.341m-4.05 6.75a1.35 1.35 0 0 1 .157 2.691l-.157.009H79a1.35 1.35 0 0 1-.157-2.691L79 124.4z"/></g><defs><clipPath id="a"><path fill="#fff" d="M0-.001h212v239.816H0z"/></clipPath></defs></svg>