<svg xmlns="http://www.w3.org/2000/svg" width="360" height="139" fill="none"><path fill="url(#a)" d="m-42 76.94 5.138-14.354 170.642 69.648z" opacity=".2"/><path fill="url(#b)" d="m3.3-9.703 10.807-10.752 127.637 139.713z" opacity=".2"/><path fill="url(#c)" d="m90.548-39.18 14.09-5.82 62.853 173.259z" opacity=".2"/><path fill="url(#d)" d="m397.215 76.94-5.138-14.354-170.642 69.648z" opacity=".2"/><path fill="url(#e)" d="M359.924-17.193 349.032-27.86 217.261 118.196z" opacity=".2"/><path fill="url(#f)" d="M264.667-39.18 250.577-45l-62.853 173.259z" opacity=".2"/><circle cx="249.4" cy="33.12" r="4.356" fill="#DBDBEF"/><circle cx="332.158" cy="55.335" r="4.356" fill="#DBDBEF"/><circle cx="140.942" cy="11.342" r="4.356" fill="#DBDBEF"/><circle cx="68.201" cy="9.599" r="4.356" fill="#DBDBEF"/><circle cx="21.594" cy="47.494" r="4.356" fill="#DBDBEF"/><circle cx="32.484" cy="110.653" r="4.356" fill="#DBDBEF"/><circle cx="255.062" cy="12.648" r="3.049" fill="#000091" fill-opacity=".3"/><circle cx="79.961" cy="9.164" r="3.049" fill="#000091" fill-opacity=".3"/><circle cx="312.122" cy="54.028" r="3.049" fill="#000091" fill-opacity=".3"/><circle cx="306.896" cy="9.164" r="2.178" fill="#000091" fill-opacity=".4"/><circle cx="102.61" cy="31.814" r="2.178" fill="#000091" fill-opacity=".4"/><circle cx="44.68" cy="117.186" r="2.178" fill="#000091" fill-opacity=".4"/><circle cx="307.767" cy="119.364" r="2.178" fill="#000091" fill-opacity=".4"/><circle cx="223.265" cy="1.759" r="2.178" fill="#000091" fill-opacity=".4"/><defs><linearGradient id="a" x1="-39.431" x2="133.927" y1="69.763" y2="131.823" gradientUnits="userSpaceOnUse"><stop stop-color="#000091"/><stop offset="1" stop-color="#000091" stop-opacity="0"/></linearGradient><linearGradient id="b" x1="8.703" x2="142.053" y1="-15.079" y2="118.951" gradientUnits="userSpaceOnUse"><stop stop-color="#000091"/><stop offset="1" stop-color="#000091" stop-opacity="0"/></linearGradient><linearGradient id="c" x1="97.593" x2="167.894" y1="-42.09" y2="128.093" gradientUnits="userSpaceOnUse"><stop stop-color="#000091"/><stop offset="1" stop-color="#000091" stop-opacity="0"/></linearGradient><linearGradient id="d" x1="394.646" x2="221.288" y1="69.763" y2="131.823" gradientUnits="userSpaceOnUse"><stop stop-color="#000091"/><stop offset="1" stop-color="#000091" stop-opacity="0"/></linearGradient><linearGradient id="e" x1="354.478" x2="216.95" y1="-22.526" y2="117.891" gradientUnits="userSpaceOnUse"><stop stop-color="#000091"/><stop offset="1" stop-color="#000091" stop-opacity="0"/></linearGradient><linearGradient id="f" x1="257.622" x2="187.321" y1="-42.09" y2="128.093" gradientUnits="userSpaceOnUse"><stop stop-color="#000091"/><stop offset="1" stop-color="#000091" stop-opacity="0"/></linearGradient></defs></svg>