<svg xmlns="http://www.w3.org/2000/svg" width="160" height="130" fill="none"><g clip-path="url(#a)"><path fill="#F2FFE9" d="M0 0h160v130H0z"/><path stroke="#21261F" stroke-linecap="round" stroke-linejoin="round" d="M129.553 56.23c12.116 9.438 14.004 37.792 14.004 37.792s-2.922 3.708-2.922-.352c0-5.636-3.923-13.89-9.346-15.298m20.726-38.494c-10.415 20.22-4.296 42.73-4.935 52.4"/><path fill="#424D99" d="M130.258 89.816h33.601l-3.869 30.418h-25.686z"/><path stroke="#7571ED" stroke-linecap="round" stroke-linejoin="round" d="M131.267 97.406h31.626"/><path fill="#4A8171" d="M147.08 63.677c-3.626-7.386-6.464-10.515-5.153 6.094 1.312 16.608 5.153 32.94 5.153 32.94s9.508-34.933 5.402-46.479c-1.729-4.867-5.402 7.445-5.402 7.445" style="mix-blend-mode:multiply"/><path stroke="#21261F" stroke-linecap="round" stroke-linejoin="round" stroke-width=".5" d="M147.08 63.678c1.766 20.513 0 39.033 0 39.033"/><path fill="#4A8171" d="M152.015 39.879c-12.433-3.986-10.904 3.167 9.034 13.246s24.511 13.417 24.511 13.417-13.608-23.496-32.034-32.757c-12.555-6.299-1.511 6.094-1.511 6.094" style="mix-blend-mode:multiply"/><path stroke="#21261F" stroke-linecap="round" stroke-linejoin="round" stroke-width=".5" d="M152.015 39.879c17.134 10.2 30.492 22.612 33.542 26.663"/><path fill="#4A8171" d="M129.553 56.233c3.343-13.831.764-22.59-5.099-7.046-5.863 15.543-10.088 31.604-11.259 41.216 0 0 16.823-25.878 25.969-36.926 11.601-13.986-2.748-7.678-9.611 2.756m23.166 19.653c-10.321 0-1.642 5.275 10.673 11.02s16.199 9.232 16.199 9.232-12.903-18.434-25.1-24.091c-12.196-5.658-1.772 3.839-1.772 3.839" style="mix-blend-mode:multiply"/><path stroke="#21261F" stroke-linecap="round" stroke-linejoin="round" stroke-width=".5" d="M152.719 75.886c15.483 8.908 22.872 16.12 26.86 20.239m-50.026-39.894c-10.607 16.235-15.903 30.77-16.358 34.17"/><path fill="#4A8171" d="M115.304 61.953c-2.639-.704-5.804 8.407-3.517 8.992s6.156-8.295 3.517-8.992m15.963 51.064c7.084-24.791 9.305-41.144 7.05-42.035s-7.05 7.383-7.05 7.383-2.041-8.115-4.087-4.814c-5.452 8.75 4.087 39.466 4.087 39.466" style="mix-blend-mode:multiply"/><path stroke="#21261F" stroke-linecap="round" stroke-linejoin="round" stroke-width=".5" d="M131.267 78.386c-1.184 9.79 0 34.64 0 34.64"/><path fill="#4A8171" d="M124.276 99.367c-2.461.473-.726 7.902 1.221 7.529s1.237-8-1.221-7.53"/><path fill="#002933" d="M26.12 112.326a.747.747 0 0 1 1.37.602l-3.08 6.96a.747.747 0 0 1-1.369-.602zm6.182 0a.747.747 0 1 1 1.368.602l-3.08 6.96a.747.747 0 1 1-1.368-.602zm54.993.586a.747.747 0 1 1 1.368-.602l3.08 6.959a.747.747 0 1 1-1.368.602z"/><path fill="#6CAA4B" fill-rule="evenodd" d="M28.23 116.904h-5.675V44.251h5.676z" clip-rule="evenodd"/><path fill="#6CAA4B" fill-rule="evenodd" d="M22.555 44.25v16.092c1.773 9.175-2.314 20.336 9.756 22.658l7.336 18.181 6.84.021c.81-4.3 25.538 5.26 38.884-5.286C92.137 90.57 96.025 65.943 94.63 60.8l-19.955-1.267c.065-11.923-.824-21.027-7.597-22.995-10.274-2.987-45.926-2.914-44.522 7.71" clip-rule="evenodd"/><path fill="#90D470" fill-rule="evenodd" d="M92.374 116.903V92.226l-64.044.784-.096 23.893z" clip-rule="evenodd"/><path fill="#90D470" fill-rule="evenodd" d="M92.168 81.844v11.325l-64.043-.36-.097-10.965z" clip-rule="evenodd"/><path fill="#002933" d="M84.703 82.814a.187.187 0 0 1 0 .373H34.96a.187.187 0 1 1 0-.373z"/><path fill="#E4F7E9" fill-rule="evenodd" d="m113.387 65.801 2.01-14.374-29.56-4.278c-10.533-1.525-17.495 12.077-22.876 21.494.277.286-7.05 7.073-2.825 10.109 2.113 1.518 11.164 4.387 14.846-3.329L85.806 60.24c7.476 1.42 18.916 4.226 27.582 5.561" clip-rule="evenodd"/><path fill="#002933" d="m113.228 65.588 1.958-14.002-29.375-4.251C76.046 45.92 69.34 57.763 64.126 66.969c-.363.641-.72 1.271-1.001 1.764-.069.225-.344.566-.712 1.022a38 38 0 0 0-1.338 1.73c-1.615 2.246-3.262 5.368-.83 7.116.225.161.534.34.915.522 1.402.669 3.71 1.343 6.113 1.231 2.386-.11 4.864-1 6.625-3.45q.498-.69.916-1.56a.2.2 0 0 1 .024-.039l10.815-15.172a.19.19 0 0 1 .187-.075c2.835.539 6.218 1.271 9.802 2.047 5.848 1.267 12.234 2.65 17.586 3.483m2.354-14.135-2.009 14.364-.002.013a.186.186 0 0 1-.212.157c-5.401-.832-11.874-2.234-17.796-3.517-3.544-.767-6.89-1.492-9.675-2.023l-10.743 15.07q-.427.888-.945 1.605c-1.84 2.56-4.424 3.49-6.912 3.605-2.471.114-4.847-.578-6.29-1.267a6.5 6.5 0 0 1-.97-.556c-2.694-1.935-.966-5.257.744-7.637a37 37 0 0 1 1.35-1.746c.388-.48.748-.684.707-.745a.19.19 0 0 1-.03-.225c.374-.657.685-1.206 1.002-1.766 5.269-9.303 12.046-21.27 22.063-19.82l29.559 4.277a.187.187 0 0 1 .159.211"/><path fill="#002933" fill-rule="evenodd" d="m114.392 58.615 1.005-7.188c3.999-.078 12.85 1.78 14.023 4.115.409.813-2.059.88-6.45 2.097-2.865.794-2.664 4.203-8.578.975" clip-rule="evenodd"/><path fill="#FFFAFF" fill-rule="evenodd" d="M86.173 61.35C81.168 72.58 75.5 79.85 70.364 83H58.161c-6.522-.705-9.271-4.26-11.608-7.424-9.442-12.777 5.35-6.556 12.16-7.55 1.351-.198 3.489.207 4.247.618 6.896-12.057 28.958-30.343 39.288-38.529l10.428 11.195c-4.401 5.927-17.107 15.118-26.503 20.04" clip-rule="evenodd"/><path fill="#002933" d="M86.317 61.484c-2.425 5.434-5.007 9.942-7.61 13.506-2.778 3.805-5.581 6.536-8.246 8.17a.2.2 0 0 1-.107.027H58.162l-.02-.001c-3.3-.357-5.648-1.437-7.467-2.828-1.815-1.388-3.096-3.079-4.272-4.67-3.399-4.6-3.695-6.827-2.337-7.83 1.391-1.028 4.517-.674 7.785-.304 2.437.276 4.954.561 6.836.286.65-.095 1.47-.055 2.24.057.777.113 1.508.302 1.959.503 2.778-4.792 7.9-10.54 13.715-16.242 8.853-8.681 19.316-17.263 25.532-22.19a.186.186 0 0 1 .252.02l10.428 11.195c.064.07.066.175.008.245-2.118 2.85-6.135 6.442-10.778 9.952-5.04 3.812-10.826 7.532-15.726 10.104m-7.91 13.287c2.596-3.555 5.173-8.06 7.596-13.498a.2.2 0 0 1 .084-.089c4.89-2.562 10.683-6.285 15.731-10.102 4.555-3.443 8.498-6.959 10.616-9.759l-10.205-10.955c-6.224 4.936-16.586 13.446-25.366 22.056-5.853 5.74-11 11.523-13.74 16.313a.187.187 0 0 1-.25.071c-.388-.21-1.16-.419-2-.541-.737-.107-1.52-.146-2.133-.056-1.928.281-4.47-.007-6.93-.285-3.194-.362-6.25-.708-7.522.232-1.176.869-.819 2.931 2.415 7.308 1.16 1.57 2.423 3.239 4.198 4.596 1.77 1.353 4.056 2.403 7.274 2.753h12.136c2.611-1.613 5.363-4.301 8.095-8.044"/><path fill="#002933" d="M62.775 68.631a.187.187 0 0 1 .372.025l-.2 3.001a.187.187 0 0 1-.372-.025z"/><path fill="#002933" fill-rule="evenodd" d="m107.462 35.712-5.214-5.597c2.994-2.653 10.935-6.98 13.343-5.963.838.354-.997 2.006-3.549 5.78-1.666 2.461-.054 5.595-4.58 5.78" clip-rule="evenodd"/><path fill="#B8BFF6" fill-rule="evenodd" d="M47.18 46.167c-2.815-3.62-14.57-2.31-18.437-1.076-2.525-.29-9.48 2.12-8.68 4.376-.742.556-.812 1.782-.26 2.023-.642.893-.142 2.188 1.177 1.287 1.524-1.04 3.858-2.249 4.587-2.388-.397 1.2-2.365 1.052-2.224 2.869 1.672-.044 4.406-1.893 6.323-3.875l9.828 1.364-3.56 6.903 6.855 3.659c4.56-7.802 5.88-13.227 4.39-15.142" clip-rule="evenodd"/><path fill="#002933" d="M41.527 50.84a.187.187 0 1 1-.052.37l-9.708-1.347a.187.187 0 1 1 .051-.37z"/><path fill="#13BF89" fill-rule="evenodd" d="m35.935 57.65-1.24 2.083 7.168 3.72 1.155-2.48z" clip-rule="evenodd"/><path fill="#002933" d="M26.175 50.358c.966-2.194-.663-5.33-2.756-6.107C11.505 39.828-2.196 64.365.372 85.487c1.788 4.844 4.328.538 9.936 4.99 3.722 2.955 6.837-2.761 10.198 2.815 4.748-1.516 7.964-15.379 9.38-29.198.36-3.5-4.43-9.701-3.71-13.736"/><path fill="#002933" d="M.373 83.597a.186.186 0 0 1-.373 0c.008-22.026 6.098-33.878 12.406-38.794 2.032-1.583 4.089-2.45 5.978-2.71 1.902-.261 3.635.094 5.002.957 2.137 1.35 3.377 3.93 2.975 7.33a.187.187 0 1 1-.371-.044c.383-3.243-.785-5.696-2.802-6.97-1.295-.817-2.941-1.153-4.755-.904-1.826.251-3.821 1.095-5.798 2.635C6.401 49.956.38 61.709.373 83.597"/><path fill="#13BF89" fill-rule="evenodd" d="m46.922 75.692-7.017-5.866-6.18 5.157c-3.401-8.578-6.367-11.032-.653-14.668 8.456-3.942 20.63 5.965 25.662 7.138-.2 3.76-5.572 10.465-7.757 11.58-1.643.838-2.18-1.191-4.055-3.34" clip-rule="evenodd"/><path fill="#B8BFF6" fill-rule="evenodd" d="M28.378 56.214c-.875-.07-3.1 1.974-3.035 2.61 1.972 1.69 3.551 3.695 4.79 5.23 1.527-.434 4.29-2.575 4.896-3.724-2.075-.088-5.129-2.402-6.651-4.116" clip-rule="evenodd"/><path fill="#002933" d="M29.906 64.28a.187.187 0 0 1-.038-.37c.655-.068 1.56-.574 2.43-1.21 1.132-.83 2.191-1.872 2.574-2.47a.187.187 0 0 1 .315.201c-.404.63-1.502 1.715-2.669 2.57-.917.67-1.884 1.205-2.612 1.28"/><path fill="#B8BFF6" fill-rule="evenodd" d="M25.355 58.82c-.724 2.64-4.704.524-2.58-1.092 1.904-.785.063-2.97-.29-4.51 1.242-.095 2.513-.781 3.69-2.86 2.654.828 6.132 4.334 3.819 7.205-1.078 1.337-2.251 1.843-4.64 1.258" clip-rule="evenodd"/><path fill="#B8BFF6" fill-rule="evenodd" d="M22.86 54.262c-.159-.364-.3-.718-.374-1.043 1.24-.096 2.512-.782 3.69-2.86q.124.039.252.086c-.14.5-.363 1.019-.67 1.524-.793 1.306-1.927 2.16-2.899 2.293" clip-rule="evenodd"/><path fill="#002933" d="M25.296 58.997a.186.186 0 0 1 .118-.354c.481.16 1.01.3 1.555.314a2.96 2.96 0 0 0 1.646-.43.186.186 0 1 1 .193.319c-.622.376-1.247.5-1.848.485-.592-.016-1.155-.164-1.664-.335m-2.08-.141a.187.187 0 0 1-.344-.146q.02-.047.044-.092a.96.96 0 0 1 .499-.462c.216-.082.475-.08.765.043q.056.024.113.054a.187.187 0 0 1-.061.353q-.154.018-.267.065a.6.6 0 0 0-.184.114.187.187 0 0 1-.26-.268.6.6 0 0 0-.275.275z"/><path fill="#606ED0" fill-rule="evenodd" d="M25.588 56.893a.526.526 0 0 1 .686-.265c.256.115.365.42.242.682a.526.526 0 0 1-.685.265.507.507 0 0 1-.243-.682m2.914-3.859c.112-.235.386-.346.61-.247.226.098.317.37.205.604a.48.48 0 0 1-.611.248c-.225-.099-.316-.37-.204-.605" clip-rule="evenodd"/><path fill="#002933" d="M27.407 54.678a.187.187 0 1 1-.225-.298c.226-.171.45-.167.619-.074a.53.53 0 0 1 .277.438.52.52 0 0 1-.31.502.186.186 0 0 1-.167-.333c.077-.038.107-.095.104-.147a.17.17 0 0 0-.083-.133c-.05-.028-.126-.023-.215.045m-1.215-2.063a.187.187 0 0 1-.331-.17c.166-.322.357-.597.596-.804.247-.214.54-.353.903-.393a.187.187 0 0 1 .04.371 1.25 1.25 0 0 0-.7.304c-.198.172-.362.41-.508.692m-1.725 2.693a.186.186 0 1 1-.373 0c0-.316.122-.736.349-1.116a2.2 2.2 0 0 1 .795-.805.186.186 0 1 1 .181.326c-.273.152-.495.4-.656.67-.192.323-.296.67-.296.925m3.4 1.462a.186.186 0 1 1 .247-.279q.137.118.25.116a.3.3 0 0 0 .183-.073.6.6 0 0 0 .165-.23.92.92 0 0 0 .033-.635.187.187 0 0 1 .357-.112c.097.307.065.636-.048.896a1 1 0 0 1-.268.369.65.65 0 0 1-.424.158.75.75 0 0 1-.495-.21m-2.874-.154a.187.187 0 0 1-.042-.371c.36-.042.7-.253.948-.55.245-.295.397-.672.382-1.054a.186.186 0 0 1 .373-.013c.018.476-.168.943-.469 1.305-.306.368-.735.63-1.192.683"/><path fill="#002933" d="M25.15 56.845a.187.187 0 0 1-.261-.267 1.2 1.2 0 0 0 .205-.265.186.186 0 1 1 .323.187 1.7 1.7 0 0 1-.267.344"/><path fill="#002933" d="M25.57 56.768a.187.187 0 1 1-.328-.18 1.2 1.2 0 0 0 .12-.313.187.187 0 1 1 .364.086 1.7 1.7 0 0 1-.156.407m1.579-2.66a.186.186 0 1 1-.105-.358c.375-.11.674-.334.86-.62.18-.28.253-.62.18-.976a.187.187 0 0 1 .366-.074c.093.455 0 .892-.232 1.25a1.9 1.9 0 0 1-1.07.778"/><path fill="#002933" d="M28.351 51.893a.187.187 0 0 1 .344.146 1.6 1.6 0 0 1-.226.373.186.186 0 1 1-.29-.232 1.3 1.3 0 0 0 .172-.287"/><path fill="#002933" d="M28.488 52.22a.187.187 0 1 1 .286.24 1.5 1.5 0 0 1-.323.291.187.187 0 0 1-.212-.306 1.3 1.3 0 0 0 .249-.226"/><path fill="#B8BFF6" fill-rule="evenodd" d="M68.291 78.504c-7.004-1.634-12.284-3.168-19.111-2.852l-9.274-5.826-6.18 5.157c2.21 2.49 7.197 6.861 10.942 8.018h23.341c1.651.94 3.558.864 4.583.597 2.629.803 3.971.69 4.17-.054.98.109 2.19.092 2.198-1.322.513.045 1.187-.049 1.322-1.371-4.52-.59-7.71-2.528-11.99-2.347" clip-rule="evenodd"/><path fill="#002933" d="M73.563 80.156a.187.187 0 0 1 .105-.358c.714.21 1.933.442 3.24.614 1.154.15 2.373.254 3.374.252a.186.186 0 0 1 0 .373c-1.019.002-2.255-.103-3.422-.255-1.327-.175-2.567-.412-3.297-.626m-.383.923a.187.187 0 0 1 .156-.34c.71.325 1.708.677 2.82.933.896.206 1.862.35 2.806.364a.186.186 0 0 1-.004.373 14 14 0 0 1-2.886-.373 16 16 0 0 1-2.891-.957m-.291 1.394a.187.187 0 0 1 .151-.34c.444.197 1.246.467 2.05.66.619.149 1.235.251 1.685.24a.187.187 0 0 1 .01.373c-.485.012-1.135-.095-1.78-.25-.83-.2-1.657-.478-2.117-.683M38.331 68.63a.187.187 0 0 1 .253-.275l1.436 1.322 7.274 4.57a.187.187 0 0 1-.199.315l-7.281-4.574a.2.2 0 0 1-.035-.025z"/><path fill="#002933" d="M33.845 75.125a.187.187 0 1 1-.24-.286l6.18-5.157a.187.187 0 0 1 .24.287z"/><path fill="#90D470" fill-rule="evenodd" d="M15.375 61.544c-3.468 1.494-4.244 32.285 12.143 35.624l.713 19.735h8.1c-1.532-7.944 1.106-34.694-4.338-48.49-2.706-6.857-8.182-10.505-16.618-6.87m75.753-.922c16.061-1.955 11.907 31.237 1.246 33.704l.14 22.577H85.54c1.523-11.549-4.378-51.02 5.587-56.28" clip-rule="evenodd"/><path fill="#002933" d="M84.943 95.73a.186.186 0 0 1 .003.373l-48.806.528a.186.186 0 0 1-.002-.372z"/><path fill="#002933" d="M98.75 63.2a.187.187 0 0 1-.282.245 9.2 9.2 0 0 0-1.578-1.453c-1.528-1.093-3.124-1.429-4.533-1.322-1.407.107-2.624.652-3.398 1.325a3.3 3.3 0 0 0-.519.56c-4.595 6.416-3.876 22.763-2.798 47.291.077 1.765.157 3.573.238 5.471a.187.187 0 1 1-.372.014c-.079-1.833-.16-3.673-.239-5.468-1.081-24.607-1.802-41.006 2.868-47.526q.23-.322.578-.624c.828-.72 2.124-1.303 3.614-1.416 1.488-.113 3.172.24 4.779 1.392.56.4 1.11.9 1.642 1.512m-83.295-1.488a.187.187 0 1 1-.16-.338c1.438-.686 2.81-1.123 4.11-1.344 2.92-.496 5.469.101 7.571 1.418 2.097 1.313 3.746 3.339 4.875 5.705a18.2 18.2 0 0 1 1.495 4.766c.893 5.254 1.791 10.772 2.426 17.726.633 6.949 1.002 15.326.834 26.297a.186.186 0 1 1-.373-.005c.168-10.957-.2-19.321-.833-26.259-.632-6.932-1.53-12.446-2.423-17.698a17.8 17.8 0 0 0-1.464-4.667c-1.1-2.306-2.702-4.278-4.735-5.55-2.027-1.27-4.487-1.845-7.312-1.365-1.264.215-2.604.642-4.01 1.313"/><path fill="#A1D45A" d="M96.195 7c-.648 4.602-2.916 6.51-6.195 6.655q5.508.673 6.195 6.658.68-5.985 6.192-6.658c-3.308-.146-5.544-2.053-6.192-6.655m30.806 14c-.418 3.11-1.883 4.4-4.001 4.499q3.558.455 4.001 4.501.44-4.046 3.999-4.501c-2.137-.099-3.58-1.388-3.999-4.499" style="mix-blend-mode:multiply"/></g><defs><clipPath id="a"><path fill="#fff" d="M0 0h160v130H0z"/></clipPath></defs></svg>