<svg xmlns="http://www.w3.org/2000/svg" width="72" height="99" fill="none"><path fill="#F1E4C9" d="M88.237 55.942c-2.737-4.81-5.884-9.504-7.696-14.394-2.04-5.519-2.39-11.323-4.104-16.9-1.522-4.94-3.855-9.73-7.433-13.513S60.515 4.611 55.257 4.25c-7.121-.49-13.901 3.347-18.978 8.273-2.67 2.591-5.006 5.485-7.65 8.098-2.567 2.535-5.495 4.253-8.453 6.23-6.275 4.195-14.517 4.629-21.39 7.525-8.329 3.51-15.066 10.477-18.186 18.811-1.664 4.434-2.286 9.522-.238 13.797C-16.42 73.712-7.8 76.205-.216 75.92c7.583-.287 15.041-2.58 22.62-2.2 7.003.354 13.662 2.967 19.986 5.925s12.503 6.308 19.204 8.31c6.701 2 14.137 2.557 20.6-.095 5.34-2.19 9.88-6.95 10.951-12.618 1.33-7.028-1.465-13.255-4.908-19.299M-.668 30.722c-2.517.936-5.333 1.4-7.898.572a7.62 7.62 0 0 1-4.17-3.233 6.5 6.5 0 0 1-.703-5.172 5.7 5.7 0 0 1 1.34-2.302 5.75 5.75 0 0 1 2.24-1.45c1.551-.52 3.24-.3 4.88-.271a20 20 0 0 0 8.965-1.98c.902-.437 1.8-.95 2.795-1.072a3.83 3.83 0 0 1 2.203.43 3.8 3.8 0 0 1 1.58 1.588c1.11 2.211-.523 4.59-1.907 6.253a22.4 22.4 0 0 1-5.578 4.82 22 22 0 0 1-3.747 1.817"/><path fill="#DBBC78" d="M60.184 71.515c.853.457 1.885.504 2.824.274a6.2 6.2 0 0 0 1.527-.629c.403-.228.84-.727 1.312-.643 1.106.195 2.184.395 3.322.259 1.226-.148 2.454-.706 3.166-1.716q.228-.328.382-.697c.25-.63.386-1.298.403-1.975.044-.931-.066-1.904-.554-2.689-.49-.784-1.427-1.359-2.352-1.194a2.24 2.24 0 0 0-1.344-3.573 12 12 0 0 0-.26-2.352 4 4 0 0 0-1.135-2.038 3.32 3.32 0 0 0-3.162-.627 4.08 4.08 0 0 0-2.417 2.206 5.34 5.34 0 0 0-.32 3.3 2.885 2.885 0 0 0-1.419 4.588 7 7 0 0 0-.61.707c-.695.916-1.176 1.992-1.248 3.131-.077 1.445.608 2.982 1.885 3.668"/><path fill="#CFAD65" d="M60.184 71.514c.853.457 1.885.504 2.824.274a6.2 6.2 0 0 0 1.527-.628c.403-.229.84-.728 1.312-.644 1.106.195 2.184.395 3.322.26 1.226-.149 2.454-.706 3.166-1.716q.228-.328.382-.697a5.44 5.44 0 0 1-6.957-.672 5.66 5.66 0 0 1-4.61-1.018 5.6 5.6 0 0 1-1.596-1.954c-.696.915-1.176 1.992-1.248 3.131-.084 1.442.601 2.979 1.878 3.664"/><path fill="#C09A47" d="M63.06 65.43a.04.04 0 0 1 .019-.015.04.04 0 0 1 .045.018l.004.013q0 .008-.002.014a2.43 2.43 0 0 0-.032 1.32q.077.31.244.585.158.27.386.486.057.051.116.1t.124.088q.128.082.266.143c.089.044.18.079.27.118l.28.115q.188.075.39.145l.03-.748.034-1.186V65.44a68 68 0 0 0-.184-4.772.09.09 0 0 1 .067-.094.1.1 0 0 1 .069.01.1.1 0 0 1 .042.056c.296 1.167.534 2.352.726 3.543l.045-.044a1 1 0 0 1 .247-.178q.14-.066.257-.168.115-.098.205-.22.098-.122.168-.264c.101-.198.147-.42.133-.642q-.001-.01.004-.02a.04.04 0 0 1 .014-.015.037.037 0 0 1 .05.014c.127.23.178.493.147.754a1.8 1.8 0 0 1-.09.393q-.073.194-.184.368a4 4 0 0 1-.239.336.86.86 0 0 1-.322.244 1.3 1.3 0 0 1-.336.09l.077.541.143 1.202.127 1.22.076 1.21.047 1.213c0 .405.02.81.037 1.217l.025 1.22q-.001.606-.048 1.216c-.03.405-.095.808-.169 1.208l-.12.598q-.064.3-.133.596c-.104.395-.213.788-.336 1.176s-.27.773-.425 1.154q-.244.574-.546 1.12a.1.1 0 0 1-.07.046.096.096 0 0 1-.107-.082 12 12 0 0 1-.087-1.23 26 26 0 0 1-.02-1.206c.005-.398 0-.796.015-1.191 0-.198.01-.395.013-.593l.029-.588q.019-.59.08-1.176c.043-.392.081-.78.14-1.176l.16-1.176c.043-.392.085-.783.116-1.176l.063-1.022a2.5 2.5 0 0 1-.562-.047 1.8 1.8 0 0 1-.723-.317 3 3 0 0 1-.56-.553 2.7 2.7 0 0 1-.392-.663 2.5 2.5 0 0 1-.168-.74 2.4 2.4 0 0 1 .326-1.4"/><path fill="#fff" d="M68.08 60.645c0 .374.2.672.449.672.248 0 .45-.303.45-.672s-.202-.672-.45-.672c-.249 0-.449.297-.449.672m-3.231-2.598c.248 0 .448-.303.448-.677 0-.373-.2-.677-.448-.677s-.449.303-.449.677.201.677.449.677m1.966-1.127c.141 0 .255-.172.255-.385 0-.212-.114-.385-.255-.385s-.255.173-.255.385.114.385.255.385M64.4 59.643c0 .211.115.384.254.384.14 0 .255-.168.255-.385 0-.216-.114-.384-.255-.384s-.254.171-.254.384m3.03-1.218c0 .146.08.264.169.264s.168-.118.168-.264-.08-.262-.168-.262c-.09 0-.168.118-.168.262" opacity=".3" style="mix-blend-mode:overlay"/><path fill="#DBBC78" d="M69.8 79.03a1.11 1.11 0 0 0-.944-.218c.308-.558.61-1.14.672-1.773s-.178-1.344-.73-1.65c-.588-.336-1.37-.126-1.865.336-.496.462-.753 1.12-.928 1.771a.681.681 0 0 0-1.343-.087 3.7 3.7 0 0 0-.496-1.049 1.25 1.25 0 0 0-.985-.534c-.463.015-.858.393-1.008.832a2.5 2.5 0 0 0-.01 1.372.79.79 0 0 0-.853-.319c.012-.574.02-1.176-.208-1.698-.229-.523-.761-.971-1.333-.903-.57.07-.947.565-1.159 1.077a3.55 3.55 0 0 0-.02 2.628 1.07 1.07 0 0 0-1.238 0 1.01 1.01 0 0 0-.36 1.142H70.25a1.23 1.23 0 0 0-.448-.927"/><path fill="#DBBC78" d="M68.232 79.477a.57.57 0 0 0-.486-.112 2.4 2.4 0 0 0 .345-.913.88.88 0 0 0-.377-.84.84.84 0 0 0-.96.168c-.24.254-.404.57-.475.91a.351.351 0 0 0-.693-.043 1.9 1.9 0 0 0-.254-.539.63.63 0 0 0-.504-.276.61.61 0 0 0-.52.427 1.3 1.3 0 0 0 0 .707.41.41 0 0 0-.44-.168 2.1 2.1 0 0 0-.107-.873.71.71 0 0 0-.685-.464c-.284.034-.49.29-.597.553-.176.433-.18.917-.01 1.352a.55.55 0 0 0-.636 0 .52.52 0 0 0-.187.588h6.821a.63.63 0 0 0-.235-.477" style="mix-blend-mode:multiply"/><path fill="#DBBC78" d="M1.312 79.03a1.11 1.11 0 0 1 .944-.219c-.308-.558-.61-1.139-.672-1.772-.062-.634.178-1.344.73-1.65.589-.336 1.37-.126 1.866.336.495.462.752 1.119.927 1.77a.682.682 0 0 1 1.344-.087c.109-.373.276-.727.495-1.048a1.25 1.25 0 0 1 .99-.538c.464.016.858.394 1.008.832.13.448.134.923.01 1.373a.79.79 0 0 1 .854-.32c-.012-.574-.02-1.176.208-1.698.228-.523.76-.971 1.332-.902.571.069.948.564 1.16 1.077a3.55 3.55 0 0 1 .02 2.627 1.07 1.07 0 0 1 1.238 0 1.01 1.01 0 0 1 .36 1.142H.867a1.23 1.23 0 0 1 .444-.924"/><path fill="#DBBC78" d="M2.88 79.477a.57.57 0 0 1 .486-.112 2.4 2.4 0 0 1-.336-.913.88.88 0 0 1 .377-.84.84.84 0 0 1 .959.168c.24.254.405.57.475.91a.351.351 0 0 1 .694-.043q.083-.29.254-.539a.63.63 0 0 1 .504-.276.61.61 0 0 1 .52.427c.066.231.066.476 0 .707a.41.41 0 0 1 .44-.168c-.027-.295.01-.593.107-.873a.71.71 0 0 1 .685-.464c.282.034.489.29.597.553.176.433.18.917.01 1.352a.55.55 0 0 1 .636 0 .52.52 0 0 1 .185.588H2.652a.63.63 0 0 1 .229-.477" style="mix-blend-mode:multiply"/><path fill="#DBBC78" d="M20.278 70.545c-.88 1.06-2.288 1.574-3.664 1.644-1.151.06-2.292-.16-3.4-.447-.204-.053-.491-.201-.7-.198s-.525.19-.742.274q-.78.306-1.59.526a8.7 8.7 0 0 1-1.799.29c-1.107.052-2.266-.193-3.178-.797a3.718 3.718 0 0 1 1.7-6.823 6.065 6.065 0 1 1 10.046-2.108c.55-.256 1.247-.316 1.722.057.476.373.493 1.263-.06 1.512q.37.13.706.336a3.835 3.835 0 0 1 .959 5.735z"/><path fill="#CFAD65" d="M20.277 70.545c-.88 1.06-2.288 1.574-3.664 1.645-1.15.059-2.291-.16-3.4-.447-.204-.054-.49-.201-.7-.198-.207.003-.525.19-.742.274q-.78.305-1.59.525a8.7 8.7 0 0 1-1.798.291c-1.107.052-2.267-.193-3.179-.798a12 12 0 0 0 2.246-.126c1.947-.306 3.886-1.285 4.872-2.99 1.107.109 2.23.201 3.33.032 1.1-.17 2.196-.625 2.93-1.465a3.22 3.22 0 0 0 .806-1.895 3.4 3.4 0 0 0-.07-.588 3.835 3.835 0 0 1 .96 5.735z"/><path fill="#C09A47" d="M14.772 66.254a.04.04 0 0 0-.017-.014.04.04 0 0 0-.022 0 .035.035 0 0 0-.022.042c.12.39.13.805.03 1.2a2 2 0 0 1-.223.533 2 2 0 0 1-.351.442q-.052.048-.106.092a1.8 1.8 0 0 1-.354.21c-.081.039-.168.072-.247.108l-.256.105q-.17.069-.354.132l-.027-.68-.03-1.081V66.26c0-1.445.067-2.891.168-4.345a.08.08 0 0 0-.063-.085.08.08 0 0 0-.099.06 37 37 0 0 0-.662 3.226l-.04-.04a1 1 0 0 0-.225-.168 1 1 0 0 1-.24-.142 1.3 1.3 0 0 1-.187-.201 1.2 1.2 0 0 1-.151-.24 1.14 1.14 0 0 1-.12-.583.04.04 0 0 0-.005-.018.03.03 0 0 0-.013-.013l-.012-.004a.03.03 0 0 0-.033.016 1.15 1.15 0 0 0-.135.687q.022.184.083.358.065.177.168.336.1.161.218.307a.8.8 0 0 0 .293.222q.145.063.302.083-.04.246-.07.493l-.132 1.094-.105 1.099-.068 1.102-.043 1.104c0 .368-.019.737-.034 1.107l-.023 1.11q0 .555.045 1.11c.028.369.086.733.146 1.098l.11.546c.041.18.078.361.122.54q.14.54.304 1.073c.11.354.247.704.388 1.05q.225.523.504 1.02a.1.1 0 0 0 .064.041.08.08 0 0 0 .064-.016.08.08 0 0 0 .032-.057q.068-.558.08-1.121.024-.555.019-1.097c-.004-.361 0-.726-.014-1.085 0-.18-.01-.36-.013-.54l-.025-.536a16 16 0 0 0-.074-1.07 25 25 0 0 0-.126-1.063l-.146-1.067a35 35 0 0 1-.106-1.07l-.059-.93q.255.007.504-.044c.238-.047.463-.145.659-.288q.284-.219.504-.504.222-.276.356-.605.127-.324.153-.672a2.2 2.2 0 0 0-.284-1.285"/><path fill="#fff" d="M9.065 60.856c0 .538-.336.973-.75.973-.413 0-.749-.435-.749-.973s.336-.971.75-.971c.413 0 .749.435.749.971m1.164-3.204c.271 0 .492-.286.492-.639 0-.352-.22-.638-.492-.638s-.493.286-.493.638.22.639.493.639m1.321.974a.277.277 0 0 1-.363.189.276.276 0 0 1 .098-.534.31.31 0 0 1 .265.345m-4.026 3.91a.275.275 0 1 1-.26-.346.313.313 0 0 1 .26.346m.381-4.254a.15.15 0 1 1-.144-.188.17.17 0 0 1 .144.188m3.449-1.266c.164 0 .296-.173.296-.385s-.132-.385-.296-.385-.295.172-.295.385c0 .212.132.385.295.385" opacity=".3" style="mix-blend-mode:overlay"/><path fill="#DBBC78" d="M57.296 28.354H14.305v9.295h42.99z"/><path fill="#DBBC78" d="M57.296 28.354H14.305v.77h42.99z" style="mix-blend-mode:multiply"/><path fill="#DBBC78" d="M56.985 25.207H14.613v2.18h42.372z"/><path fill="#DBBC78" d="M56.985 25.207H14.613v.41h42.372z" style="mix-blend-mode:multiply"/><path fill="#B48F4B" d="M57.817 26.941H13.782a.23.23 0 0 0-.228.229v1.277c0 .126.102.228.228.228h44.035a.23.23 0 0 0 .228-.228V27.17a.23.23 0 0 0-.228-.229m.018-3.431H13.764a.21.21 0 0 0-.21.21v1.314c0 .116.094.21.21.21h44.071a.21.21 0 0 0 .21-.21V23.72a.21.21 0 0 0-.21-.21"/><path fill="#DBBC78" d="M57.294 49.402H15.111v30.541h42.183z"/><path fill="#C7A355" d="M57.592 75.361H14.815a.247.247 0 0 0-.247.247V79.7c0 .136.11.247.247.247h42.777c.136 0 .246-.11.246-.247v-4.09a.247.247 0 0 0-.246-.248"/><path fill="#D2C29F" d="M57.295 49.402v3.952h-.11a1.79 1.79 0 0 1-1.786-1.79 1.787 1.787 0 0 1-1.787 1.79h-.484a1.79 1.79 0 0 1-1.788-1.79 1.787 1.787 0 0 1-1.785 1.79h-.484a1.79 1.79 0 0 1-1.79-1.79 1.787 1.787 0 0 1-1.785 1.79h-.482a1.79 1.79 0 0 1-1.786-1.79 1.787 1.787 0 0 1-1.788 1.79h-.482a1.79 1.79 0 0 1-1.787-1.79 1.79 1.79 0 0 1-1.786 1.79H36.9a1.79 1.79 0 0 1-1.786-1.79 1.79 1.79 0 0 1-1.787 1.79h-.483a1.79 1.79 0 0 1-1.789-1.79 1.787 1.787 0 0 1-1.784 1.79h-.482a1.79 1.79 0 0 1-1.788-1.79 1.787 1.787 0 0 1-1.785 1.79h-.481a1.79 1.79 0 0 1-1.786-1.79 1.787 1.787 0 0 1-1.787 1.79h-.483a1.79 1.79 0 0 1-1.787-1.79 1.79 1.79 0 0 1-1.786 1.79h-.484a1.79 1.79 0 0 1-1.512-.827v-3.125z" style="mix-blend-mode:multiply"/><path fill="#E09764" d="M27.852 55.389H17.255v21.677h10.597z"/><path fill="#F2F1D0" d="M27.275 55.967h-9.442V76.49h9.442z"/><path fill="#fff" d="M27.275 55.967v.831l-5.467 19.69h-2l5.7-20.521z" opacity=".5" style="mix-blend-mode:overlay"/><path fill="#E09764" d="M27.275 66.436h-1.462a.208.208 0 0 1-.193-.288.21.21 0 0 1 .193-.128h1.462zM55.15 55.389H29.428v14.066H55.15z"/><path fill="#F2F1D0" d="M54.477 55.965H30.102v12.91h24.375z"/><path fill="#fff" d="m39.878 55.965-3.39 12.91h-1.095l3.388-12.91zm9.264 0-3.389 12.91h-1.099l3.392-12.91z" opacity=".5" style="mix-blend-mode:overlay"/><path fill="#B55134" d="M29.49 78.438H15.618v1.505h13.874z"/><path fill="#CE6F54" d="M29.49 78.437H15.618l.615-.36h12.644z"/><path fill="#B55134" d="M28.476 77.227H16.632v.851h11.844z"/><path fill="#CE6F54" d="M28.476 77.225H16.632l.526-.203H27.95z"/><path fill="#F2F1D0" d="M14.438 48.678h-3.959l1.98-10.604h3.654z"/><path fill="#CE6F54" d="M18.396 48.678h-3.959l1.676-10.604h3.652z"/><path fill="#F2F1D0" d="M22.352 48.678h-3.957l1.37-10.604h3.652z"/><path fill="#CE6F54" d="M26.31 48.678h-3.958l1.065-10.604h3.654z"/><path fill="#F2F1D0" d="M30.267 48.678H26.31l.76-10.604h3.653z"/><path fill="#CE6F54" d="M34.225 48.678h-3.958l.457-10.604h3.652z"/><path fill="#F2F1D0" d="M38.183 48.678h-3.958l.15-10.604h3.655z"/><path fill="#CE6F54" d="M42.139 48.678h-3.957l-.153-10.604h3.653z"/><path fill="#F2F1D0" d="M46.097 48.678h-3.958l-.457-10.604h3.654z"/><path fill="#CE6F54" d="M50.053 48.678h-3.956l-.761-10.604h3.652z"/><path fill="#F2F1D0" d="M54.012 48.678h-3.959l-1.065-10.604h3.653z"/><path fill="#CE6F54" d="M57.968 48.678H54.01l-1.37-10.604h3.654z"/><path fill="#F2F1D0" d="M61.926 48.678h-3.958l-1.673-10.604h3.652z"/><path fill="#E5D995" d="M10.481 48.676h3.957v1.651a1.68 1.68 0 0 1-1.68 1.68h-.588a1.68 1.68 0 0 1-1.68-1.68v-1.651z"/><path fill="#B55134" d="M14.438 48.678h3.958v1.651a1.68 1.68 0 0 1-1.68 1.68h-.588a1.68 1.68 0 0 1-1.68-1.68v-1.651z"/><path fill="#E5D995" d="M18.396 48.678h3.958v1.651a1.68 1.68 0 0 1-1.68 1.68h-.588a1.68 1.68 0 0 1-1.68-1.68v-1.651z"/><path fill="#B55134" d="M22.353 48.678h3.958v1.651a1.68 1.68 0 0 1-1.68 1.68h-.588a1.68 1.68 0 0 1-1.68-1.68v-1.651z"/><path fill="#E5D995" d="M26.31 48.678h3.959v1.651a1.68 1.68 0 0 1-1.68 1.68H28a1.68 1.68 0 0 1-1.68-1.68v-1.651z"/><path fill="#B55134" d="M30.267 48.678h3.958v1.651a1.68 1.68 0 0 1-1.68 1.68h-.588a1.68 1.68 0 0 1-1.68-1.68v-1.651z"/><path fill="#E5D995" d="M34.225 48.678h3.951v1.651a1.68 1.68 0 0 1-1.68 1.68h-.588a1.68 1.68 0 0 1-1.68-1.68v-1.651z"/><path fill="#B55134" d="M38.176 48.678h3.958v1.651a1.68 1.68 0 0 1-1.68 1.68h-.588a1.68 1.68 0 0 1-1.68-1.68v-1.651z"/><path fill="#E5D995" d="M42.139 48.678h3.958v1.651a1.68 1.68 0 0 1-1.68 1.68h-.588a1.68 1.68 0 0 1-1.68-1.68v-1.651z"/><path fill="#B55134" d="M46.098 48.678h3.956v1.651a1.68 1.68 0 0 1-1.68 1.68h-.588a1.68 1.68 0 0 1-1.68-1.68v-1.651z"/><path fill="#E5D995" d="M50.054 48.678h3.958v1.651a1.68 1.68 0 0 1-1.68 1.68h-.588a1.68 1.68 0 0 1-1.68-1.68v-1.651zm7.914 0h3.958v1.651a1.68 1.68 0 0 1-1.68 1.68h-.588a1.68 1.68 0 0 1-1.68-1.68v-1.651z"/><path fill="#B55134" d="M54.012 48.678h3.958v1.651a1.68 1.68 0 0 1-1.68 1.68h-.588a1.68 1.68 0 0 1-1.68-1.68v-1.651z"/><path fill="#F2F1D0" d="M61.926 48.676H10.48l.028-.15c8.333-.127 16.698-.38 24.864-2.044a62.4 62.4 0 0 0 8.53-2.352c4.157-1.485 8.16-3.47 11.744-6.048h4.31z" style="mix-blend-mode:multiply"/><path fill="#CE6F54" d="M59.963 38.255H12.441a.433.433 0 0 1-.307-.74.43.43 0 0 1 .307-.128h47.522a.435.435 0 0 1 0 .868"/><path fill="#E09764" d="M56.112 30.201H15.965v5.601h40.147z"/><path fill="#F2F1D0" d="M55.534 30.713H16.543v4.576h38.991z"/><path fill="#F2F1D0" d="M16.543 30.713v.33h38.66v4.246h.331v-4.576z" style="mix-blend-mode:multiply"/><path fill="#fff" d="m36.656 30.713-2.312 4.576h-1.792l2.311-4.576zm7.947 0-2.309 4.576h-.826l2.311-4.576z" opacity=".5" style="mix-blend-mode:overlay"/><path fill="#DBBC78" d="M52.78 71.522h-3.454v1.214h3.454zm-2.875 1.902h-3.454v1.214h3.454zm-6.284-3.277h-3.454v1.214h3.454zm-26.783-9.479h-1.727v1.215h1.727zm.417 7.156h-1.4v1.215h1.4zm40.04-14.177h-1.912v1.214h1.912z" style="mix-blend-mode:multiply"/><path fill="#F9A66A" d="M53.548 76.445h-1.861v.676h1.861zm-6.165 1.323h-1.861v.673h1.86zm-1.182-.905H44.34v.674h1.86zm-3.263 1h-1.862v.674h1.862zm-12.517-2.048H28.56v.673h1.861z" style="mix-blend-mode:multiply"/><path fill="#B55134" d="M10.187 69.423h-.57V47.954a2.15 2.15 0 0 0-4.302 0v.963h-.57v-.963a2.72 2.72 0 1 1 5.439 0z"/><path fill="#CE6F54" d="M7.795 45.803h-.168a2.15 2.15 0 0 1 1.99 2.15v21.469h.335V47.953a2.153 2.153 0 0 0-2.157-2.15"/><path fill="#F9A66A" d="M7.182 50.172a.3.3 0 0 1-.067.013H2.938a.3.3 0 0 1-.067-.013 2.817 2.817 0 1 0 4.31 0"/><path fill="#fff" d="M4.136 53.184a1.3 1.3 0 0 1-.707-.614l.01.026a1 1 0 0 1-.06-.236c0-.081.018-.157.018-.236a.284.284 0 0 0-.207-.28.29.29 0 0 0-.351.198 1.3 1.3 0 0 0 .279 1.097c.233.27.531.474.867.595a.283.283 0 0 0 .35-.199.3.3 0 0 0-.18-.335z" opacity=".3" style="mix-blend-mode:overlay"/><g style="mix-blend-mode:multiply"><path fill="#F2F1D0" d="M2.938 50.185a.3.3 0 0 1-.067-.013l-.012.013z"/><path fill="#F9A66A" d="M7.182 50.172a.3.3 0 0 1-.067.013h-.84a2.813 2.813 0 0 1-1.707 4.573 2.813 2.813 0 0 0 2.616-4.586z"/></g><path fill="#DBBC78" d="M6.476 49.61h-2.9a.84.84 0 0 1 .84-.84h1.21a.84.84 0 0 1 .84.84z"/><path fill="#9AC3B1" d="M7.116 49.313H2.938a.28.28 0 0 0-.28.28v.31c0 .154.125.28.28.28h4.178a.28.28 0 0 0 .28-.28v-.31a.28.28 0 0 0-.28-.28"/><path fill="#CE6F54" d="M9.385 69.205h1.032a.086.086 0 0 1 .086.086v.24H9.3v-.24a.085.085 0 0 1 .085-.086"/><path fill="#B55134" d="M9.55 69.45h.705a.76.76 0 0 1 .76.76v9.51H8.789v-9.51a.76.76 0 0 1 .761-.76"/><path fill="#CE6F54" d="M10.255 69.45h-.71a.76.76 0 0 1 .757.76v9.51h.716v-9.51a.763.763 0 0 0-.763-.76"/><path fill="#B55134" d="M11.746 79.58h-3.69a.181.181 0 1 0 0 .363h3.69a.182.182 0 0 0 0-.363"/><path fill="#D2B067" d="M60.78 74.631q-.075.194-.208.351a1.1 1.1 0 0 1-.486.182 11.8 11.8 0 0 1-4.47.218 1.2 1.2 0 0 1-.598-.205c-.215-.168-.292-.46-.346-.729a4 4 0 0 1-.062-.398 1.6 1.6 0 0 1 .023-.459.84.84 0 0 1 .52-.641.74.74 0 0 1 .49-1.318 3.4 3.4 0 0 1 .13-1.344 1.72 1.72 0 0 1 .851-1.018c.598-.285 1.364-.079 1.81.412a2.15 2.15 0 0 1 .455 1.861.577.577 0 0 1 .504.682q.209.004.408.064a1.65 1.65 0 0 1 1.052.914 1.7 1.7 0 0 1-.073 1.428"/><path fill="#AA7729" d="M60.78 74.632q-.075.194-.208.351a1.1 1.1 0 0 1-.486.182q-.731.178-1.48.262c-.995.112-2 .097-2.99-.044a1.2 1.2 0 0 1-.598-.205c-.215-.168-.293-.46-.346-.729a4 4 0 0 1-.063-.398c1.41.029 2.811-.217 4.127-.724.346-.106.656-.306.897-.576a.9.9 0 0 0 .168-.466 1.65 1.65 0 0 1 1.051.914 1.7 1.7 0 0 1-.072 1.433"/><path fill="#F2F1D0" d="m60.79 75.408-.137.968-.516 3.634h-4.598l-.514-3.634-.138-.968z"/><path fill="#F2F1D0" d="m60.79 75.408-.137.968h-5.628l-.138-.968z" style="mix-blend-mode:multiply"/><path fill="#F2F1D0" d="M60.961 75.991h-6.246l-.166-1.58h6.577z"/><path fill="#fff" d="M56.807 70.934c0 .258-.143.468-.319.468s-.32-.21-.32-.468c0-.26.144-.47.32-.47s.32.21.32.47m.635.554c0 .133-.072.24-.168.24-.095 0-.168-.107-.168-.24 0-.132.074-.24.168-.24s.168.11.168.24m-1.217.424c0 .133-.074.24-.168.24s-.168-.107-.168-.24.074-.24.168-.24.168.107.168.24m1.139-1.768c0 .069-.037.124-.084.124s-.086-.055-.086-.124.039-.125.086-.125.084.05.084.125" opacity=".3" style="mix-blend-mode:overlay"/><path fill="#D2B067" d="M14.594 73.924c-.006.42-.084.837-.23 1.231-.081.216-.184.567-.412.672-.292.138-.694.153-1.008.199q-1.17.168-2.352.136h-.168a2.06 2.06 0 0 1-1.144-.328 1.4 1.4 0 0 1-.181-.168 2.4 2.4 0 0 1-.474-.882 3.4 3.4 0 0 1-.168-.64 1.7 1.7 0 0 1 .025-.682c.116-.435.516-.823.964-.785a.815.815 0 0 1 1.008-1.28 1.4 1.4 0 0 1 2.559-1.026c.245.451.302.982.158 1.475a.399.399 0 0 1 .408.608.84.84 0 0 1 .433.126c.153.094.28.225.368.381.156.296.23.629.214.963"/><path fill="#CFAD65" d="M14.594 73.923c-.005.42-.083.837-.23 1.231-.08.215-.183.566-.412.672-.292.138-.693.153-1.008.198a13.6 13.6 0 0 1-2.352.136h-.168a4.2 4.2 0 0 1-1.312-.492 2.4 2.4 0 0 1-.473-.882 3.4 3.4 0 0 1-.168-.64c1.198.336 2.5.274 3.73.034.47-.093.954-.217 1.323-.523.188-.152.33-.353.412-.581.055-.155.03-.336.089-.494.152.094.28.225.368.381.15.297.22.628.201.96" style="mix-blend-mode:multiply"/><path fill="#F2F1D0" d="m14.231 75.725-.126.888-.474 3.34H9.406l-.474-3.34-.127-.888z"/><path fill="#F2F1D0" d="m14.231 75.725-.126.888H8.932l-.127-.888z" style="mix-blend-mode:multiply"/><path fill="#F2F1D0" d="M14.389 76.26H8.648l-.153-1.451h6.045z"/><path fill="#fff" d="M11.53 71.612c0 .238-.13.431-.292.431-.16 0-.294-.193-.294-.431 0-.239.131-.43.294-.43s.293.193.293.43m.586.512c0 .121-.067.22-.151.22s-.151-.099-.151-.22c0-.12.068-.222.15-.222.083 0 .152.1.152.222m-2.199.234c.119 0 .215-.141.215-.316 0-.174-.096-.315-.215-.315s-.215.141-.215.315.096.316.215.316m1.079.155c0 .122-.067.221-.152.221s-.15-.099-.15-.221c0-.123.068-.222.15-.222.083 0 .152.1.152.222m1.075-1.632c0 .086-.047.155-.106.155s-.106-.07-.106-.155c0-.086.047-.154.106-.154s.106.068.106.154" opacity=".3" style="mix-blend-mode:overlay"/><path fill="#2832EF" d="M0 0h73v99H0z" style="mix-blend-mode:soft-light"/></svg>