<svg xmlns="http://www.w3.org/2000/svg" width="16" height="9" fill="none"><path fill="#E8FBC6" d="M.633.607h14.382v6.836H.633z"/><path fill="#54B586" d="M15.588 6.235v.757l-.004-.232-.002-.003-.003-.001-.003.001-.001.003a3 3 0 0 1-.044.262c-.02.103-.032.195-.085.286a1.7 1.7 0 0 1-.403.468c-.245.2-.539.243-.848.245-.647.007-1.21 0-1.789 0l-7.876.002c-.977 0-1.956-.004-2.934 0a5 5 0 0 1-.459-.009A1.36 1.36 0 0 1 .22 7.41a.7.7 0 0 1-.09-.165c-.018-.05-.045-.172-.086-.202q-.008-.006-.014 0l-.028.016L0 1.43Q0 .68.591.238.911 0 1.321 0c3.952.007 7.897.005 11.847.01.307 0 .65-.01.976-.01q.291 0 .438.037c.562.14.947.671 1 1.233q.004.057.004.458v4.507zM2.664 2.001q-.52.825-1.518.745A1 1 0 0 1 .9 2.691q-.01-.002-.01.007l.005 2.827a.02.02 0 0 0 .023.016c.289-.062.596-.069.876.018q.229.073.403.202.71.527.71 1.421a.027.027 0 0 0 .028.03c.406-.01.837-.002 1.218-.002h8.158a9 9 0 0 1 .362.007l.008-.005.005-.007.001-.01q-.011-.801.546-1.306a1.55 1.55 0 0 1 1.453-.345.025.025 0 0 0 .02-.024V2.705q0-.011-.01-.01c-.55.13-1.101.042-1.514-.375q-.405-.406-.474-.956a3 3 0 0 1-.02-.454l-.004-.008a.02.02 0 0 0-.017-.008H2.93a.03.03 0 0 0-.03.03 2.4 2.4 0 0 1-.073.69q-.065.229-.16.383z"/><path fill="#344E5E" d="M9.472 2.597q-.24-.015-.534 0-.275-.006-.557 0a.26.26 0 0 1-.238-.119.242.242 0 0 1 .107-.36.4.4 0 0 1 .156-.02q.665-.005 1.328 0 .128 0 .185.025a.243.243 0 0 1 .129.305c-.046.114-.172.167-.292.165zm-2.682.314a.07.07 0 0 1-.039.044.1.1 0 0 1-.05.004 2 2 0 0 0-.246-.013c-.055 0-.105.02-.158.036a.02.02 0 0 1-.014-.006q-.01-.026-.011-.007l-.041-.113a.05.05 0 0 0-.02-.025.06.06 0 0 0-.033-.009c-.103 0-.234.011-.32-.014a.24.24 0 0 1-.138-.362c.064-.099.16-.117.28-.12q.457-.003.916-.002c.168 0 .275-.009.372.106.13.16-.014.364-.193.39q-.086.009-.248.004a.14.14 0 0 0-.054.013l-.005.008q-.01.022.002.069z"/><path fill="#54B586" d="M9.472 2.597q.202.562.367.954.011.023.041.02-.016 0-.018.03 0 .015.007.03.075.156.137.319c.01.027.023.036.046.053v.027l.005.018q.107.253.206.512.023.06.053.103c.053.07.128.135.16.206.14.337-.344.557-.543.28-.055-.078-.078-.211-.117-.307l-.247-.574q-.015-.033-.046-.032.027-.054.007-.091a1.7 1.7 0 0 1-.12-.287c-.011-.037-.032-.062-.07-.057q.033-.08-.058-.133-.009-.004-.016.002l-.38.413-.262.289a25 25 0 0 1-.756.813q-.014.012-.012.021l.016.023-.082-.016q-.344.014-.693.011a.2.2 0 0 0-.13.039q-.177-.053-.22.04a.13.13 0 0 1-.007-.058q0-.021-.021-.018l-.454.046q-.027-.02-.041-.019-.29.004-.58 0a2 2 0 0 0-.316.023q-.264.025-.337-.23c-.04-.13.052-.274.172-.327a.6.6 0 0 1 .185-.023q.45.012.906.007.202.036.43.032c.047 0 .051-.023.053-.06q.046.051.16.021.035-.006.024-.037-.315-.788-.62-1.584l-.029-.107q0-.019.011.007.005.009.014.006c.053-.016.103-.039.158-.036q.124 0 .246.013a.1.1 0 0 0 .05-.004.07.07 0 0 0 .04-.041.5.5 0 0 0 .21.034l.096-.002a413 413 0 0 1 1.957.003.016.016 0 0 0 .008-.022 1.5 1.5 0 0 1-.124-.332q.294-.015.534 0zm-2.425.88-.006.003-.001.007.481 1.256a.01.01 0 0 0 .006.008.01.01 0 0 0 .008-.006l1.17-1.251a.01.01 0 0 0 0-.009l-.008-.003z"/><path fill="#344E5E" d="M6.74 4.677c-.005.036-.012.06-.055.06a2 2 0 0 1-.431-.033 1 1 0 0 0-.333-.486.97.97 0 0 0-1.304.073.965.965 0 0 0 .007 1.385.97.97 0 0 0 1.031.243q.454-.18.61-.646l.454-.046q.023 0 .02.018-.001.031.008.057-.198.705-.821 1.009-.303.15-.66.138a1.4 1.4 0 0 1-.294-.05 1.5 1.5 0 0 1-.98-.812c-.455-.952.26-2.018 1.285-2.05q.394-.014.743.184c.362.206.612.55.717.956zm2.6-.876c.038-.005.059.02.068.057q.04.126.122.284.023.04-.007.094c-.18.164-.3.382-.342.622a.99.99 0 0 0 .399.917.974.974 0 0 0 1.3-.108.972.972 0 0 0-.193-1.513 1.02 1.02 0 0 0-.635-.151c-.023-.017-.037-.026-.046-.053a5 5 0 0 0-.137-.319.05.05 0 0 1-.007-.03q0-.03.018-.03.195-.044.353-.032.78.06 1.188.702.167.261.202.575a1.51 1.51 0 0 1-1.245 1.619 1.45 1.45 0 0 1-1.06-.266 1.43 1.43 0 0 1-.611-1.217c.011-.459.26-.876.632-1.151M7.871 5.227c.165.09.193.316.028.42a.32.32 0 0 1-.184.05q-.318 0-.495-.007c-.144-.005-.247-.04-.303-.17q-.05-.12.049-.257a.3.3 0 0 1 .064-.03.2.2 0 0 1 .069-.009q.344.003.69-.011.018 0 .082.016z"/><path fill="#386C69" d="M15.588 6.99q.01.465-.027.793a1.38 1.38 0 0 1-1.123 1.192c-.211.034-.535.023-.75.023q-6.006.005-12.012 0-.368 0-.459-.012a1.35 1.35 0 0 1-.745-.35 1.4 1.4 0 0 1-.399-.608 1 1 0 0 1-.062-.303q0-.335-.006-.669l.027-.016q.008-.007.014 0c.041.03.069.151.087.202a.8.8 0 0 0 .085.165 1.36 1.36 0 0 0 .919.605q.09.011.459.011c.978-.006 1.957 0 2.934 0l7.874-.002c.58 0 1.146.005 1.788 0 .312-.004.605-.048.848-.247a1.7 1.7 0 0 0 .406-.468c.053-.092.064-.183.085-.287a5 5 0 0 0 .045-.264l.003-.002q.002 0 .003.002l.002.003zM2.748 2.942l-.082.389q-.12-.12-.348-.12a.47.47 0 0 0-.37.165.54.54 0 0 0-.114.231h.771l-.045.218h-.754a2 2 0 0 0 .001.185h.714l-.045.217h-.64q.036.151.108.236.141.166.365.166a.57.57 0 0 0 .43-.166v.43a.94.94 0 0 1-.426.09.88.88 0 0 1-.673-.28.95.95 0 0 1-.237-.476h-.208l.045-.217h.138a2 2 0 0 1 .001-.185h-.184l.045-.218h.167a.96.96 0 0 1 .234-.467q.266-.283.698-.283.235 0 .41.085m11.379.039-.083.389q-.12-.12-.348-.12a.47.47 0 0 0-.37.165.54.54 0 0 0-.114.231h.772l-.045.218h-.755a2 2 0 0 0 .002.185h.714l-.045.217h-.64q.035.151.108.236.14.165.365.166a.57.57 0 0 0 .429-.166v.43a.94.94 0 0 1-.425.09.88.88 0 0 1-.673-.28.95.95 0 0 1-.237-.476h-.208l.045-.217h.137a2 2 0 0 1 .002-.185h-.184l.045-.218h.167a.96.96 0 0 1 .234-.467q.266-.283.697-.283.236 0 .41.085"/></svg>