<svg xmlns="http://www.w3.org/2000/svg" xmlns:xlink="http://www.w3.org/1999/xlink" viewBox="0 0 154 17"><defs><path id="a" d="M5.176-12.781 8.12 0h3.375l2.902-12.781V0h3.375v-16.402H12.69L9.81-3.352l-2.97-13.05H1.802V0h3.375Zm0 0"/><path id="b" d="M6.523-12.352c-3.484 0-5.625 2.52-5.625 6.59C.898-1.867 3.016.516 6.457.516c2.723 0 4.93-1.551 5.625-3.938H8.977C8.594-2.453 7.719-1.89 6.57-1.89c-2.117 0-2.453-1.55-2.52-3.195h8.145c.024-.27.024-.383.024-.539 0-5.379-3.266-6.727-5.696-6.727m2.41 5.176h-4.84c.204-1.847.993-2.77 2.387-2.77 1.461 0 2.317.993 2.454 2.77m0 0"/><path id="c" d="M3.758-3.531H.676C.766-.88 2.723.516 6.414.516c4.25 0 5.309-2.43 5.309-4.118 0-1.574-.79-2.586-2.387-3.058l-3.98-1.15c-.88-.27-1.102-.449-1.102-.945 0-.672.719-1.125 1.82-1.125 1.508 0 2.25.543 2.274 1.645h3.039c-.047-2.567-2.028-4.118-5.29-4.118-3.081 0-4.995 1.551-4.995 4.051 0 2.383 1.957 2.766 2.656 2.992l3.758 1.17c.785.25 1.058.496 1.058.993 0 .742-.879 1.191-2.34 1.191-1.98 0-2.296-.742-2.476-1.574m0 0"/><path id="d" d="M10.914-3.309 11.992 0h3.465L9.789-16.402H6.051L.227 0h3.441L4.77-3.309ZM9.988-6.12H5.715l2.137-6.41Zm0 0"/><path id="e" d="M4.727-12.148H1.574V0h3.153Zm0-4.254H1.574v2.812h3.153Zm0 0"/><path id="f" d="M6.008.516c1.508 0 2.566-.563 3.351-1.754V0h3.153v-16.402H9.359v5.828c-.785-1.215-1.843-1.778-3.351-1.778-2.903 0-5.11 2.79-5.11 6.457 0 3.555 2.051 6.41 5.11 6.41M6.703-9.72c1.598 0 2.656 1.551 2.656 3.867 0 2.207-1.078 3.739-2.656 3.739-1.574 0-2.652-1.555-2.652-3.782 0-2.25 1.078-3.824 2.652-3.824m0 0"/><path id="g" d="m8.844 0 5.625-16.402H11.07L7.492-4.051 3.848-16.402H.449L5.984 0Zm0 0"/><path id="h" d="M9.426-17.031H6.594l-1.578 3.375h1.578Zm-2.903 4.68c-3.484 0-5.625 2.519-5.625 6.59C.898-1.868 3.016.515 6.457.515c2.723 0 4.93-1.551 5.625-3.938H8.977c-.383.97-1.258 1.533-2.407 1.533-2.117 0-2.453-1.55-2.52-3.195h8.145c.024-.27.024-.383.024-.539 0-5.379-3.266-6.727-5.696-6.727m2.41 5.175h-4.84c.204-1.847.993-2.77 2.387-2.77 1.461 0 2.317.993 2.454 2.77m0 0"/><path id="i" d="M4.613-16.402H1.461V0h3.152Zm0 0"/><path id="j" d="M6.887-12.352c-3.715 0-5.989 2.454-5.989 6.434C.898-1.914 3.172.516 6.906.516c3.692 0 6.008-2.45 6.008-6.344 0-4.117-2.226-6.524-6.027-6.524m.02 2.543c1.734 0 2.859 1.551 2.859 3.938 0 2.27-1.172 3.848-2.86 3.848-1.707 0-2.855-1.579-2.855-3.895s1.148-3.89 2.855-3.89m0 0"/></defs><use xlink:href="#a" y="16.4"/><use xlink:href="#b" x="19.5" y="16.4"/><use xlink:href="#c" x="32.6" y="16.4"/><use xlink:href="#d" x="45.2" y="16.4" fill="#065F46"/><use xlink:href="#e" x="60.8" y="16.4" fill="#065F46"/><use xlink:href="#f" x="67.1" y="16.4" fill="#065F46"/><use xlink:href="#b" x="81.1" y="16.4" fill="#065F46"/><use xlink:href="#c" x="94.2" y="16.4" fill="#065F46"/><use xlink:href="#g" x="106.8" y="16.4"/><use xlink:href="#h" x="121.7" y="16.4"/><use xlink:href="#i" x="134.8" y="16.4"/><use xlink:href="#j" x="140.9" y="16.4"/></svg>