<svg xmlns="http://www.w3.org/2000/svg" width="79" height="10" fill="none"><path fill="#000" d="m2.533 2.549 1.51 6.555h1.73l1.49-6.555v6.555h1.73V.692H6.387L4.91 7.385 3.386.692H.802v8.412h1.731zm10.692.22c-1.787 0-2.885 1.292-2.885 3.38 0 1.998 1.087 3.22 2.851 3.22 1.397 0 2.53-.796 2.886-2.02h-1.593c-.196.497-.645.786-1.235.786-1.085 0-1.258-.795-1.292-1.639h4.178c.012-.138.012-.196.012-.276 0-2.76-1.675-3.451-2.922-3.451m1.236 2.655H11.98c.105-.947.51-1.42 1.224-1.42.75 0 1.188.509 1.258 1.42m4.064 1.869h-1.58c.046 1.36 1.05 2.076 2.942 2.076 2.18 0 2.724-1.246 2.724-2.112 0-.807-.406-1.327-1.225-1.569l-2.041-.59c-.451-.138-.565-.23-.565-.484 0-.345.368-.577.933-.577.774 0 1.154.278 1.167.844h1.558c-.024-1.317-1.04-2.113-2.713-2.113-1.58 0-2.562.796-2.562 2.078 0 1.222 1.004 1.419 1.362 1.535l1.928.6c.402.128.542.254.542.51 0 .38-.45.61-1.2.61-1.015 0-1.177-.381-1.27-.808"/><path fill="#065F46" d="m28.66 7.407.552 1.697h1.777L28.082.692h-1.917l-2.987 8.412h1.765l.565-1.697zm-.476-1.442h-2.191l1.096-3.287zm5.303-3.091H31.87v6.23h1.617zm0-2.182H31.87v1.442h1.617zm3.889 8.677c.773 0 1.316-.289 1.718-.9v.635h1.618V.692h-1.618V3.68c-.402-.623-.945-.912-1.718-.912-1.49 0-2.621 1.43-2.621 3.312 0 1.823 1.052 3.288 2.62 3.288m.356-5.25c.82 0 1.362.795 1.362 1.983 0 1.132-.553 1.918-1.362 1.918-.807 0-1.36-.798-1.36-1.94 0-1.154.553-1.961 1.36-1.961m7.089-1.349c-1.787 0-2.885 1.292-2.885 3.38 0 1.998 1.087 3.22 2.852 3.22 1.396 0 2.528-.796 2.885-2.02h-1.593c-.196.497-.645.786-1.234.786-1.086 0-1.259-.795-1.293-1.639h4.178c.012-.138.012-.196.012-.276 0-2.76-1.675-3.451-2.921-3.451m1.237 2.655h-2.483c.105-.947.51-1.42 1.224-1.42.75 0 1.188.509 1.259 1.42m4.063 1.869h-1.58c.046 1.36 1.05 2.076 2.943 2.076 2.18 0 2.723-1.246 2.723-2.112 0-.807-.406-1.327-1.225-1.569l-2.041-.59c-.451-.138-.565-.23-.565-.484 0-.345.369-.577.933-.577.774 0 1.154.278 1.167.844h1.558c-.024-1.317-1.04-2.113-2.713-2.113-1.58 0-2.562.796-2.562 2.078 0 1.222 1.004 1.419 1.362 1.535l1.928.6c.403.128.543.254.543.51 0 .38-.451.61-1.2.61-1.016 0-1.178-.381-1.27-.808"/><path fill="#000" d="M59.193 9.104 62.078.692h-1.744L58.5 7.027 56.63.692h-1.743l2.839 8.412zM67.134.369H65.68L64.87 2.1h.81zm-1.49 2.4c-1.786 0-2.885 1.292-2.885 3.38 0 1.997 1.087 3.22 2.852 3.22 1.396 0 2.528-.796 2.885-2.02h-1.593c-.196.497-.645.786-1.234.786-1.086 0-1.258-.795-1.293-1.639h4.178c.012-.138.012-.196.012-.276 0-2.76-1.675-3.45-2.921-3.45m1.237 2.655h-2.483c.105-.948.51-1.421 1.225-1.421.749 0 1.187.51 1.258 1.42M71.384.692h-1.617v8.412h1.617zm4.296 2.077c-1.906 0-3.073 1.259-3.073 3.3 0 2.054 1.167 3.3 3.082 3.3 1.894 0 3.081-1.257 3.081-3.254 0-2.112-1.141-3.346-3.09-3.346m.01 1.304c.889 0 1.466.796 1.466 2.02 0 1.164-.601 1.974-1.467 1.974-.876 0-1.464-.81-1.464-1.998s.589-1.996 1.464-1.996"/></svg>