<svg xmlns="http://www.w3.org/2000/svg" width="160" height="130" fill="none"><g clip-path="url(#prefix__prefix__clip0_9454_178816)"><path fill="#F2FFE9" d="M0 0h160v130H0z"/><path fill="#A1D45A" d="m166.004 130.787-167.014.271c-97.757-119.342 167.823-90.379 167.014-.271"/><path fill="#6D9E29" d="M16.5 111.5c3-2.834 11-6.8 19 0 10 8.5-23.5 3.999-19 0m-7-1.5c3.5.5 8-2.9 4-4.499-2.501-1.001-8 3.499-4 4.499"/><path fill="#0C0C0C" d="M37.41 48.445s4.051 20.722 23.544 23.261c0 0-1.553-21.639-23.544-23.26z"/><path fill="#C7CDF7" d="m33.315 63.428 18.484-14.722 7.53 12.008-18.837 14.41s-7.072-4.877-7.177-11.696"/><path fill="#0C0C0C" d="m33.315 63.429-14.098 7.337 2.875 6.682 6.942-2.986s-4.003 5.519-4.442 8.8 6.354 17.639 7.95 18.483c1.596.843 2.482-15.27 3.46-17.777s7.54-10.813 7.54-10.813-1.48-4.745-6.268-4.162zm97.959 13.495s15.769 10.16 41.323 3.066c0 0-20.342-10.743-41.323-3.066"/><path fill="#C7CDF7" d="m146.783 95.116-4.516-23.194 14.128-1.13 4.076 23.364s-7.592 4.017-13.688.96"/><path fill="#13BF89" d="M60.954 71.706s30.293-24.953 37.255-37.085c10.164-17.712 7.602-71.24 7.602-71.24l-31.269-1.563s6.826 44.34 3.004 55.293C73.723 28.063 37.41 48.445 37.41 48.445s17.666 4.237 23.544 23.261"/><path stroke="#fff" stroke-miterlimit="10" d="M82.995-10.244s.154 23.095-2.277 30.69-35.816 31.211-35.816 31.211" opacity=".2"/><path stroke="#fff" stroke-miterlimit="10" d="M53.49 58.535s28.277-21.732 33.308-30.592 9.126-64.054 9.126-64.054" opacity=".2"/><path stroke="#fff" stroke-miterlimit="10" d="M104.471-36.246s-4.618 62.242-10.276 67.654c-3.109 2.973-35.295 35.1-35.295 35.1" opacity=".2"/><path fill="#0C0A0B" d="M77.985-9.035s.947 12.866.697 17.204c0 0 13.33 4.122 24.835 10.87 0 0 1.349-11.5 1.636-15.49z"/><path fill="#13BF89" d="M172.596 79.99s-8.777-47.304-26.294-62.453c-17.516-15.15-54.325-44.166-59.99-55.13l-31.773-1.589s-2.588 23.475 11.1 31.78C79.328.904 132.703 28.19 131.274 76.923c0 0 21.535-5.326 41.322 3.066z"/><path stroke="#fff" stroke-miterlimit="10" d="M59.095-37.1s-3.11 16.226 9.643 24.826 70.361 28.277 67.351 88.326" opacity=".2"/><path stroke="#fff" stroke-miterlimit="10" d="M71.607-36.172s-3.982 12.152 8.435 19.634 73.575 33.308 70.314 91.854" opacity=".2"/><path stroke="#fff" stroke-miterlimit="10" d="M164.845 76.39s-6.984-43.417-20.26-56.066c-13.276-12.648-49.708-38.876-54.413-43.5-4.705-4.623-5.326-12.014-5.326-12.014" opacity=".2"/><path stroke="#0C0A0B" stroke-miterlimit="10" stroke-width=".75" d="M131.003 68.908s19.288-5.566 39.187.309M48.522 41.782s17.781 9.84 20.912 22.682"/><path fill="#0C0C0C" d="m146.783 95.117-.006 15.893 7.254.538.559-7.537s3.044 6.099 5.752 8.006c2.708 1.906 18.579 2.516 20.065 1.489 1.485-1.027-12.396-9.257-14.167-11.283s-6.105-11.682-6.105-11.682-4.892-.88-6.588 3.636z"/></g></svg>