<svg width="24" height="25" viewBox="0 0 24 25" fill="none" xmlns="http://www.w3.org/2000/svg">
<path fill-rule="evenodd" clip-rule="evenodd" d="M12 2.22644C17.523 2.22644 22 6.70344 22 12.2264C22 17.7494 17.523 22.2264 12 22.2264C6.477 22.2264 2 17.7494 2 12.2264C2 6.70344 6.477 2.22644 12 2.22644ZM12 4.22644C7.58172 4.22644 4 7.80816 4 12.2264C4 16.6447 7.58172 20.2264 12 20.2264C16.4183 20.2264 20 16.6447 20 12.2264C20 7.80816 16.4183 4.22644 12 4.22644ZM15.815 8.68344L14.114 9.81644C13.4397 9.24621 12.5146 9.07403 11.6803 9.3635C10.8459 9.65296 10.2262 10.3611 10.05 11.2264H15V13.2264H10.05C10.2262 14.0918 10.8459 14.7999 11.6803 15.0894C12.5146 15.3788 13.4397 15.2067 14.114 14.6364L15.814 15.7694C14.621 17.0682 12.7793 17.5504 11.1029 17.0028C9.42649 16.4553 8.22443 14.979 8.028 13.2264H7V11.2264H8.027C8.22277 9.47297 9.4252 7.99567 11.1024 7.44801C12.7796 6.90035 14.6222 7.38338 15.815 8.68344Z" fill="black"/>
</svg>
