<svg width="24" height="25" viewBox="0 0 24 25" fill="none" xmlns="http://www.w3.org/2000/svg">
<g id="Ic&#195;&#180;ne">
<path id="Ic&#195;&#180;ne_2" d="M19 21.2264H5C4.73478 21.2264 4.48043 21.1211 4.29289 20.9335C4.10536 20.746 4 20.4917 4 20.2264V11.2264H1L11.327 1.83844C11.5111 1.67091 11.7511 1.57808 12 1.57808C12.2489 1.57808 12.4889 1.67091 12.673 1.83844L23 11.2264H20V20.2264C20 20.4917 19.8946 20.746 19.7071 20.9335C19.5196 21.1211 19.2652 21.2264 19 21.2264ZM13 19.2264H18V9.38344L12 3.92944L6 9.38344V19.2264H11V13.2264H13V19.2264Z" fill="#161616"/>
</g>
</svg>
