<svg width="25" height="25" viewBox="0 0 25 25" fill="none" xmlns="http://www.w3.org/2000/svg">
<g id="leaf">
<path id="Ic&#195;&#180;ne" fill-rule="evenodd" clip-rule="evenodd" d="M21.4016 3.11322L21.4016 5.11322C21.4016 14.7402 16.0286 19.1132 9.40161 19.1132L5.64461 19.1132C5.48161 20.0252 5.40161 21.0202 5.40161 22.1132L3.40161 22.1132C3.40161 20.7502 3.51761 19.5132 3.74761 18.3812C3.51761 17.0872 3.40161 15.3312 3.40161 13.1132C3.40161 7.59022 7.87861 3.11322 13.4016 3.11322C15.4016 3.11322 17.4016 4.11322 21.4016 3.11322ZM13.4016 5.11322C8.98361 5.11322 5.40161 8.69522 5.40161 13.1132C5.40161 13.4752 5.40461 13.8242 5.41161 14.1592C6.66561 12.1812 8.50261 10.6182 10.9056 9.24522L11.8976 10.9812C9.04261 12.6132 7.14861 14.4672 6.17761 17.1132L9.40161 17.1132C15.4166 17.1132 19.2726 13.1402 19.3986 5.50122C18.0266 5.63422 16.7516 5.54922 15.1786 5.31322C14.0286 5.14022 13.8026 5.11322 13.4016 5.11322Z" fill="#161616"/>
</g>
</svg>
