<svg width="26" height="27" viewBox="0 0 26 27" fill="none" xmlns="http://www.w3.org/2000/svg">
<rect width="25.4016" height="26.2264" rx="12.7008" fill="#E7E7E7"/>
<path d="M12.7009 12.7008C13.999 12.7008 15.0513 11.6485 15.0513 10.3504C15.0513 9.05231 13.999 8 12.7009 8C11.4028 8 10.3505 9.05231 10.3505 10.3504C10.3505 11.6485 11.4028 12.7008 12.7009 12.7008Z" stroke="#4D4D4D" stroke-width="2" stroke-linecap="round" stroke-linejoin="round"/>
<path d="M17.4016 18.2264V17.0512C17.4016 16.4278 17.154 15.83 16.7132 15.3892C16.2724 14.9484 15.6746 14.7008 15.0512 14.7008H10.3504C9.72704 14.7008 9.1292 14.9484 8.68842 15.3892C8.24763 15.83 8 16.4278 8 17.0512V18.2264" stroke="#4D4D4D" stroke-width="2" stroke-linecap="round" stroke-linejoin="round"/>
</svg>
