<svg xmlns="http://www.w3.org/2000/svg" width="132" height="117" fill="none"><path fill="#fff" d="M0 0h55v20H0z"/><path fill="#000091" d="M17.765 17.589c.007 0 .013-.01.013-.01a.8.8 0 0 0 .153-.147c-.007 0-.013 0-.02-.01-.047.05-.1.108-.146.167m7.357-2.479-.116.1c.066-.017.116-.034.116-.1"/><path fill="#000091" fill-rule="evenodd" d="M22.744 17.642c.213-.214.426-.442.639-.675h-.007c.4-.455.788-.89 1.253-1.287q.213-.195.407-.33a.2.2 0 0 0 .038-.076c.01-.03.02-.058.04-.074a1 1 0 0 0-.24.146 1 1 0 0 1-.251.152c-.04 0-.078-.038-.04-.077a9 9 0 0 0 .401-.306h-.026c-.038 0-.038-.039-.038-.078-.481-.076-.85.253-1.18.547l-.021.018c-.052.026-.1 0-.139-.02q-.029-.017-.049-.019c-.292.098-.544.28-.798.461-.234.168-.47.336-.739.442v-.078c-.091.032-.181.073-.272.114a2 2 0 0 1-.406.153c-.252.058-.487.05-.714.043l-.222-.004c-.413.04-.822.13-1.23.218l-.133.029q-.009.004-.019.006t-.02.007a2.8 2.8 0 0 0-.697.285l-.025.013-.026.033-.026.032a.9.9 0 0 1-.259.228c-.162.081-.302.207-.44.33q-.09.082-.18.157c-.012.013-.038.02-.058.02-.2.194-.4.39-.607.577-.012.013-.07.02-.116.013 0 0 .007 0 .007-.006l.02-.04.096-.155q.029-.044.055-.088t.055-.087q.075-.119.161-.228.02-.031 0-.052a.07.07 0 0 0-.051-.02c.187-.181.406-.337.632-.473v-.007c-.025.007-.064-.013-.045-.039a1 1 0 0 0 .05-.077l.015-.027.006-.016.007-.016-.013-.016q-.008-.007-.013-.017l-.04.026a.7.7 0 0 0-.217.19c-.06.075-.122.155-.215.155-.006 0-.038 0-.058-.007q-.03-.001-.038-.013v-.006h.006s.007-.007.007-.013c0 0 0-.007.006-.007l.01-.016.01-.016.009-.017.01-.016q.005-.005.006-.013.002-.008.007-.013l.007-.013a.2.2 0 0 0 .018-.039l.01-.016.01-.016q.014-.02.026-.043t.025-.042q.009-.02.026-.039l.02-.035.019-.036c.02-.033 0-.059-.026-.065a.9.9 0 0 1 .258-.227h-.012c.089-.045.18-.098.271-.15l.161-.09a.3.3 0 0 1 .065-.053 2.3 2.3 0 0 0-.594.3s-.052.018-.065.032c0 0-.039.012-.09-.033q-.009-.008-.007-.026c.023-.045.069-.075.119-.107.036-.024.075-.049.107-.081.039 0 .071 0 .071.039.744-.583 1.661-.718 2.581-.854.566-.083 1.133-.166 1.662-.354q.082-.06.168-.114.085-.055.168-.114c.094-.04.178-.106.268-.177.088-.07.181-.145.293-.2.298-.227.524-.487.64-.87 0-.039-.039-.078-.039-.078a6 6 0 0 1-1.653 1.247c-.573.302-1.186.347-1.794.392a11 11 0 0 0-.68.063c.04-.078.117-.078.188-.078 0-.092.044-.132.1-.183l.048-.044h.11c.02 0 .03-.02.039-.04.01-.019.02-.038.039-.038.077 0 .187-.04.148-.04-.059-.075-.145-.045-.24-.012-.091.032-.19.067-.283.013a.26.26 0 0 0 .054-.124c.01-.044.02-.083.056-.104h.148c0-.078.078-.15.078-.15.337-.202.662-.378.981-.552q.32-.172.633-.35c-.042 0-.08.018-.116.034-.058.027-.113.053-.18.005.038 0 .038-.028.038-.055 0-.028 0-.055.039-.055.242-.065.458-.17.678-.277.155-.076.313-.153.484-.217-.05 0-.098.014-.143.027-.088.025-.172.05-.27-.027a.4.4 0 0 0 .067-.046c.041-.033.081-.065.159-.065v-.11c0-.039.039-.039.077-.039-.038 0-.077-.039-.077-.039.02-.041.06-.05.106-.06a.24.24 0 0 0 .12-.05c-.039 0-.11 0-.11-.04.11-.149.297-.188.484-.227-.019-.039-.056-.039-.088-.039-.033 0-.06 0-.06-.039s.039-.039.078-.039h-.078c-.06-.03-.05-.085-.043-.123q.004-.015.004-.026c.152-.179.202-.39.251-.6.025-.102.049-.205.085-.303-.039 0-.078 0-.078-.039-.363.403-.938.556-1.485.701l-.051.014h-.188a.74.74 0 0 1-.639-.04 1 1 0 0 1-.221-.168 2 2 0 0 0-.154-.13 4.6 4.6 0 0 0-.936-.455 8.4 8.4 0 0 0-2.886-.415c.272-.15.561-.21.854-.27a6 6 0 0 0 .742-.194c.536-.164 1.055-.323 1.626-.29a.6.6 0 0 0-.259-.008 1 1 0 0 1-.116.008c-.431-.032-.867.064-1.322.164q-.145.033-.292.063c-.178.037-.348.09-.517.144a5 5 0 0 1-.574.155 1 1 0 0 0-.224.13c-.11.08-.214.156-.377.136v-.116c.375-.455.827-.903 1.427-.942.58-.095 1.128-.027 1.7.043l.29.035c.467.037.905.142 1.377.254l.05.012c.103 0 .16.09.217.179.046.072.09.141.157.159.092.031.184.037.276.043.134.009.268.018.402.106q-.002-.04-.009-.077c-.008-.05-.017-.099.009-.15.083-.084.179-.062.273-.04.073.018.146.035.211 0 .205-.126.013-.321-.18-.517a1.5 1.5 0 0 1-.233-.275c0-.039.039-.078.039-.078.085.076.163.155.242.233.196.195.388.386.655.52.188.079.64.19.562-.038-.133-.294-.36-.55-.588-.808q-.143-.158-.277-.322v-.15c-.06 0-.073-.022-.09-.05l-.02-.028v-.149c-.095-.05-.116-.128-.137-.208a.5.5 0 0 0-.05-.13c-.065-.105-.07-.234-.074-.367-.004-.106-.008-.214-.042-.315a4 4 0 0 1-.149-.643 26 26 0 0 0-.134-.673c-.08-.384-.156-.754-.202-1.14-.06-.55.219-1.016.503-1.493a8 8 0 0 0 .246-.429c.265-.455.562-.903 1.053-1.208.107-.444.398-.813.688-1.18l.022-.028C24.07.78 24.547.562 24.9.4l.04-.018a10 10 0 0 1 1-.382H0v20h18.404c.492-.357.981-.582 1.564-.85a29 29 0 0 0 1.097-.525c.526-.26 1.363-.671 1.678-.983m-5.84-2.698c-.073.007-.15.015-.122-.044.028-.131.162-.17.294-.21a1 1 0 0 0 .158-.055l.021-.011.016-.008c.073-.04.162-.086.228-.059.044.063.099.08.152.095.04.012.08.024.112.054-.14.14-.302.154-.468.168a1 1 0 0 0-.325.065zm-5.713-.914c0 .04.038.078.038.078.904-1.02 1.725-1.89 2.887-2.61.031-.014.02.002.004.024-.023.032-.054.076.035.053.384-.088.557-.417.725-.738q.065-.125.133-.243c.177-.287.427-.47.68-.656.182-.133.365-.267.522-.442 0 .04 0 .078-.04.117.04.04.078.04.117.04.068-.052.143-.073.214-.094.09-.026.177-.05.238-.134-.297-.117-.678-.156-.975-.039-.788.377-1.46.98-2.099 1.663-.387.41-.787.792-1.278 1.059a11.5 11.5 0 0 1-1.201 1.922m3.152-2.415c-.02.04-.04.061-.06.082a.3.3 0 0 0-.05.067.3.3 0 0 1-.148.148c-.039 0-.077 0-.077-.039.038-.148.148-.297.297-.336.038.006.038.045.038.077m1.652 5.768a.5.5 0 0 0 .09-.11c.032-.078-.168-.059-.2-.04-.03.024-.048.048-.07.076l-.008.01q-.041.045-.09.088l-.064.06q-.134.138-.278.267c-.064.058.142.084.187.045q.076-.06.142-.13c.017 0 .035-.003.046-.004l.008-.002h.004a.7.7 0 0 0 .264-.183l.02-.018c.026-.026-.006-.052-.051-.059m-.584-.422h-.002v.006l-.119.082c-.1.072-.2.143-.308.204a5 5 0 0 1-.313.158l-.184.089s0-.007-.007-.007c-.013-.02-.038-.026-.064-.013a1.7 1.7 0 0 0-.375.293.2.2 0 0 0-.051.051l-.059.059v.006c-.025.026-.051.052-.084.091l-.016.02c-.01.012-.018.024-.035.032-.026.013-.09.013-.084-.026V18a.3.3 0 0 1-.065.032l-.029.017q-.015.007-.029.016c-.006-.007-.02-.007-.026-.007s-.019 0-.025.007l-.046.037q-.045.036-.09.08-.115.107-.22.234s0 .006-.006.006q0 .005-.003.006-.003.003-.003.007l-.013.013-.006.007q-.002.006-.007.006l-.007.007q-.008.019-.026.038a.05.05 0 0 1-.032.014c-.006-.007-.013-.014-.013-.02l-.006-.01-.007-.01-.016-.029-.016-.029v-.006l-.003-.01-.004-.01.117-.136.006-.007.02-.023.019-.022.032-.04.033-.038.01-.017.009-.016q.058-.076.116-.162v-.007q.012-.008.013-.026.031-.039.052-.078l.038-.078v-.006l.007-.006q0-.005.003-.007t.003-.006l.02-.046.02-.045v-.007l.006-.026.006-.02q.002-.009.007-.019v-.006l.006-.03q.002-.015.006-.029c0-.006 0-.02-.006-.026a1 1 0 0 1 .148-.201l-.01.003-.005.003h-.004q-.042.029-.079.067-.03.03-.063.057c-.039.032-.116-.02-.065-.059a1 1 0 0 0 .084-.078s0-.006.007-.006q.038-.036.075-.076c.038-.04.076-.081.118-.113.046-.032.078-.058.117-.09q.01-.012.02-.014.036-.048.083-.097s.007 0 .007-.006c.221-.215.533-.291.851-.369.2-.049.404-.098.589-.183.104-.044.22-.027.335-.01.092.013.182.027.265.01.11 0 .226 0 .336.077-.255.136-.5.292-.74.446zm.807-2.648c-.03.004-.05.006-.033.023.11.11.335.071.49-.013.11-.078.226-.078.375-.078.039 0 .039-.072.039-.11a.8.8 0 0 0 .297.038c.897-.188 1.763-.376 2.59-.792-.837-.646-1.868-.934-2.878-1.216q-.252-.07-.5-.142c.036 0 .073.013.11.025.073.024.148.05.226-.025-.103-.081-.217-.097-.33-.112-.093-.013-.186-.026-.27-.076q.012 0 .03.004c.039.008.088.017.118-.043-.197-.099-.393-.132-.59-.166a4 4 0 0 1-.308-.061.37.37 0 0 0 .303-.377c0-.039-.077-.039-.116-.039-.445.227-.749.643-.936 1.13.169.1.35.088.53.077.1-.007.2-.013.297.001-.085.08-.208.102-.325.123a2 2 0 0 0-.127.027c-.117.026-.227.11-.188.188a.13.13 0 0 0 .084.052.54.54 0 0 0-.232.136c.106.084.216.068.324.052q.064-.011.128-.013c0 .047.03.063.063.08a.2.2 0 0 1 .046.03c-.187.072-.335.228-.374.338-.046.113-.132.186-.216.259a1 1 0 0 0-.159.157v.117q-.188.163-.379.307c-.26.2-.512.394-.712.674.039 0 .039.039.039.078a.5.5 0 0 1-.135.127c-.056.041-.11.08-.13.14 0 .038 0 .077.039.077.237-.078.442-.21.643-.34.182-.117.361-.232.558-.303.16-.038.3-.111.437-.182.116-.06.23-.12.35-.156a6 6 0 0 0 .301-.074 6 6 0 0 1 .3-.075c0 .039 0 .078.039.078h.297c-.018.044-.076.05-.115.055" clip-rule="evenodd"/><path fill="#E1000F" d="M55 0H33.488s.04.007.202.091c.176.091.403.215.54.286.28.143.546.325.722.605.078.11.188.338.117.487-.078.189-.117.495-.306.566-.228.117-.527.117-.793.078-.15 0-.3-.039-.456-.078.566.228 1.1.494 1.477 1.02.039.079.188.111.338.111.039 0 .039.078.039.111-.078.078-.15.117-.11.228h.11c.188-.078.15-.456.416-.339.188.111.267.378.15.566-.15.15-.3.267-.456.377a.32.32 0 0 0 0 .267c.11.15.15.299.189.455.117.267.15.566.267.832.15.566.299 1.132.266 1.704 0 .299-.15.565-.039.871.078.3.267.527.416.793.15.228.3.377.416.605.228.377.644.754.456 1.21-.11.266-.527.227-.794.376-.227.189-.039.495.078.683.189.338-.227.566-.494.683.078.117.228.078.267.15.039.188.227.298.11.494-.15.227-.605.338-.377.682.15.267.052.56-.039.832-.11.338-.416.488-.683.566a1.5 1.5 0 0 1-.715.04c-.078-.04-.15-.079-.228-.079-.643-.078-1.287-.26-1.924-.26-.189.039-.378.072-.527.15-.17.123-.325.26-.455.403l-.007.006c-.026.033-.058.059-.084.091-.013.02-.033.04-.046.059-.013.013-.02.026-.032.039a4 4 0 0 0-.3.435q-.01.018-.02.026c-.006.02-.019.033-.032.052a3.7 3.7 0 0 0-.286.696c-.26.865-.143 1.606.04 1.788.051.052 1.248.423 2.08.793.39.176.663.306.891.449h21.121V0z"/><path fill="gray" d="M34.767 7.295c.15.039.377.039.377.116-.078.3-.527.377-.755.682h-.117c-.11.078-.078.267-.188.267-.111-.04-.228 0-.339.038.15.15.339.267.566.228.04 0 .11.078.11.15 0 0 .04 0 .079-.04.039 0 .078 0 .078.04v.148c-.11.15-.306.078-.455.11.305.079.605.079.871 0 .228-.077 0-.454.15-.642-.078 0 0-.117-.078-.117.078-.078.15-.188.227-.227.078 0 .189-.04.228-.117 0-.078-.15-.11-.117-.188.227-.15.416-.377.338-.604-.039-.117-.338-.117-.527-.189-.188-.071-.416 0-.644.04-.188 0-.377.116-.566.149-.266.078-.494.227-.715.376.267-.11.527-.149.833-.227.227.007.416-.045.644.007"/><path fill="#161616" d="M2.06 47H4.9v-5.66h1.46L10.1 47h3.34l-4.38-6.2c1.44-.66 2.26-1.92 2.26-3.62 0-2.6-1.9-4.18-4.98-4.18H2.06zM6.5 35.36c1.2 0 1.9.72 1.9 1.78 0 1.14-.7 1.84-1.9 1.84H4.9v-3.62zm14.379-3.56 2.6-2.7h-2.92l-2.26 2.7zM15.539 47h8.16v-2.36h-5.32v-3.6h4.52v-2.36h-4.52v-3.32h5.32V33h-8.16zm11.76 0h2.84v-5.66h1.78c3.08 0 4.96-1.58 4.96-4.16 0-2.6-1.88-4.18-4.96-4.18H27.3zm4.74-11.64c1.2 0 1.92.72 1.92 1.78 0 1.14-.72 1.84-1.92 1.84h-1.9v-3.62zm15.745 6.4c0 1.88-1.08 2.98-2.82 2.98-1.78 0-2.84-1.1-2.84-2.98V33h-2.84v8.52c0 3.68 2.16 5.88 5.66 5.88 3.52 0 5.68-2.2 5.68-5.88V33h-2.84zM54.452 47h4.42c3.22 0 5.2-1.56 5.2-4.12 0-1.46-.82-2.66-2.3-3.32.98-.64 1.5-1.62 1.5-2.76 0-2.36-1.78-3.8-4.7-3.8h-4.12zm4.18-11.64c1.08 0 1.72.58 1.72 1.56 0 1.02-.64 1.6-1.72 1.6h-1.34v-3.16zm.4 5.52c1.32 0 2.12.68 2.12 1.88 0 1.18-.8 1.88-2.12 1.88h-1.74v-3.76zM67.287 47h8.16v-2.58h-5.32V33h-2.84zm10.959 0h2.84V33h-2.84zm18.793-.36-.84-.8c1.72-1.36 2.76-3.5 2.76-5.84 0-4-3.02-7.4-7.42-7.4-4.42 0-7.44 3.4-7.44 7.4s3.02 7.4 7.44 7.4q1.02 0 1.92-.24l1.66 1.48c1.38 1.2 2.82 1.84 4.38 1.84.62 0 1.02-.08 1.48-.26v-2.4c-.3.12-.7.16-1 .16-.9 0-1.86-.36-2.94-1.34m-5.5-1.9c-2.64 0-4.52-2.06-4.52-4.74s1.88-4.74 4.52-4.74c2.62 0 4.5 2.06 4.5 4.74s-1.88 4.74-4.5 4.74m18.698-2.98c0 1.88-1.08 2.98-2.82 2.98-1.78 0-2.84-1.1-2.84-2.98V33h-2.84v8.52c0 3.68 2.16 5.88 5.66 5.88 3.52 0 5.68-2.2 5.68-5.88V33h-2.84zm6.668 5.24h8.16v-2.36h-5.32v-3.6h4.52v-2.36h-4.52v-3.32h5.32V33h-8.16zM2.06 71H4.9v-5.96h4.52v-2.36H4.9v-3.32h5.32V57H2.06zm10.96 0h2.84v-5.66h1.46L21.06 71h3.34l-4.38-6.2c1.44-.66 2.26-1.92 2.26-3.62 0-2.6-1.9-4.18-4.98-4.18h-4.28zm4.44-11.64c1.2 0 1.9.72 1.9 1.78 0 1.14-.7 1.84-1.9 1.84h-1.6v-3.62zM25.343 71h3.02l1.34-3.64h5.6l1.34 3.64h3.02l-5.3-14h-3.72zm5.24-6.06 1.92-5.26 1.92 5.26zM42.126 71h2.84V60.88L51.226 71h3.64V57h-2.84v10.12L45.766 57h-3.64zm23.195-2.26c-2.64 0-4.52-2.06-4.52-4.74s1.88-4.74 4.52-4.74c1.6 0 2.86.78 3.66 1.92l2.24-1.74c-1.28-1.7-3.36-2.84-5.9-2.84-4.42 0-7.44 3.4-7.44 7.4 0 3.56 2.4 6.64 6.04 7.28l-1.76 2.94h2.52l1.74-2.9c2.04-.26 3.72-1.3 4.8-2.78l-2.24-1.72c-.8 1.14-2.06 1.92-3.66 1.92M72.128 71h3.02l1.34-3.64h5.6l1.34 3.64h3.02l-5.3-14h-3.72zm5.24-6.06 1.92-5.26 1.92 5.26zM88.91 71h2.84V57h-2.84zm5.793-1.94c1.24 1.48 2.82 2.34 5.18 2.34 2.58 0 4.62-1.58 4.66-4.22 0-4.8-6.36-4.08-6.36-6.62 0-.84.66-1.48 1.66-1.48 1.06 0 1.98.7 2.8 1.76l2.08-1.88c-1.2-1.42-2.8-2.36-4.9-2.36-2.68 0-4.52 1.84-4.52 4.06 0 4.74 6.36 4.04 6.36 6.62 0 1-.68 1.6-1.8 1.6-1.14 0-2.26-.64-3.1-1.72zM107.821 71h8.16v-2.36h-5.32v-3.6h4.52v-2.36h-4.52v-3.32h5.32V57h-8.16z"/><path fill="#000" fill-rule="evenodd" d="m51.96 107.7-1.86 1.7h-.48l1.1-1.94h1.24zm-1.34 6.579h-.4c-.5.6-1.06 1.08-1.6 1.08-.56 0-.84-.34-.84-1.08 0-.3.04-.62.1-.9l3.26-1.08c.64-1.52-.12-2.18-1.02-2.18-1.54 0-3.3 2.7-3.3 4.86 0 1.02.48 1.58 1.24 1.58.88-.02 1.8-.88 2.56-2.28M49.501 111c.44 0 .82.34.62 1.12l-2.02.54c.32-.96.92-1.66 1.4-1.66m-6.359.039h1.08l-1.72 4.72c-.16.4.06.8.48.8 1.22 0 2.68-1.04 3.24-2.52h-.3c-.44.62-1.4 1.3-2.12 1.42l1.58-4.42h1.62l.2-.68h-1.58l.6-1.7h-.62l-1.12 1.7-1.34.18zm-1.501-.899c.22 0 .52.24.38.68l-1.94 4.7c.5-.08 1.02-.56 1.32-1h.32c-.46 1.18-1.5 2.04-2.4 2.04-.22 0-.54-.24-.38-.68l1.8-4.7c-.5.08-1.02.56-1.32 1h-.3c.46-1.2 1.58-2.04 2.52-2.04m.561-1.2c.4 0 .74-.32.74-.74 0-.4-.34-.74-.74-.74-.42 0-.74.34-.74.74s.34.74.74.74m-8.74 3.9c.44-.96.28-1.4 0-1.4-.24 0-.52.26-.8.74h-.3c.46-1.02 1.06-2.04 1.72-2.04.56 0 .76.56.76 1.18v.88l.263-.308.002-.002.001-.001c.845-.992 1.49-1.749 2.234-1.749.58 0 .88.36.88.9 0 .32-.1.72-.32 1.14l-1.66 3.34c.5-.08 1.02-.56 1.32-1h.3c-.46 1.2-1.58 2.04-2.52 2.04-.42 0-.66-.44-.48-.8l1.92-3.7c.22-.42.26-.7-.08-.7-.46 0-1.54.76-2.12 1.46l-1.26 3.32c-.14.34-.28.42-.6.42-.52 0-.78-.34-.54-.88zm-1.302-1.281c.22-.76.1-1.44-.48-1.44-.723 0-.95.478-1.65 1.956l-.05.104v-.88c0-.62-.2-1.18-.76-1.18-.66 0-1.26 1.02-1.72 2.04h.3c.32-.46.62-.74.86-.74.28 0 .44.44 0 1.4l-1.28 2.84c-.24.54.02.88.54.88.32 0 .46-.08.6-.42l1.26-3.32c.36-.44.68-.82 1.08-1.24zm-6.32.561c.2-.78-.18-1.12-.62-1.12-.48 0-1.08.7-1.4 1.66zm.5 2.159h-.4c-.5.6-1.06 1.08-1.6 1.08-.56 0-.84-.34-.84-1.08 0-.3.04-.62.1-.9l3.26-1.08c.64-1.52-.12-2.18-1.02-2.18-1.54 0-3.3 2.7-3.3 4.86 0 1.02.48 1.58 1.24 1.58.88-.02 1.8-.88 2.56-2.28m-6.398-3.24h-1.08v-.5l1.34-.18 1.12-1.7h.62l-.6 1.7h1.58l-.2.68h-1.62l-1.58 4.42c.72-.12 1.68-.8 2.12-1.42h.3c-.56 1.48-2.02 2.52-3.24 2.52-.42 0-.64-.4-.48-.8zm-6.8 3.66c0-1.46 1.62-3.419 2.52-3.419.2 0 .4.02.56.08l-.94 2.519c-.54.66-1.38 1.46-1.78 1.46-.22 0-.36-.2-.36-.64m4.461-4.879.5.04-1.74 3.999c-.42.96-.24 1.4 0 1.4s.54-.28.86-.74h.3c-.46 1.02-1.06 2.04-1.72 2.04-.56 0-.9-.6-.8-1.68l.04-.38-.109.153c-.716 1.001-1.365 1.907-2.031 1.907-.58 0-.88-.36-.88-.9 0-2.319 2.54-5.279 4.92-5.279h.1zm-4.581 1.739c.22-.76.1-1.44-.48-1.44-.724 0-.95.478-1.651 1.956l-.05.104v-.88c0-.62-.2-1.18-.76-1.18-.66 0-1.26 1.02-1.72 2.04h.3c.32-.46.62-.74.84-.74.28 0 .44.44 0 1.4l-1.28 2.86c-.24.54.02.88.54.88.32 0 .46-.08.6-.42l1.26-3.32c.36-.44.68-.82 1.08-1.24h1.32zm-8.242 4.399-.12.36H0l.12-.38c1.44-.26 1.68-.38 2.28-2l1.3-3.48c.58-1.62.46-1.74-.8-2l.12-.36h6.06l-.36 1.94h-.44c0-1.16-.12-1.46-1.22-1.46h-.28c-1.08 0-1.22.16-1.52 1l-.86 2.34h1.26c.84 0 1.16-.52 1.54-1.2h.44l-1.04 2.84h-.44c.1-.86.1-1.2-.68-1.2H4.22l-.58 1.6c-.627 1.665-.448 1.699 1.045 1.982zM8.74 92.4l-1.86 1.34v.02H6.4l1.1-1.6h1.24zm13.001 9.38 2.98-7.92-.1-.12-2.06.24v.24l.4.3c.342.266.252.513-.032 1.289l-.047.13-2.28 6.081c-.18.36.06.8.48.8.94 0 1.94-.86 2.4-2.04h-.3c-.32.44-.96.92-1.44 1m13.659-6.1 1.86-1.7v-.24h-1.24l-1.1 1.94zm.119 4.86h.4c-.74 1.42-1.66 2.28-2.54 2.28-.76 0-1.24-.56-1.24-1.58 0-2.16 1.76-4.86 3.3-4.86.88 0 1.66.66 1.02 2.18l-3.28 1.08c-.06.28-.1.6-.1.9 0 .74.28 1.08.84 1.08.54 0 1.1-.48 1.6-1.08m-.101-2.16c.2-.76-.18-1.1-.62-1.1-.46 0-1.06.7-1.4 1.64zm-5.88-1.06h-1.08v-.5l1.34-.18 1.12-1.7h.62l-.6 1.7h1.58l-.2.68h-1.62l-1.58 4.419c.72-.12 1.68-.8 2.12-1.42h.3c-.56 1.48-2.02 2.52-3.24 2.52-.42 0-.64-.4-.48-.8zm-2.2-.24c.12-.44-.16-.68-.4-.68-.94 0-2.06.86-2.52 2.04h.3c.3-.44.82-.92 1.32-1l-1.8 4.699c-.16.44.16.68.38.68.9 0 1.94-.86 2.4-2.04h-.3c-.3.44-.82.92-1.32 1zm.921-2.6c0 .4-.34.74-.74.74s-.74-.34-.74-.74.32-.74.74-.74c.4 0 .74.34.74.74m-10.098 3.08c-.9 0-2.52 1.96-2.52 3.42 0 .44.14.64.38.64.38 0 1.22-.8 1.76-1.46l.94-2.52c-.18-.06-.36-.08-.56-.08m2.44-1.42-.5-.04-.56.56h-.1c-2.38 0-4.92 2.96-4.92 5.28 0 .54.3.9.88.9.667 0 1.315-.906 2.032-1.908l.109-.152-.04.38c-.1 1.08.24 1.68.8 1.68.66 0 1.26-1.02 1.72-2.04h-.3c-.32.46-.62.74-.86.74s-.42-.44 0-1.4zm-10.08 6.48c-.86.34-1.46.74-1.46 1.36 0 .58.54.82 1.66.82 1.5 0 2.32-.44 2.32-1.02 0-.26-.34-.38-1.24-.68-.58-.18-1-.34-1.28-.48m.998-2.46c-.4 0-.54-.34-.54-.7 0-1.16.56-2.6 1.46-2.6.4 0 .54.34.54.7-.02 1.18-.58 2.6-1.46 2.6m.762 1.88c1.1.34 1.78.6 1.78 1.36 0 .98-1.8 2.14-3.98 2.12-1.26 0-2.34-.34-2.34-1.16 0-.78.72-1.42 2.48-1.94a.7.7 0 0 1-.34-.64c0-.48.44-.86 1.2-1.22-.74-.1-1.22-.66-1.22-1.48 0-1.26 1.04-2.7 2.68-2.7.34 0 .64.08.88.24h1.8l-.2.68h-1.06c.06.18.1.38.1.6 0 1.22-.98 2.62-2.54 2.7-.4.22-.6.52-.6.76 0 .282.328.378 1.05.589zM5.94 98.62c.78 0 .8.34.68 1.2h.44l1.04-2.84h-.44c-.38.68-.7 1.2-1.54 1.2H4.4l.84-2.34c.3-.84.44-1 1.52-1h.76c1.1 0 1.22.3 1.22 1.46h.44l.36-1.94H3.02l-.12.36c1.26.26 1.38.38.8 2l-1.3 3.5c-.6 1.62-.84 1.74-2.3 2l-.1.38h7.24l1.3-2.06h-.5c-.84.82-1.68 1.58-3.32 1.58-1.804 0-1.772-.088-1.23-1.575l.11-.305.6-1.6h1.74zm5.978-17.14c.4 0 .74-.34.74-.74s-.34-.74-.74-.74c-.42 0-.74.34-.74.74 0 .42.32.74.74.74M17.84 84c0-.96-.24-1.32-.92-1.32-.84 0-1.62.9-2.4 1.98l1.68-4.5-.1-.14-2.06.24v.24l.4.3c.349.27.248.541-.049 1.337l-.03.082-1.82 4.76c-.16.4-.34.88-.34 1 0 .56.76 1.1 1.46 1.1 1.56.02 4.18-2.86 4.18-5.08m17.34-2.04 1.86-1.7v-.24H35.8l-1.1 1.94zm.12 4.859h.4c-.76 1.42-1.68 2.28-2.56 2.26-.76 0-1.24-.54-1.24-1.56 0-2.16 1.76-4.86 3.3-4.86.88 0 1.66.66 1.02 2.18l-3.26 1.08c-.06.28-.1.6-.1.9 0 .74.28 1.08.84 1.08.54 0 1.1-.48 1.6-1.08m-.101-2.16c.2-.76-.18-1.1-.62-1.1-.48 0-1.08.7-1.4 1.64zM29.296 83.6h-1.08v-.5l1.34-.18 1.12-1.7h.62l-.6 1.7h1.58l-.2.68h-1.62l-1.58 4.42c.72-.12 1.68-.8 2.12-1.42h.3c-.56 1.48-2.02 2.52-3.24 2.52-.42 0-.64-.4-.48-.8zm-1.636.52c.22-.76.1-1.44-.48-1.44-.723 0-.95.478-1.65 1.956l-.05.104v-.88c0-.62-.2-1.18-.76-1.18-.66 0-1.26 1.02-1.72 2.04h.3c.32-.46.62-.74.84-.74.28 0 .44.44 0 1.4l-1.28 2.84c-.24.54.02.88.54.88.32 0 .46-.08.6-.42l1.26-3.32c.36-.44.68-.82 1.08-1.24zm-6.34.54c.2-.76-.18-1.1-.62-1.1-.48 0-1.06.7-1.4 1.64zm.5 2.159h-.4c-.5.6-1.06 1.08-1.6 1.08-.56 0-.84-.34-.84-1.08 0-.3.04-.62.1-.9l3.26-1.08c.64-1.52-.12-2.18-1.02-2.18-1.54 0-3.3 2.7-3.3 4.86 0 1.02.48 1.56 1.24 1.56.88.02 1.8-.84 2.56-2.26m-8.399.76c0 .26.46.56.78.56 1.3 0 2.52-2.34 2.5-3.64 0-.44-.22-.62-.52-.62-.48 0-1.36.72-1.92 1.4l-.52 1.4c-.18.46-.32.82-.32.9m-2.1-4.898c.24 0 .52.24.4.68l-1.92 4.699c.5-.08 1.02-.56 1.32-1h.3c-.46 1.18-1.5 2.04-2.4 2.04-.24 0-.56-.24-.4-.68l1.8-4.7c-.5.08-1.02.56-1.32 1h-.3c.46-1.18 1.58-2.04 2.52-2.04M3.02 80.6h4.3l-.12.38c-1.46.26-1.7.38-2.3 2L3.62 86.5c-.62 1.679-.46 1.879.64 1.879 1.359 0 2.25-.988 3.028-1.85l.172-.19h.5l-1.42 2.52H0l.12-.36c1.44-.26 1.68-.38 2.28-2l1.3-3.54c.58-1.62.46-1.74-.8-2z" clip-rule="evenodd"/></svg>