<svg xmlns="http://www.w3.org/2000/svg" xmlns:xlink="http://www.w3.org/1999/xlink" viewBox="0 0 154 17">
    <defs>
        <path id="a"
            d="M5.175781-12.78125 8.121094 0h3.375l2.902344-12.78125V0h3.375v-16.402344h-5.082032L9.808594-3.351562l-2.96875-13.050782H1.800781V0h3.375Zm0 0" />
        <path id="b"
            d="M6.523438-12.351562c-3.484376 0-5.625 2.519531-5.625 6.589843 0 3.894531 2.117187 6.277344 5.558593 6.277344 2.722657 0 4.929688-1.550781 5.625-3.9375H8.976562c-.382812.96875-1.257812 1.53125-2.40625 1.53125-2.117187 0-2.453124-1.550781-2.519531-3.195313h8.144531c.023438-.269531.023438-.382812.023438-.539062 0-5.378906-3.265625-6.726562-5.695312-6.726562Zm2.410156 5.175781H4.09375c.203125-1.847657.992188-2.769531 2.386719-2.769531 1.460937 0 2.316406.992187 2.453125 2.769531Zm0 0" />
        <path id="c"
            d="M3.757812-3.53125H.675781C.765625-.878906 2.722656.515625 6.414062.515625c4.25 0 5.308594-2.429687 5.308594-4.117187 0-1.574219-.789062-2.585938-2.386718-3.058594L5.355469-7.808594c-.878907-.269531-1.101563-.449218-1.101563-.945312 0-.671875.71875-1.125 1.820313-1.125 1.507812 0 2.25.542968 2.273437 1.644531h3.039063c-.046875-2.566406-2.027344-4.117187-5.289063-4.117187-3.082031 0-4.996094 1.550781-4.996094 4.050781 0 2.382812 1.957032 2.765625 2.65625 2.992187l3.757813 1.167969c.785156.25 1.058594.496094 1.058594.992187 0 .742188-.878907 1.191407-2.339844 1.191407-1.980469 0-2.296875-.742188-2.476563-1.574219Zm0 0" />
        <path id="d"
            d="M10.914062-3.308594 11.992188 0h3.464843L9.789062-16.402344H6.050781L.226562 0h3.441407l1.101562-3.308594Zm-.925781-2.8125H5.714844l2.136718-6.410156Zm0 0" />
        <path id="e" d="M4.726562-12.148438H1.574219V0h3.152343Zm0-4.253906H1.574219v2.8125h3.152343Zm0 0" />
        <path id="f"
            d="M6.007812.515625c1.507813 0 2.566407-.5625 3.351563-1.753906V0h3.152344v-16.402344H9.359375v5.828125c-.785156-1.214843-1.84375-1.777343-3.351563-1.777343-2.902343 0-5.109374 2.789062-5.109374 6.457031 0 3.554687 2.050781 6.410156 5.109374 6.410156ZM6.703125-9.71875c1.597656 0 2.65625 1.550781 2.65625 3.867188 0 2.207031-1.078125 3.738281-2.65625 3.738281-1.574219 0-2.652344-1.554688-2.652344-3.78125 0-2.25 1.078125-3.824219 2.652344-3.824219Zm0 0" />
        <path id="g"
            d="m8.84375 0 5.625-16.402344h-3.398438L7.492188-4.050781 3.847656-16.402344H.449219L5.984375 0Zm0 0" />
        <path id="h"
            d="M9.425781-17.03125H6.59375l-1.578125 3.375H6.59375Zm-2.902343 4.679688c-3.484376 0-5.625 2.519531-5.625 6.589843 0 3.894531 2.117187 6.277344 5.558593 6.277344 2.722657 0 4.929688-1.550781 5.625-3.9375H8.976562c-.382812.96875-1.257812 1.53125-2.40625 1.53125-2.117187 0-2.453124-1.550781-2.519531-3.195313h8.144531c.023438-.269531.023438-.382812.023438-.539062 0-5.378906-3.265625-6.726562-5.695312-6.726562Zm2.410156 5.175781H4.09375c.203125-1.847657.992188-2.769531 2.386719-2.769531 1.460937 0 2.316406.992187 2.453125 2.769531Zm0 0" />
        <path id="i" d="M4.613281-16.402344H1.460938V0h3.152343Zm0 0" />
        <path id="j"
            d="M6.886719-12.351562c-3.714844 0-5.988281 2.453124-5.988281 6.433593 0 4.003907 2.273437 6.433594 6.007812 6.433594 3.691406 0 6.007812-2.449219 6.007812-6.34375 0-4.117187-2.226562-6.523437-6.027343-6.523437Zm.019531 2.542968c1.734375 0 2.859375 1.550782 2.859375 3.9375 0 2.269532-1.171875 3.847656-2.859375 3.847656-1.707031 0-2.855469-1.578124-2.855469-3.894531 0-2.316406 1.148438-3.890625 2.855469-3.890625Zm0 0" />
    </defs>
    <use xlink:href="#a" x="0" y="16.4" />
    <use xlink:href="#b" x="19.5" y="16.4" />
    <use xlink:href="#c" x="32.6" y="16.4" />
    <use xlink:href="#d" x="45.2" y="16.4" fill="#065F46" />
    <use xlink:href="#e" x="60.8" y="16.4" fill="#065F46" />
    <use xlink:href="#f" x="67.1" y="16.4" fill="#065F46" />
    <use xlink:href="#b" x="81.1" y="16.4" fill="#065F46" />
    <use xlink:href="#c" x="94.2" y="16.4" fill="#065F46" />
    <use xlink:href="#g" x="106.8" y="16.4" />
    <use xlink:href="#h" x="121.7" y="16.4" />
    <use xlink:href="#i" x="134.8" y="16.4" />
    <use xlink:href="#j" x="140.9" y="16.4" />
</svg>